<?xml version="1.0" encoding="utf-8"?>
<!-- Generator: Adobe Illustrator 22.0.0, SVG Export Plug-In . SVG Version: 6.00 Build 0)  -->
<svg version="1.1" id="Layer_1" xmlns="http://www.w3.org/2000/svg" xmlns:xlink="http://www.w3.org/1999/xlink" x="0px" y="0px"
	 viewBox="0 0 792 612" style="enable-background:new 0 0 792 612;" xml:space="preserve">
<style type="text/css">
	.st0{fill:url(#SVGID_1_);}
	.st1{fill:none;stroke:#E6E6E5;stroke-width:2;stroke-miterlimit:10;}
	.st2{fill:none;stroke:#9B9A9A;stroke-width:4;stroke-miterlimit:10;}
	.st3{fill:none;stroke:#ED2A91;stroke-width:2;stroke-miterlimit:10;}
</style>
<g>
	
		<image style="overflow:visible;opacity:0.4;enable-background:new    ;" width="654" height="654" xlink:href="49A1ACE93269FCC8.png"  transform="matrix(0.9321 0 0 0.9054 118.1007 27.2875)">
	</image>
	<g>
		
			<linearGradient id="SVGID_1_" gradientUnits="userSpaceOnUse" x1="147.1654" y1="482.2228" x2="654.8253" y2="482.2228" gradientTransform="matrix(1 0 0 1 0 -180)">
			<stop  offset="0" style="stop-color:#C2C0C0"/>
			<stop  offset="0.9859" style="stop-color:#FFFFFF"/>
		</linearGradient>
		<ellipse class="st0" cx="401" cy="302.2" rx="253.8" ry="246.6"/>
		<ellipse class="st1" cx="401" cy="302.2" rx="253.8" ry="246.6"/>
	</g>
</g>
<ellipse class="st2" cx="401.4" cy="302.6" rx="298.7" ry="290.2"/>
<g>
	<path class="st3" d="M589.6,201.3c18.4,21.2,27.7,44.8,27.7,69.8s-9.4,48.6-27.7,69.8c-18.4,21.2-43.3,38.3-75,50.8
		c-31.6,12.5-66,18.6-103.5,18.6c-10.5,0-21.9-0.8-33.2-1.9c-30.5,25.4-65.6,42.9-105.8,52.7c-7.4,1.9-16.4,3.8-26.2,4.9h-1.2
		c-2.3,0-4.3-0.8-6.2-2.3c-2-1.5-3.1-3.4-3.5-6.1v-0.4c-0.4-0.8-0.4-1.5,0-2.7c0.4-1.1,0.4-1.9,0.4-2.3s0.4-1.1,1.2-1.9
		c0.8-1.1,1.2-1.9,1.6-1.9c0-0.4,0.8-0.8,1.6-1.9c0.8-1.1,1.6-1.5,2-1.9c1.2-1.1,3.5-3.8,7-7.6c3.5-3.8,6.2-6.4,7.8-8.3
		c1.6-1.5,3.9-4.6,7-8.7c3.1-4.2,5.5-7.6,7.4-11c2-3.4,3.9-7.6,6.2-12.9c2.3-5.3,4.3-10.6,5.9-16.7c-24.2-12.9-43-28.8-57-47.8
		c-14.1-19-20.7-39.4-20.7-61.1c0-25.4,9.4-48.6,27.7-69.8c18.4-21.2,43.3-38.3,75-50.8c31.6-12.5,66-18.6,103.5-18.6
		s71.9,6.1,103.5,18.6C546.3,163,571.3,179.7,589.6,201.3z M499,174.8c-27.3-10.2-56.6-15.2-87.9-15.2s-60.5,4.9-87.9,15.2
		s-48.8,23.5-64.8,41c-16,17.1-24.2,35.7-24.2,55.4c0,16.3,5.5,31.9,16.4,46.3c10.9,14.8,26.6,27.3,46.5,38.3l19.9,11l-6.2,20.9
		c-3.5,13.3-9,25.8-16,37.6c23.4-9.1,44.5-21.6,63.3-37.2l9.8-8.3l13.3,1.1c10.5,1.1,20.7,1.9,30.1,1.9c31.2,0,60.5-4.9,87.9-15.2
		c27.3-10.2,48.8-23.5,64.8-41c16-17.1,24.2-35.7,24.2-55.4c0-19.7-8.2-38.3-24.2-55.4S526,185,499,174.8z"/>
</g>
<g>
	<path class="st3" d="M432.6,320.8c0,4.9,0,8.7,0.4,12.1c0.4,3.4,1.2,6.1,2.7,8c1.6,2.3,3.9,3.8,7.4,4.9c3.1,1.1,7.8,1.9,14.1,2.7
		c1.6,0.4,2.7,0.8,3.5,1.5c0.8,0.8,1.2,1.9,1.2,3c0,1.1-0.4,1.9-1.2,2.7s-2,1.1-3.5,1.1c-4.7,0-10.9-0.4-18.4-1.1
		c-7.4-0.8-15.2-1.1-23-1.1c-8.2,0-16.4,0.4-24.6,1.1c-7.8,0.8-15.6,1.1-23,1.1c-1.2,0-2.3-0.4-3.1-1.1c-0.8-0.8-1.2-1.9-1.2-2.7
		c0-1.1,0.4-2.3,1.2-3c0.8-0.8,2-1.5,3.5-1.5c6.6-0.8,12.1-1.5,16-2.7c3.9-1.1,6.6-2.7,8.2-4.9c1.6-1.9,2.7-4.6,3.1-7.6
		c0.4-3,0.4-6.8,0.4-11v-46.7c0-8.3-0.4-15.2-0.8-20.1c-0.4-4.9-1.6-8.7-3.5-11.4s-4.7-4.6-8.2-5.3c-3.5-1.1-8.6-1.9-14.8-2.3
		c-1.6,0-2.7-0.4-3.5-1.5c-0.8-1.1-1.2-1.9-1.2-3c0-1.1,0.4-1.9,1.2-3c0.8-1.1,2-1.5,3.5-1.5c2.7-0.4,5.9-0.4,9.8-0.8
		c3.9-0.4,7.8-0.4,12.1-0.8c4.3-0.4,8.6-0.8,12.9-1.1c4.3-0.4,8.2-1.1,11.7-1.5c2.7-0.4,5.1-0.8,7-1.1c1.6-0.4,3.1-0.8,4.3-0.8
		c3.1,0,5.1,0.8,6.2,1.9c0.8,1.5,1.6,2.7,1.6,3.8v93.7L432.6,320.8L432.6,320.8z M411.9,211.9c-6.6,0-12.1-1.5-16.8-4.6
		c-4.7-3-7-6.8-7-11c0-4.6,2.3-8.3,6.6-11.4c4.3-3,9.8-4.6,16.4-4.6c6.2,0,11.3,1.5,15.6,4.9c3.9,3,6.2,6.8,6.2,11.4
		c0,4.2-2,8-5.9,11C422.9,210.8,417.8,211.9,411.9,211.9z"/>
</g>
</svg>
