<svg id="Layer_1" data-name="Layer 1" xmlns="http://www.w3.org/2000/svg" xmlns:xlink="http://www.w3.org/1999/xlink" viewBox="0 0 736.08 364.69"><defs><style>.cls-1{opacity:0.4;isolation:isolate;}.cls-2{fill:url(#Degradado_sin_nombre);}.cls-12,.cls-13,.cls-14,.cls-15,.cls-17,.cls-18,.cls-19,.cls-20,.cls-21,.cls-22,.cls-24,.cls-25,.cls-26,.cls-3,.cls-7,.cls-8{fill:none;}.cls-3{stroke:#e6e6e5;}.cls-10,.cls-12,.cls-13,.cls-14,.cls-15,.cls-17,.cls-18,.cls-19,.cls-20,.cls-21,.cls-22,.cls-24,.cls-25,.cls-26,.cls-3,.cls-7{stroke-miterlimit:10;}.cls-14,.cls-15,.cls-16,.cls-17,.cls-22,.cls-3,.cls-7,.cls-8,.cls-9{stroke-width:2px;}.cls-4{fill:url(#Degradado_sin_nombre_2);}.cls-5{fill:url(#Degradado_sin_nombre_3);}.cls-6{fill:url(#Degradado_sin_nombre_4);}.cls-16,.cls-21,.cls-7,.cls-8,.cls-9{stroke:#676767;}.cls-16,.cls-8,.cls-9{stroke-linecap:round;stroke-linejoin:round;}.cls-27,.cls-9{fill:#e6e6e5;}.cls-10{fill:#e90a8a;}.cls-10,.cls-17,.cls-18,.cls-20{stroke:#e90a8a;}.cls-11{fill:url(#Degradado_sin_nombre_5);}.cls-12,.cls-13,.cls-19{stroke:#56a445;}.cls-12{stroke-width:0.75px;}.cls-13,.cls-20,.cls-26{stroke-width:1.5px;}.cls-14,.cls-15{stroke:#9b9a9a;}.cls-15{stroke-dasharray:5.7 8.55;}.cls-16,.cls-29{fill:#676767;}.cls-22,.cls-24,.cls-26{stroke:#e7138a;}.cls-23{fill:url(#Degradado_sin_nombre_6);}.cls-25{stroke:#57a445;}.cls-28{fill:#676868;}</style><linearGradient id="Degradado_sin_nombre" x1="55.21" y1="373.31" x2="151.31" y2="373.31" gradientTransform="translate(-44.75 -295.66)" gradientUnits="userSpaceOnUse"><stop offset="0" stop-color="#c2c0c0"/><stop offset="0.99" stop-color="#fff"/></linearGradient><linearGradient id="Degradado_sin_nombre_2" x1="646.94" y1="372.91" x2="751.68" y2="372.91" xlink:href="#Degradado_sin_nombre"/><linearGradient id="Degradado_sin_nombre_3" x1="486.81" y1="552.09" x2="571.58" y2="552.09" xlink:href="#Degradado_sin_nombre"/><linearGradient id="Degradado_sin_nombre_4" x1="132.61" y1="564.49" x2="249.72" y2="564.49" xlink:href="#Degradado_sin_nombre"/><linearGradient id="Degradado_sin_nombre_5" x1="291.43" y1="373.94" x2="430.09" y2="373.94" gradientTransform="translate(0 -180)" xlink:href="#Degradado_sin_nombre"/><linearGradient id="Degradado_sin_nombre_6" x1="308.77" y1="452.09" x2="403.03" y2="452.09" gradientTransform="matrix(1, 0, 0, -1, -44.75, 500.34)" gradientUnits="userSpaceOnUse"><stop offset="0" stop-color="#c3c0c0"/><stop offset="0.99" stop-color="#fff"/></linearGradient></defs><title>infog_tip</title><image class="cls-1" width="392" height="396" transform="translate(0 22.88) scale(0.34 0.31)" xlink:href="../../../../laragon/www/spapel/public/assets/2A07077A8E3C5C3A.png"/><ellipse class="cls-2" cx="58.51" cy="77.65" rx="48.05" ry="44.53"/><ellipse class="cls-3" cx="58.51" cy="77.65" rx="48.05" ry="44.53"/><image class="cls-1" width="425" height="429" transform="translate(591.05 17.52) scale(0.34 0.32)" xlink:href="../../../../laragon/www/spapel/public/assets/2A07077A8E3C5C3E.png"/><ellipse class="cls-4" cx="654.55" cy="77.25" rx="52.37" ry="48.53"/><ellipse class="cls-3" cx="654.56" cy="77.25" rx="52.37" ry="48.53"/><image class="cls-1" width="350" height="350" transform="translate(432.33 208.32) scale(0.34 0.31)" xlink:href="../../../../laragon/www/spapel/public/assets/2A07077A8E3C5C39.png"/><ellipse class="cls-5" cx="484.5" cy="256.43" rx="42.44" ry="39.33"/><ellipse class="cls-3" cx="484.51" cy="256.43" rx="42.44" ry="39.33"/><image class="cls-1" width="475" height="475" transform="translate(75.05 202.65) scale(0.34 0.32)" xlink:href="../../../../laragon/www/spapel/public/assets/2A07077A8E3C5C3B.png"/><ellipse class="cls-6" cx="146.41" cy="268.83" rx="58.55" ry="54.26"/><ellipse class="cls-3" cx="146.41" cy="268.83" rx="58.55" ry="54.26"/><rect class="cls-7" x="157.07" y="367.56" width="68.19" height="42" transform="translate(-45.46 -115.31) rotate(-0.1)"/><polygon class="cls-8" points="112.31 294.03 146.41 262.43 180.51 293.89 112.31 294.03"/><polygon class="cls-9" points="112.17 252.03 146.41 276.16 180.51 251.9 112.17 252.03"/><path class="cls-10" d="M133.61,197.84l-5-4.8V166.91H101l-6-5.6h-18v63.46h56.68Zm-2,.8v7.2l-3-2.94v-7.19Zm-5,2.4L114.91,190h6.62v-1.86H113l-4.46-4.27h13.09V182h-15l-4.46-4.26h19.57v-1.87H100.38l-5-4.67h-9.5v-2.39h40.72V201ZM78.94,163.18H94.05l4,3.73H83.84v4.26h-4.9v-8Zm0,59.59V173H94.05L131.6,208.5v14.27Z" transform="translate(-44.75 -115.66)"/><image class="cls-1" width="558" height="563" transform="translate(232.2) scale(0.34 0.32)" xlink:href="../../../../laragon/www/spapel/public/assets/2A07077A8E3C5C38.png"/><path class="cls-11" d="M428.69,181c7.62,34.8-16.55,68.66-53.95,75.86-37.55,7.07-74.09-15.33-81.86-50s16.54-68.66,53.95-75.85C384.52,123.71,421.06,146.78,428.69,181Z" transform="translate(-44.75 -115.66)"/><path class="cls-3" d="M428.69,181c7.62,34.8-16.55,68.66-53.95,75.86-37.55,7.07-74.09-15.33-81.86-50s16.54-68.66,53.95-75.85C384.52,123.71,421.06,146.78,428.69,181Z" transform="translate(-44.75 -115.66)"/><path class="cls-12" d="M687.22,162.51a9.43,9.43,0,0,0-2.3-.53,11.57,11.57,0,0,1,2.45,1.06,5.91,5.91,0,0,0-1.73.14c-.86,0-1.3-.8-2.3-1.2a.47.47,0,0,0-.29-.14h.43c.72-.13,1.44-.66,2.3-.4A1.56,1.56,0,0,1,687.22,162.51Z" transform="translate(-44.75 -115.66)"/><path class="cls-12" d="M670.53,182.91a18.47,18.47,0,0,1-1,1.73,4.64,4.64,0,0,1,.28-2.53,4.55,4.55,0,0,0-.72,3.06,10.11,10.11,0,0,1-.86-2c0-1.33,1.3-1.86,2.3-2.53l.29-.27a.59.59,0,0,0-.14.4C670.25,181.44,670.82,182.24,670.53,182.91Z" transform="translate(-44.75 -115.66)"/><path class="cls-12" d="M702.47,161.71a11.48,11.48,0,0,1,1.87,1.33c-.72-.26-1.87-.26-2-.4-1.15-.26-1.44-1.46-2.16-2.4-.14-.13-.14-.26-.29-.26-.57.4-.72,1.2-1.29,1.46a5.16,5.16,0,0,1-2,.54,12.58,12.58,0,0,1,2-1.6h0a11.25,11.25,0,0,0-2.74,1.6c.29-.54.72-1.6,1-1.74.86-.93,2.16-.53,3.31-.4h.43a1.15,1.15,0,0,0-.43.14l-.14.13a.5.5,0,0,0,.28.13c.72.27,1.73-.13,2.59.4a3.11,3.11,0,0,1,1.59,1.87c-1-.67-2.88-1.33-2.59-1.33C701.61,161.18,701.9,161.44,702.47,161.71Z" transform="translate(-44.75 -115.66)"/><path class="cls-12" d="M696.29,158.51c-.72.67-1,.8-1.44,1.2a3.46,3.46,0,0,1,1-2.27h0a3.34,3.34,0,0,0-1.58,2.54,4.48,4.48,0,0,1-.29-2.27c.72-1.33,2-1.33,3.17-1.47.29,0,.43,0,.43-.13l-.29.27C696.57,157.18,696.72,158.11,696.29,158.51Z" transform="translate(-44.75 -115.66)"/><path class="cls-12" d="M663.77,189.84a.65.65,0,0,0-.43.13.65.65,0,0,1,.43-.13c.58-.53.86-1.6,2-1.73a2.67,2.67,0,0,1,2.44.53,9.23,9.23,0,0,0-2.73.53,7.71,7.71,0,0,1,3-.13,4.9,4.9,0,0,0-1.73.8C665.79,190.24,664.92,189.71,663.77,189.84Z" transform="translate(-44.75 -115.66)"/><path class="cls-12" d="M705.64,158.24a.45.45,0,0,0,.28-.13c.72-.4.58-1.33,1-1.87a11.18,11.18,0,0,1,1.58-1.2c0,.94-1,2-1.15,2.27h0a4.21,4.21,0,0,0,1.73-2.53,5.41,5.41,0,0,1,0,2.13c-.58,1.33-2,1.33-3.17,1.33Z" transform="translate(-44.75 -115.66)"/><path class="cls-12" d="M705.64,167.71a3.53,3.53,0,0,1,2-1.2c1.58-.13,2.16,1.07,2.73,2,.15.13.15.27.29.27a.49.49,0,0,0-.29-.14c-.71-.26-1.58.27-2.3,0a13.94,13.94,0,0,1-1.87-.66,3.53,3.53,0,0,1,2.59-.14h0c-.14,0-.29-.13-.86-.26A3.46,3.46,0,0,0,705.64,167.71Z" transform="translate(-44.75 -115.66)"/><path class="cls-12" d="M672.26,171.71a5.67,5.67,0,0,1-1,1.6,3.8,3.8,0,0,1,.29-2.4h0a3.69,3.69,0,0,0-.72,2.8,10,10,0,0,1-.86-2c.14-1.34,1.44-1.87,2.44-2.27a.49.49,0,0,1,.29-.13l-.29.27C672.12,170.24,672.55,171,672.26,171.71Z" transform="translate(-44.75 -115.66)"/><path class="cls-12" d="M667.8,176.24a15.42,15.42,0,0,0-3.88,0c.71-.4,2-1.07,2.3-1.2,1.58-.27,2.44.67,3.74,1.33a1.15,1.15,0,0,0,.43.14h-.58c-1,.13-1.72.93-2.73.93a5.69,5.69,0,0,1-2.59-.8C665.79,176.24,668.09,176.37,667.8,176.24Z" transform="translate(-44.75 -115.66)"/><path class="cls-12" d="M706.5,175a4.42,4.42,0,0,1,1.87-.8,2.28,2.28,0,0,1,2,2.13.44.44,0,0,0,.15.27l-.29-.27c-.57-.4-1.29-.13-1.87-.4a6,6,0,0,1-1.44-.8,3.18,3.18,0,0,1,2.3.14h0C709,175.44,708.08,174.77,706.5,175Z" transform="translate(-44.75 -115.66)"/><path class="cls-12" d="M666.79,195.57c.15-1.46,1.59-1.86,2.74-2.26.28-.14.28-.14.43-.14l-.29.27c-.43.67,0,1.6-.43,2.13a5.37,5.37,0,0,1-1.15,1.6c-.43-.8.29-2.26.43-2.53h0a3.9,3.9,0,0,0-.86,2.93A3.54,3.54,0,0,1,666.79,195.57Z" transform="translate(-44.75 -115.66)"/><path class="cls-12" d="M682.33,197.57c-.58.94-1.44.8-2.3.8h-.29a.49.49,0,0,0,.29-.13c.43-.27.43-.93.86-1.2.58-.4.72-.53,1.15-.8a2.49,2.49,0,0,1-.86,1.47h0a2.85,2.85,0,0,0,1.29-1.6A4.3,4.3,0,0,1,682.33,197.57Z" transform="translate(-44.75 -115.66)"/><path class="cls-12" d="M701.18,173.44c-.29.27-.15.27,0,0,0-.53-.15-1.33.43-1.73a2.3,2.3,0,0,1,1.73-.4,5.45,5.45,0,0,0-1.59,1.2,3.51,3.51,0,0,1,1.87-.94c-.43.27-.72.94-.86,1.07A4.31,4.31,0,0,0,701.18,173.44Z" transform="translate(-44.75 -115.66)"/><path class="cls-12" d="M699.16,167.71h-.43a1.16,1.16,0,0,0,.43-.13c.87-.27,1.59-1.07,2.74-.94a3.27,3.27,0,0,1,2,1.2c-1.15-.13-3-.4-2.88-.4a19.66,19.66,0,0,1,3.17.94,5.53,5.53,0,0,0-2,.4C700.89,168.78,700.46,167.84,699.16,167.71Z" transform="translate(-44.75 -115.66)"/><path class="cls-12" d="M704.49,177.31c-.29.26-.87.93-.87.93-.57.4-1.29.27-2,.53-.43.14-.29.27,0-.13s.29-1.2,1-1.47a1.72,1.72,0,0,1,1.58-.13,11.44,11.44,0,0,0-1.73.93A11.36,11.36,0,0,1,704.49,177.31Z" transform="translate(-44.75 -115.66)"/><path class="cls-12" d="M715.85,177.31a11.07,11.07,0,0,0-1.29-.27c-.72-.27-.87-.93-1.59-1.33-.43-.27-.43-.14,0-.14s1.3-.26,1.87.14a3.28,3.28,0,0,1,1,1.2,15.35,15.35,0,0,0-1.72-.94A18,18,0,0,1,715.85,177.31Z" transform="translate(-44.75 -115.66)"/><path class="cls-12" d="M699,163.71c1.29-.8,2.44,0,3.45.67a.49.49,0,0,0,.29.13h-.43c-.86,0-1.3.8-2,.93a6.14,6.14,0,0,1-2.15.14,6.77,6.77,0,0,1,2.44-1.2h0a5.61,5.61,0,0,0-3,1.06A11.22,11.22,0,0,1,699,163.71Z" transform="translate(-44.75 -115.66)"/><path class="cls-12" d="M672.84,177.17c.71-.4.57-1.2,1-1.6s.87-.66,1.15-1.2a2.25,2.25,0,0,1-.28,1.6,5.1,5.1,0,0,1-.58.67,3,3,0,0,0,.72-.53,2.6,2.6,0,0,0,.57-2,3.16,3.16,0,0,1,.58,2.13c-.58,1.47-2.16,1.33-3.16,1.33h-.44C672.55,177.31,672.55,177.31,672.84,177.17Z" transform="translate(-44.75 -115.66)"/><path class="cls-12" d="M688.66,181.71a.59.59,0,0,0,.14-.4c.29-.67-.14-1.47.58-2.14a2.84,2.84,0,0,1,2-.8c-.72.67-1.72,1.87-1.72,1.74a15.12,15.12,0,0,1,2.16-1.6,6.12,6.12,0,0,0-.72,1.46c-.44.8-1.44.8-2.31,1.47A.4.4,0,0,0,688.66,181.71Z" transform="translate(-44.75 -115.66)"/><path class="cls-12" d="M690.24,185.17l.29-.26c.43-.54.43-1.34,1.3-1.74a2,2,0,0,1,2,.14,7.09,7.09,0,0,0-2.16.8,4.69,4.69,0,0,1,2.45-.4c-.58.13-1.15.8-1.3.8-.57.4-1.29.13-2.3.53A.47.47,0,0,1,690.24,185.17Z" transform="translate(-44.75 -115.66)"/><path class="cls-12" d="M686.21,167.71a.5.5,0,0,0-.28.13c0-.13,0-.13.28-.13.44-.53.44-1.33,1.16-1.6a2.32,2.32,0,0,1,1.87-.13,6.5,6.5,0,0,0-2,1.06c.15,0,.86-.4,2.45-.8a8.49,8.49,0,0,0-1.15,1.07C687.94,167.71,687.08,167.44,686.21,167.71Z" transform="translate(-44.75 -115.66)"/><path class="cls-12" d="M680.75,172.37s-.72-.4-1.87-1.2a6.1,6.1,0,0,0,1.44.14c.72.26.86.93,1.58,1.46.43.27.43.14,0,.14s-1.3.26-1.87-.14c-.86-.53-.86-.8-1-1.2A5.72,5.72,0,0,0,680.75,172.37Z" transform="translate(-44.75 -115.66)"/><path class="cls-12" d="M682.47,180.91a12.62,12.62,0,0,1-1.58,1.46,10.64,10.64,0,0,0,.43-1.33c.43-.67,1.15-.67,1.87-1.2.29-.27.29-.27.15,0-.15.53,0,1.2-.43,1.73a2.65,2.65,0,0,1-1.44.8A14.29,14.29,0,0,1,682.47,180.91Z" transform="translate(-44.75 -115.66)"/><path class="cls-12" d="M688.66,171.71c-.14-1.07.72-1.47,1.44-2,.43-.27.29-.27.14.13s.29,1.07.15,1.6a4.26,4.26,0,0,1-.58,1.33,2.65,2.65,0,0,1,0-1.86h0a4.67,4.67,0,0,0-.29,2.26A5.4,5.4,0,0,1,688.66,171.71Z" transform="translate(-44.75 -115.66)"/><path class="cls-12" d="M683.63,167.18c-.29.53.14,1.06,0,1.6a7.31,7.31,0,0,1-.58,1.33,2.68,2.68,0,0,1,0-1.87h0a3.53,3.53,0,0,0-.29,2.27,15.06,15.06,0,0,1-.86-1.47c0-.93.86-1.46,1.73-1.86C683.91,166.91,683.77,166.91,683.63,167.18Z" transform="translate(-44.75 -115.66)"/><path class="cls-12" d="M690.24,190.11c0-.67.29-2,.58-2.14,1-1.2,2.44-.66,3.6-.53h.43a1.16,1.16,0,0,0-.43.13c-.72.27-1,1.2-1.59,1.6a9.22,9.22,0,0,1-1.87.8c.15-.93,1.59-1.73,1.73-1.86h0A3.32,3.32,0,0,0,690.24,190.11Z" transform="translate(-44.75 -115.66)"/><path class="cls-12" d="M683.77,178a3.51,3.51,0,0,1,1.29-.53c1,0,1.3.8,1.59,1.47.14.26.14.26-.15,0s-1,0-1.29-.14a9.56,9.56,0,0,0-1.15-.53,2.41,2.41,0,0,1,1.72.13h0A2.28,2.28,0,0,0,683.77,178Z" transform="translate(-44.75 -115.66)"/><path class="cls-12" d="M685.06,182.91a4.41,4.41,0,0,1,1.44-1.34c1.44-.4,2.16.54,2.74,1.34a.39.39,0,0,1,.14.26.51.51,0,0,0-.29-.13c-.72-.27-1.29.4-1.87.27a5.78,5.78,0,0,1-1.72-.27,4.12,4.12,0,0,1,2.3-.53h0A3.12,3.12,0,0,0,685.06,182.91Z" transform="translate(-44.75 -115.66)"/><path class="cls-12" d="M688.8,174.64a3.36,3.36,0,0,0-.71,1.07c-.44.53-1.16.4-1.88.93-.28.27-.28.27-.14-.13s0-1.2.58-1.74a2.33,2.33,0,0,1,1.72-.4,12.45,12.45,0,0,0-1.58,1.2C686.79,175.71,687.51,175.17,688.8,174.64Z" transform="translate(-44.75 -115.66)"/><path class="cls-12" d="M674.42,179.71a13.14,13.14,0,0,1,1.44-.94,3.4,3.4,0,0,1-1.3,1.74,4.8,4.8,0,0,0,1.73-1.87,5.59,5.59,0,0,1-.29,1.73c-.58.94-1.58.94-2.59,1.07-.14,0-.29,0-.29.13a.55.55,0,0,1,.29-.13C674,180.91,674,180.11,674.42,179.71Z" transform="translate(-44.75 -115.66)"/><path class="cls-12" d="M692.55,167.44a1.87,1.87,0,0,1,2.44-1.2c.43.14.43,0,0,.14s-.43.93-.57,1.33a10.77,10.77,0,0,1-1,1.2,2.33,2.33,0,0,1,.43-1.87h0a2.84,2.84,0,0,0-.86,2.14A13.06,13.06,0,0,1,692.55,167.44Z" transform="translate(-44.75 -115.66)"/><path class="cls-12" d="M689.52,163.31a1.87,1.87,0,0,1,2.45-1.2c.43.13.43,0,0,.13-.58.27-.43.94-.58,1.34a9.77,9.77,0,0,1-1,1.2,2.28,2.28,0,0,1,.43-1.87h0A2.77,2.77,0,0,0,690,165,2.81,2.81,0,0,1,689.52,163.31Z" transform="translate(-44.75 -115.66)"/><path class="cls-12" d="M689.67,161.58c.29-.4.43-1.2,1.29-1.47a2.23,2.23,0,0,1,1.87.4,3.85,3.85,0,0,0-2,.4,3.55,3.55,0,0,1,2.3,0,13,13,0,0,0-1.29.53,14.91,14.91,0,0,0-2.16.14c-.15.13-.15.26-.29.26Z" transform="translate(-44.75 -115.66)"/><path class="cls-12" d="M691.83,165.84a.45.45,0,0,0,.14-.26c.29-.54,0-1.34.58-2a2.52,2.52,0,0,1,1.87-.8c-.72.66-1.59,1.73-1.44,1.73a20.33,20.33,0,0,1,2-1.6,4.6,4.6,0,0,0-.57,1.47c-.44.66-1.3.8-2.16,1.33C692,165.71,692,165.84,691.83,165.84Z" transform="translate(-44.75 -115.66)"/><path class="cls-12" d="M685.21,159.44a4,4,0,0,1-1-1.6,7.16,7.16,0,0,1,2.16,1.34,5.08,5.08,0,0,0-2.3-1.87,6.87,6.87,0,0,1,2,.27c1.15.66,1,1.73,1.3,2.66,0,.14.14.27.14.4l-.29-.26C686.65,160,685.64,160,685.21,159.44Z" transform="translate(-44.75 -115.66)"/><path class="cls-12" d="M683.77,173.84c.29-.4.29-.93.86-1.2a1.77,1.77,0,0,1,1.44,0,11.53,11.53,0,0,0-1.44.67,4.13,4.13,0,0,1,1.73-.54c-.29.14-.72.67-.86.67-.44.4-1,.13-1.73.4Z" transform="translate(-44.75 -115.66)"/><path class="cls-12" d="M692,156.38h0a3.68,3.68,0,0,0-.43-2.8A3.46,3.46,0,0,1,693,155c.43,1.34-.58,2-1.3,2.8-.14.14-.14.27-.29.27a1,1,0,0,1,.15-.4c.14-.67-.58-1.33-.58-2a15.08,15.08,0,0,1,.29-1.73A4,4,0,0,1,692,156.38Z" transform="translate(-44.75 -115.66)"/><path class="cls-12" d="M678.59,177.57a5.35,5.35,0,0,0,1.29-.93c.58-.4,1.44-.13,2.31-.67l.28-.26a.45.45,0,0,0-.14.26c-.29.54-.29,1.47-1.15,2a2.88,2.88,0,0,1-2.16,0,4.89,4.89,0,0,0,2.16-.93A8.15,8.15,0,0,1,678.59,177.57Z" transform="translate(-44.75 -115.66)"/><path class="cls-12" d="M678,185.84a.4.4,0,0,0-.14.27.4.4,0,0,1,.14-.27c0-.67-.57-1.2-.57-1.73a12.89,12.89,0,0,1,.43-1.6,3.9,3.9,0,0,1,.29,2h0a3.66,3.66,0,0,0,0-2.4c.29.4,1,1.2,1,1.46C679.45,184.64,678.59,185.31,678,185.84Z" transform="translate(-44.75 -115.66)"/><path class="cls-12" d="M717.58,187.71a6.67,6.67,0,0,0-1.44-.67c-.72-.53-.43-1.33-.58-2.27,0-.13,0-.26-.14-.26a.45.45,0,0,1,.14.26c.44.4,1.15.4,1.59,1.07a2.64,2.64,0,0,1,.43,1.6c-.58-.53-1.44-1.6-1.44-1.47C716.28,185.84,716.72,186.51,717.58,187.71Z" transform="translate(-44.75 -115.66)"/><path class="cls-12" d="M693.26,179.44a2.34,2.34,0,0,1,.15-1.47,2,2,0,0,1,2.44-.4c.44.14.29,0,0,.14-.57.13-.57.8-1,.93-.58.4-.72.4-1.15.67a1.85,1.85,0,0,1,1-1.34h0A2.07,2.07,0,0,0,693.26,179.44Z" transform="translate(-44.75 -115.66)"/><path class="cls-12" d="M726.93,206.64a6,6,0,0,1-2.59.26c-1.73-.66-1.58-2.26-1.29-3.33v-.4a1,1,0,0,0,.14.4c.29.67,1.44.67,1.87,1.07.72.66.86.93,1.44,1.46a2.5,2.5,0,0,1-1.87-.53c-.58-.27-.87-.67-.72-.53S724.63,206.5,726.93,206.64Z" transform="translate(-44.75 -115.66)"/><path class="cls-12" d="M710,191.44a14.46,14.46,0,0,0-1.72-.4c-.87-.27-1.15-1.07-2-1.87l-.29-.26a.55.55,0,0,0,.29.13c.72.13,1.44-.27,2.3.13,1,.67,1.16,1.07,1.3,1.6a6,6,0,0,0-2.16-1.06A5.9,5.9,0,0,1,710,191.44Z" transform="translate(-44.75 -115.66)"/><path class="cls-12" d="M732.68,180c-.57-.26-1.43-.26-1.72-.4-.87-.26-1.15-1.06-2-1.86l-.28-.27a.5.5,0,0,0,.28.13c.72.14,1.44-.26,2.31.14,1,.66,1.15,1.06,1.29,1.6a6.09,6.09,0,0,0-2.16-1.07A8,8,0,0,1,732.68,180Z" transform="translate(-44.75 -115.66)"/><path class="cls-12" d="M713.41,182.77c-.44.14-1,.54-1.15.54-.72.13-1.16-.27-1.88-.54-.43-.13-.28,0,0-.13.44-.13.87-.67,1.44-.67a2,2,0,0,1,1.3.4,12.31,12.31,0,0,1-1.73.14C711.39,182.77,712.26,182.77,713.41,182.77Z" transform="translate(-44.75 -115.66)"/><path class="cls-12" d="M703.77,182.64c-.15.4-.43,1.07-.43,1.07-.44.53-1.16.53-1.88.8-.28.13-.28.26,0-.14s.15-.93.72-1.33a3.38,3.38,0,0,1,1.3-.53c-.43.53-1.3,1.2-1.15,1.2C702.33,183.71,702.9,183.31,703.77,182.64Z" transform="translate(-44.75 -115.66)"/><path class="cls-12" d="M695.42,171.31c-.43-1.47.72-2.4,1.73-3.07l.29-.26a.54.54,0,0,0-.15.4c-.28.8.43,1.46.43,2.13a6.92,6.92,0,0,1-.43,2,4,4,0,0,1-.72-2.53h0A4.32,4.32,0,0,0,697,173C696.43,172.64,695.42,171.71,695.42,171.31Z" transform="translate(-44.75 -115.66)"/><path class="cls-12" d="M692.11,173a2.82,2.82,0,0,1,2-1.07,8.35,8.35,0,0,0-1.44,1.87,10.38,10.38,0,0,1,2-1.87,3.12,3.12,0,0,0-.57,1.47c-.29.8-1.3.93-2.16,1.73-.14.14-.14.27-.29.27a.54.54,0,0,0,.15-.4C692,174.64,691.54,173.84,692.11,173Z" transform="translate(-44.75 -115.66)"/><path class="cls-12" d="M717.72,197.44c-.43-.4-1.15-.8-1.29-.93-.58-.54-.43-1.34-.87-2.14a.39.39,0,0,1-.14-.26l.29.26c.57.4,1.44.27,1.87.94A2.3,2.3,0,0,1,718,197c-.43-.67-1.44-1.73-1.29-1.73C716.57,195.44,717.15,196.11,717.72,197.44Z" transform="translate(-44.75 -115.66)"/><path class="cls-12" d="M676,204.24c0,.13,0,1.06.14,2.53-.28-.53-.86-1.33-.86-1.47-.29-.93.29-1.6.43-2.53v-.4a.92.92,0,0,0,.15.4c.28.67,1.15.93,1.15,1.73a3.09,3.09,0,0,1-.43,1.87C676.29,205.57,676,204.1,676,204.24Z" transform="translate(-44.75 -115.66)"/><path class="cls-12" d="M717.58,206.1a17.14,17.14,0,0,1-1.3,1.47,4.79,4.79,0,0,1,.72-2.27,4.35,4.35,0,0,0-1.29,2.67,5.43,5.43,0,0,1-.29-2c.29-1.33,1.58-1.47,2.59-1.87a.47.47,0,0,1,.29-.13l-.29.27C717.58,204.77,717.87,205.57,717.58,206.1Z" transform="translate(-44.75 -115.66)"/><path class="cls-12" d="M720.6,202.11c-.14-.54-.72-1.07-.72-1.2-.29-.54,0-1.2-.43-2a.41.41,0,0,1-.15-.27l.29.27c.58.4,1.44.4,1.73,1.2a1.56,1.56,0,0,1-.29,1.73,3.66,3.66,0,0,0-.72-1.87A6.85,6.85,0,0,1,720.6,202.11Z" transform="translate(-44.75 -115.66)"/><path class="cls-12" d="M724.63,200.77c-.29-.4-.87-.93-.87-1.06-.43-.54,0-1.2-.14-2,0-.14,0-.27-.14-.27a.42.42,0,0,0,.14.27c.43.4,1.15.53,1.3,1.2a1.55,1.55,0,0,1-.15,1.6,11.27,11.27,0,0,1-.72-1.74A12,12,0,0,1,724.63,200.77Z" transform="translate(-44.75 -115.66)"/><path class="cls-12" d="M725.06,195.17a3.46,3.46,0,0,1,1.73.14c1,.8.57,1.73.28,2.4-.14.4,0,.4-.14,0s-.72-.67-1-1.07a7.62,7.62,0,0,0-.72-1.07c.72,0,1.3.8,1.44,1.07h0A1.78,1.78,0,0,0,725.06,195.17Z" transform="translate(-44.75 -115.66)"/><path class="cls-12" d="M711.25,199.84a9,9,0,0,0-1.3-.8c-.57-.4-.57-1.2-1-2-.29-.4-.29-.27.14-.13s1.44.13,1.87.66a2.18,2.18,0,0,1,.43,1.74,11.14,11.14,0,0,0-1.44-1.6A13.45,13.45,0,0,1,711.25,199.84Z" transform="translate(-44.75 -115.66)"/><path class="cls-12" d="M670.82,204.37a2.82,2.82,0,0,1-1.44,1.6,10.34,10.34,0,0,0,.58-2.27s-.43,1.07-1.15,2.54c0-.54-.15-1.6-.15-1.74.15-.93,1-1.33,1.59-2.26a.4.4,0,0,0,.14-.27v.4C670.53,202.9,671.11,203.57,670.82,204.37Z" transform="translate(-44.75 -115.66)"/><path class="cls-12" d="M672,199c-.43-1.07.29-2,.87-2.8.28-.4.14-.4.14,0,0,.67.72,1.07.72,1.87a6.54,6.54,0,0,1-.29,1.86,7.28,7.28,0,0,1-.72-2.26h0a6.26,6.26,0,0,0,.43,2.66A9.83,9.83,0,0,1,672,199Z" transform="translate(-44.75 -115.66)"/><path class="cls-12" d="M666.36,202.37a2.6,2.6,0,0,1-2.3.4,8.26,8.26,0,0,0,2.16-1.6,27.67,27.67,0,0,1-2.74,1.34,16.2,16.2,0,0,0,1.15-1.47c.72-.67,1.73-.53,2.88-.93a.54.54,0,0,1,.43-.14l-.28.27C667.08,200.77,667.22,201.84,666.36,202.37Z" transform="translate(-44.75 -115.66)"/><path class="cls-12" d="M689.09,197.71a2.77,2.77,0,0,1,.15-1.6,2,2,0,0,1,2.59-.4l.14.13h-.14c-.58,0-.58.8-1,.93a13.75,13.75,0,0,1-1.3.67c0-.67.87-1.33,1-1.47h0A3.45,3.45,0,0,0,689.09,197.71Z" transform="translate(-44.75 -115.66)"/><path class="cls-12" d="M696.14,183a3,3,0,0,1,.43-1.33c.58-.8,1.44-.67,2.31-.54.43,0,.28-.13,0,.14-.44.26-.44.93-.87,1.2a11.4,11.4,0,0,1-1.29.66,2.33,2.33,0,0,1,1.15-1.33h0C697.72,181.57,697,182,696.14,183Z" transform="translate(-44.75 -115.66)"/><path class="cls-12" d="M673.84,187.44a6.11,6.11,0,0,0-.57,1.47c-.43.8-1.44.8-2.31,1.33-.14.13-.28.13-.28.27a.49.49,0,0,0,.14-.27c.29-.67,0-1.47.58-2a3.22,3.22,0,0,1,1.72-.8c-.57.67-1.58,1.87-1.44,1.73A26.47,26.47,0,0,0,673.84,187.44Z" transform="translate(-44.75 -115.66)"/><path class="cls-12" d="M681,185.84c.28-1.2,1.43-1.33,2.44-1.47.15,0,.29,0,.29-.13a.51.51,0,0,1-.29.13c-.43.4-.29,1.2-.57,1.6a5,5,0,0,1-1.16,1.2,3.49,3.49,0,0,1,.58-2h0a3.48,3.48,0,0,0-1,2.27A9.47,9.47,0,0,1,681,185.84Z" transform="translate(-44.75 -115.66)"/><path class="cls-12" d="M683.05,193.71c.29-.94,1.15-1.07,1.87-1.2.43,0,.29-.14,0,.13s-.14.93-.43,1.33a7.34,7.34,0,0,1-.86.94c-.15-.54.43-1.47.43-1.6h0a2.82,2.82,0,0,0-.87,1.86C683.19,194.64,683.05,193.84,683.05,193.71Z" transform="translate(-44.75 -115.66)"/><path class="cls-12" d="M675,188.37a.74.74,0,0,0-.43-.26,1.64,1.64,0,0,0,.58.13c1,.27,2.15-.13,3.16.67a3.93,3.93,0,0,1,1.3,2.4c-1-.8-2.74-2.14-2.59-2a27.18,27.18,0,0,1,2.44,2.66,18.54,18.54,0,0,0-2.3-.8,1.71,1.71,0,0,1-.72-.66.45.45,0,0,0-.14.26c-.15.67.43,1.2.29,1.87a12.66,12.66,0,0,1-.44,1.6c-.57-.53-.43-1.87-.43-2.13h0a3.35,3.35,0,0,0,.29,2.53c-.43-.27-1.29-1.2-1.29-1.47-.29-1.2.71-1.86,1.43-2.53l.29-.27C675.86,189.84,675.71,189.17,675,188.37Z" transform="translate(-44.75 -115.66)"/><path class="cls-12" d="M681,190.77a2.22,2.22,0,0,1,1.58-.93,7.69,7.69,0,0,0-1.15,1.73,9.92,9.92,0,0,1,1.72-1.73,3.93,3.93,0,0,0-.43,1.47c-.29.66-1.15.8-1.72,1.6-.29.4-.15.4-.15,0C681,192.11,680.6,191.31,681,190.77Z" transform="translate(-44.75 -115.66)"/><path class="cls-12" d="M714.84,163.44a6,6,0,0,1,1.73-.66c1.3.13,1.58,1.2,1.73,2,0,.13,0,.26.14.26a.39.39,0,0,0-.14-.26c-.43-.4-1.15-.14-1.58-.4-.72-.27-.87-.54-1.3-.67a4.28,4.28,0,0,1,2,.13h0A3.8,3.8,0,0,0,714.84,163.44Z" transform="translate(-44.75 -115.66)"/><path class="cls-12" d="M726.5,179c-.72,0-1.87.27-2.16.27-1.15,0-1.73-.94-3-1.34a1.21,1.21,0,0,0-.43-.13h.43c.86-.13,1.58-.93,2.73-.67a3.3,3.3,0,0,1,2,1.34,11.62,11.62,0,0,0-2.88-.4A10.92,10.92,0,0,1,726.5,179Z" transform="translate(-44.75 -115.66)"/><path class="cls-12" d="M723.05,168.91a21.25,21.25,0,0,1-2.31-1.47,9.87,9.87,0,0,0,1.87.14c1,.26,1.15,1.2,2,1.86l.14.14a5.55,5.55,0,0,1,.58-1.34c.57-.66.86-.8,1.29-1.33.29.8-.57,2-.86,2.27h0c.14,0,.29-.27.57-.54a2.62,2.62,0,0,0,.58-2,3.13,3.13,0,0,1,.43,2.14c-.57,1.46-2,1.33-3,1.46-.29,0-.29,0-.43.14l.29-.27a2.08,2.08,0,0,0,.43-.53.45.45,0,0,1-.29-.14c-.72-.13-1.58.27-2.3-.13a2.38,2.38,0,0,1-1.3-1.47C721.61,168.24,723.19,168.91,723.05,168.91Z" transform="translate(-44.75 -115.66)"/><path class="cls-12" d="M715.85,183a3.44,3.44,0,0,1,1.73-1.2,2.32,2.32,0,0,1,2.44,2,.48.48,0,0,0,.15.27l-.29-.27c-.58-.4-1.44,0-1.87-.13-.86-.27-1-.4-1.58-.54a2.9,2.9,0,0,1,2.3-.26h0A4.14,4.14,0,0,0,715.85,183Z" transform="translate(-44.75 -115.66)"/><path class="cls-12" d="M723.48,173.71a3.36,3.36,0,0,1,1.72-1.2c1.59-.14,2.16,1.06,2.45,2a.45.45,0,0,0,.14.26l-.28-.26c-.58-.4-1.44,0-1.88-.14-.86-.26-1-.4-1.58-.53a3,3,0,0,1,2.3-.27h0A4.2,4.2,0,0,0,723.48,173.71Z" transform="translate(-44.75 -115.66)"/><path class="cls-12" d="M717.72,171.57c-.57-.4-1.29-.13-1.72-.4-.72-.4-.87-.53-1.3-.8a2.87,2.87,0,0,1,2,.4h0a3.08,3.08,0,0,0-2.45-.66,6.1,6.1,0,0,1,1.73-.53c1.43.13,1.58,1.19,1.72,2,.15.14.29.14.29.27C718,171.71,717.87,171.71,717.72,171.57Z" transform="translate(-44.75 -115.66)"/><path class="cls-12" d="M707.51,161.18c1.58,0,1.87,1.06,2.59,1.73l.28.27A.63.63,0,0,0,710,163c-.72-.26-1.58.14-2.15,0-.87-.26-1-.4-1.59-.53.58-.53,2-.27,2.3-.13h0c-.14,0-.28-.14-.71-.27a3.34,3.34,0,0,0-2.16.27A4.33,4.33,0,0,1,707.51,161.18Z" transform="translate(-44.75 -115.66)"/><path class="cls-12" d="M731.82,201.84a5,5,0,0,1-1.44,1.46c-1.44.4-2.16-.53-2.87-1.33l-.29-.26a.51.51,0,0,0,.29.13c.71.13,1.29-.4,2-.4s1.15.13,1.73.13c-.58.67-2,.67-2.31.67h0C729.23,202.51,730.38,202.77,731.82,201.84Z" transform="translate(-44.75 -115.66)"/><path class="cls-12" d="M716.14,157.44a15.84,15.84,0,0,1,1.58-1.46,3.87,3.87,0,0,1-1,2.4h0a3.39,3.39,0,0,0,1.59-2.8,5,5,0,0,1,.29,2.4,2.59,2.59,0,0,1-3.46,1.2.45.45,0,0,0-.29-.14h.29C715.85,158.91,715.71,157.84,716.14,157.44Z" transform="translate(-44.75 -115.66)"/><path class="cls-12" d="M712.69,171.71c-.58.13-1.87.53-2,.53-1.29,0-1.87-.93-2.87-1.47a.58.58,0,0,0-.44-.13h.44c.86,0,1.58-.66,2.44-.4a4.54,4.54,0,0,1,2,1.07c-1.16.13-3-.27-2.74-.14C709.67,171,710.67,171.44,712.69,171.71Z" transform="translate(-44.75 -115.66)"/><path class="cls-12" d="M710.82,154c0-.14-1.15-1.07-2.74-2.8a19.1,19.1,0,0,0,2.45.8c1.29.66,1.15,1.86,2.16,3.06.14.27.28.27.43.4l-.58-.26c-1-.27-2.3,0-3.31-.8a3.31,3.31,0,0,1-1.29-2.54C709.09,152.64,711,154.11,710.82,154Z" transform="translate(-44.75 -115.66)"/><path class="cls-12" d="M711,159.84c.14,0,1,.54,2.59,1.07-.58,0-1.73.13-1.87.13-1-.13-1.3-.93-2.45-1.33-.28,0-.28-.13-.43-.13h.43c.72-.14,1.59-.67,2.45-.4,1.15.4,1.15.8,1.58,1.2C712.4,160.24,710.82,159.71,711,159.84Z" transform="translate(-44.75 -115.66)"/><path class="cls-12" d="M713.41,166.11c-.58,0-1.59.13-1.73.13-1-.13-1.44-.93-2.16-1.6-.29-.4-.43-.26.15-.13s1.29-.27,2,0a2.13,2.13,0,0,1,1.44,1.2c-.86-.27-2.45-.53-2.3-.53A11.19,11.19,0,0,1,713.41,166.11Z" transform="translate(-44.75 -115.66)"/><path class="cls-12" d="M731.68,172.64a16.27,16.27,0,0,1,2.16-1.07c-.44,1.2-2.31,2.4-2,2.27a5.72,5.72,0,0,0,2.73-2.4,8.81,8.81,0,0,1-.57,2.4c-1,1.33-2.45.93-3.89,1.07h-.43a1.77,1.77,0,0,1,.43-.27C730.81,174.24,730.81,173.17,731.68,172.64Z" transform="translate(-44.75 -115.66)"/><path class="cls-12" d="M731.1,186.37h1.73c-.43.67-1.87.8-2.16.8h0a3.39,3.39,0,0,0,2.73-.8c-.14.54-1,1.47-1.29,1.47-1.3.53-2.16-.27-2.88-.93-.14-.14-.29-.14-.29-.27a.47.47,0,0,1,.29.13C730,187,730.38,186.51,731.1,186.37Z" transform="translate(-44.75 -115.66)"/><path class="cls-12" d="M728.66,198.91c0-.54-.29-1.47-.29-1.74.14-1.06,1.15-1.33,1.87-2l.29-.26a.44.44,0,0,0-.15.26c-.29.67.29,1.34,0,2a2.81,2.81,0,0,1-1.29,1.47c.14-.93.72-2.4.57-2.13A10.84,10.84,0,0,0,728.66,198.91Z" transform="translate(-44.75 -115.66)"/><path class="cls-12" d="M723.62,182.77a3.93,3.93,0,0,1-2-.66c-1.15-.94-.72-2.14-.29-3.07,0-.13.14-.27.14-.4a1,1,0,0,0,.15.4c.28.67,1.15.8,1.44,1.47a13,13,0,0,1,.71,1.73c-.86-.27-1.72-1.47-1.87-1.6h0A3.54,3.54,0,0,0,723.62,182.77Z" transform="translate(-44.75 -115.66)"/><path class="cls-12" d="M722.9,170.51a4.71,4.71,0,0,1-.29,1.73c-.72,1.07-1.87.8-2.87.67h-.29a.47.47,0,0,0,.29-.14c.57-.26.57-1.06,1.15-1.33a9.64,9.64,0,0,1,1.44-.8,3.9,3.9,0,0,1-1.3,1.73h0A3.38,3.38,0,0,0,722.9,170.51Z" transform="translate(-44.75 -115.66)"/><path class="cls-12" d="M728.37,184.24c-.43-.8-1.15-2-1-1.87a14.75,14.75,0,0,0,.86,2.27c-.28-.4-1.15-.93-1.15-1.07-.57-.66-.14-1.46-.28-2.4v-.26a.45.45,0,0,1,.14.26c.43.54,1.29.67,1.58,1.34A3.11,3.11,0,0,1,728.37,184.24Z" transform="translate(-44.75 -115.66)"/><path class="cls-12" d="M720,174.77a2.41,2.41,0,0,1,1.73,2.27c0,.13,0,.27.14.27a.49.49,0,0,1-.14-.27c-.43-.4-1.29-.27-1.87-.53a6.18,6.18,0,0,1-1.44-1.07,6.21,6.21,0,0,1,2.3.53h0a5.35,5.35,0,0,0-2.59-1.06C718.59,174.91,719.74,174.77,720,174.77Z" transform="translate(-44.75 -115.66)"/><path class="cls-12" d="M725.63,186.91a3,3,0,0,1,1.88,1.46,19.87,19.87,0,0,0-2.74-.66,10.16,10.16,0,0,1,2.88,1.2,9.5,9.5,0,0,0-2,0c-1,0-1.43-.94-2.73-1.2h-.43a1.15,1.15,0,0,0,.43-.14C723.76,187.44,724.48,186.64,725.63,186.91Z" transform="translate(-44.75 -115.66)"/><path class="cls-12" d="M720.74,192.91a3,3,0,0,1,1.87,1.46,19.53,19.53,0,0,0-2.73-.66,10.29,10.29,0,0,1,2.88,1.2,9.5,9.5,0,0,0-2,0c-1,0-1.44-.94-2.73-1.2h-.43a1.15,1.15,0,0,0,.43-.14C718.87,193.44,719.74,192.77,720.74,192.91Z" transform="translate(-44.75 -115.66)"/><path class="cls-12" d="M725.49,192.11a4.86,4.86,0,0,1-1.87.13c-1-.13-1.29-.93-2.16-1.47a.47.47,0,0,0-.29-.13h.44c.72,0,1.44-.4,2.3-.13a3.05,3.05,0,0,1,1.44,1.06c-.87-.13-2.45-.66-2.3-.53A5,5,0,0,0,725.49,192.11Z" transform="translate(-44.75 -115.66)"/><path class="cls-12" d="M731.39,192.64a2.7,2.7,0,0,1-1.3,1.2,2.1,2.1,0,0,1-2.44-1.07c-.29-.4-.29-.26.14-.13.58.13,1.15-.27,1.59-.27.71,0,1,.14,1.43.14-.43.53-1.72.53-1.87.53h0A2.57,2.57,0,0,0,731.39,192.64Z" transform="translate(-44.75 -115.66)"/><path class="cls-12" d="M680.89,182.11Z" transform="translate(-44.75 -115.66)"/><path class="cls-13" d="M674.42,201.17a66.42,66.42,0,0,0,7.33.14h1.88c.28,0,.28-.27.14-.4a47.74,47.74,0,0,1-6-2.54,23,23,0,0,1-6.48-4.93,15.11,15.11,0,0,1-3.16-7.07,15.11,15.11,0,0,0,5.61,8.94,55.27,55.27,0,0,0,7,3.86h.14a25.84,25.84,0,0,0,2.88,1.07c2.73,1.07,5.47,1.87,8.2,3.2h0a1,1,0,0,1-.29-.54,25.14,25.14,0,0,0-2.16-3.19c-2.44-3.2-8-3.2-10.5-6.94,1.73,2.4,5,3.07,7.77,4.27a11,11,0,0,1,4.75,3.87c.86,1.06,1.15,2.53,2.3,3.46s2.88,1.87,4,3.2l.14.13a.17.17,0,0,0,.29-.13c-.14-.67,0-1.6-.14-2a22.85,22.85,0,0,0-2.59-7.33,17.19,17.19,0,0,0-6.48-6.13,70,70,0,0,0-8.63-3.87c-2.88-1.2-6-2.8-7.63-5.6s-1.87-5.87-1.72-8.8a22.15,22.15,0,0,0,.72,6.13,9.43,9.43,0,0,0,3.74,5.07c3.6,2.53,8,3.47,12.08,5.33a32.58,32.58,0,0,1,3,1.6c-3-1.73-5-6.53-5.89-9.6-.15-.8-.44-1.46-.58-2.26v-.27c-.58-2.93-.86-5.87-1.15-8.8.86,4.67,1,9.47,3.16,13.73s6,7.34,9.21,10.94a16.74,16.74,0,0,1,2.88,4.53h0a4.8,4.8,0,0,1,.14-1.47h0a56.46,56.46,0,0,0-1.29-6.8,59,59,0,0,0-1.73-6.8,45.32,45.32,0,0,0-2.88-7.33c-1.29-2.27-2.73-4.67-5.32-5.47,1.73.4,3.17,1.87,4.32,3.34a19.94,19.94,0,0,1,2.73,4.8,56.46,56.46,0,0,1,3.6,10.4c.43,1.46.72,3.2,1.15,4.66-.43-1.2.57-3.73.72-4.66.29-1.6.57-3.2.72-4.94a15.36,15.36,0,0,0-2.88-10.8c-1.73-2.26-3.74-4.4-5.61-6.79a15.37,15.37,0,0,1-3.6-7.87c.58,4,3.46,7.2,6.19,10.26a53.56,53.56,0,0,1,5.47,6.67c.28.53.57.93.86,1.6h0a18,18,0,0,0-.14-2.67,26.2,26.2,0,0,0-2.74-9.73,29.66,29.66,0,0,0-6.33-8.13,26.3,26.3,0,0,1,8.2,11.6,35.6,35.6,0,0,1,1.73,11.73h0v.93h0v1.34a78.82,78.82,0,0,1-1.15,9.86,36.81,36.81,0,0,0-.58,5.6h0c0,.27.15.4.15.67a21.93,21.93,0,0,1,1-3.33c1-2.67,2.59-5.47,3.6-8.14a21.89,21.89,0,0,0,1-9.6c-.29-3.33-.72-6.66-.87-10a23.94,23.94,0,0,1,1.59-10c-1.73,4.4-1.44,9.2-.87,13.73.43,3.2,1,6.4,1.15,9.73v2.53a3.52,3.52,0,0,1-.14,1.2c0,.14.14.14.14,0a54.7,54.7,0,0,0,4.75-9.06A40.26,40.26,0,0,0,714,156a40.08,40.08,0,0,1,0,14.93,36.12,36.12,0,0,1-1.15,4.13v.13a62.59,62.59,0,0,1-4.46,10c-1.73,3.2-3.88,6.14-5.18,9.34a32.16,32.16,0,0,0-2,6.26,13.18,13.18,0,0,0-.43,3.33,4.72,4.72,0,0,0,.28,1.2c0,.14.29.14.43,0a19.54,19.54,0,0,1,3.17-6.13c1.29-1.73,3.16-3.33,4.6-5.2a27.6,27.6,0,0,0,3.74-6.26,58.08,58.08,0,0,0,3.31-9.2c1-3.07,2.31-6.27,4.75-8.67-3.16,3.47-4.17,8.13-5.32,12.4a35.63,35.63,0,0,1-3.46,8.93c-.43.67-.86,1.47-1.29,2.14,0,.13-.14.13-.14.26.43-.26.86-.66,1.29-.93,2.73-1.87,5.47-3.73,8.06-5.73a26.86,26.86,0,0,0,6.76-6.94,10.27,10.27,0,0,0,1.15-8.93,10.43,10.43,0,0,1,.29,6.27,15.63,15.63,0,0,1-3.31,5.73c-3,3.47-6.91,6.13-10.65,8.8a51,51,0,0,0-7.33,6,18.16,18.16,0,0,0-4.32,7.73,13.51,13.51,0,0,0-.58,2.27c0,.13.15.13.15,0a13,13,0,0,1,2.59-3.87,27.18,27.18,0,0,1,7.33-4.4c2.59-1.06,5.33-2.13,7.77-3.33,1-.53,2-1.07,2.88-1.6a14,14,0,0,0,3.74-3.2,8.44,8.44,0,0,0,1.58-7.33,9.48,9.48,0,0,1-.14,5.33,11.45,11.45,0,0,1-3.31,4.53c-3,2.4-6.76,4-10.36,5.6-.86.4-1.87.8-2.87,1.2-.15.14-.15.4.14.4H712c1.44.14,2.87.14,4.31.4a36.68,36.68,0,0,0,6.76.4,7.71,7.71,0,0,0,5.62-2.93,7,7,0,0,1-3.46,2.8,14.13,14.13,0,0,1-4.74.66c-4.32,0-9.07-1.73-13,1.07a10.79,10.79,0,0,0-4,6.13,27.62,27.62,0,0,0-.72,3.6v2.94c.43,5.33,1.44,6.66,4,11.2a34.14,34.14,0,0,1,1.87,2.93c0,.13,0,.27-.15.27H694.27c-.14,0-.29-.14-.14-.27a10.2,10.2,0,0,0,2-3.6,50.57,50.57,0,0,0,1.58-6.8,73.07,73.07,0,0,0,.29-7.33A8.3,8.3,0,0,0,694.7,206l-1.72-1.2c-4.18-2.4-8.64-2.8-13.38-3.06a30.39,30.39,0,0,1-7.63-1.07,13,13,0,0,1-6.18-4.27C667.37,199.44,670.82,200.91,674.42,201.17Z" transform="translate(-44.75 -115.66)"/><ellipse class="cls-14" cx="58.51" cy="77.65" rx="56.54" ry="52.39"/><ellipse class="cls-14" cx="147.13" cy="269.5" rx="67.19" ry="62.26"/><path class="cls-14" d="M282.66,193.44c0-40,35.11-72.26,78.27-72.26s78.12,32.26,78.12,72.26-35,72.39-78.12,72.39S282.66,233.44,282.66,193.44Z" transform="translate(-44.75 -115.66)"/><ellipse class="cls-14" cx="484.93" cy="256.96" rx="50.21" ry="46.53"/><ellipse class="cls-14" cx="654.27" cy="77.52" rx="61.43" ry="56.93"/><line class="cls-15" x1="88.29" y1="126.18" x2="124.97" y2="210.97"/><line class="cls-15" x1="264.53" y1="135.38" x2="192.88" y2="223.9"/><line class="cls-15" x1="372" y1="130.18" x2="452.56" y2="221.37"/><line class="cls-15" x1="613.84" y1="120.31" x2="518.02" y2="221.9"/><path class="cls-9" d="M400.64,224.24l-78.7.13c-4.6,0-8.35-3.47-8.35-7.6l-.14-48a8,8,0,0,1,8.2-7.74l78.7-.13c4.6,0,8.34,3.47,8.34,7.6l.15,48C409,220.9,405.24,224.24,400.64,224.24Z" transform="translate(-44.75 -115.66)"/><rect class="cls-9" x="320.36" y="167.44" width="81.72" height="46" transform="translate(-45.1 -115) rotate(-0.1)"/><polygon class="cls-9" points="361.21 114.05 271.86 114.18 264.53 105.11 368.54 104.98 361.21 114.05"/><rect class="cls-16" x="307.84" y="218.37" width="107.04" height="6" transform="translate(-45.14 -115.02) rotate(-0.1)"/><rect class="cls-17" x="330.28" y="167.44" width="62.87" height="38.66" transform="translate(-45.09 -115) rotate(-0.1)"/><polygon class="cls-17" points="285.68 90.58 317.04 61.52 348.55 90.45 285.68 90.58"/><polygon class="cls-17" points="285.53 51.92 317.04 74.18 348.4 51.92 285.53 51.92"/><polygon class="cls-17" points="336.46 75.38 297.62 75.52 297.47 28.32 331.57 28.19 336.46 32.32 336.46 75.38"/><polygon class="cls-18" points="331.57 28.19 331.43 32.59 336.46 32.32 331.57 28.19"/><path class="cls-19" d="M372,176.64" transform="translate(-44.75 -115.66)"/><path class="cls-19" d="M350.71,176.64" transform="translate(-44.75 -115.66)"/><line class="cls-20" x1="305.82" y1="38.05" x2="327.25" y2="38.05"/><line class="cls-20" x1="305.82" y1="41.92" x2="327.25" y2="41.79"/><line class="cls-20" x1="305.96" y1="57.12" x2="327.25" y2="57.12"/><line class="cls-20" x1="305.96" y1="45.65" x2="327.25" y2="45.65"/><line class="cls-20" x1="305.96" y1="49.52" x2="327.25" y2="49.52"/><line class="cls-20" x1="305.96" y1="53.38" x2="327.25" y2="53.25"/><path class="cls-7" d="M552.42,391.42c-11.51,11.73-31.08,12.66-43.74,2s-13.67-28.8-2.16-40.53,31.08-12.67,43.74-2,13.67,28.8,2.16,40.53" transform="translate(-44.75 -115.66)"/><path class="cls-21" d="M520.05,382.09c0-.27.43-1.34.14-1.47s-.58-.67-1.29-.67h-1.59c.43-.93.29-1.6.87-2.53.43-.67-1.44-.4-1.73-.27s-.29.27-.43.67-.43.53-.43.8H515a2,2,0,0,1-.86-.13c-.43-.27-.58.13-.87-.27-.14-.27-.14-.67-.28-.93a2.39,2.39,0,0,1-.15-2.4c.43-.54-.28-1.07.29-1.47a1.94,1.94,0,0,0,.58-1.33c.43,0,1.43.53,1.87.53.14.27.86.53.86.13.14.14.29.4.58.14a.3.3,0,0,0-.29-.27.24.24,0,0,0,0-.4c.29-.13.57.13.86.13s.43,0,.72,0a1.62,1.62,0,0,0,.72-.26c0,.4.14.66.29.4.43-.27.43.13.72.4s-.15,1.2.72,1.6c0,.26.43,1.06.57,1.06,1.3-.13-.43-2.93-.29-3.73a1.2,1.2,0,0,1,.87-.93c.43-.27,0-1.07.43-1.2s1,.13,1.44-.14.43-.26.14-.4a5.77,5.77,0,0,1,.58-.4c0-.26-.44-.8-.44-.93s.29-.13.15,0,.43-.4.43-.53c.29-.4-.43-.67-.29-.94.15,0,.72.27.87-.13a3.1,3.1,0,0,0-.44-1.73c.58-.53,1.87.93,2.31.53.43,0,.57.13.57-.27-.14-.13-.43,0-.57-.26s.43-.54.86-.67c.14,0,.14-.27.29-.53A1.56,1.56,0,0,0,529,363c.72-.26.14-.13.43-.26l1.15-.14c.14.14-.86.4-.72.8s.86-.13,1.15-.26c.29-.67,1.15-.27,1.87-.4,0-.14-.14-.14-.14-.27a1.14,1.14,0,0,0,.72-.27c.14-.13,0-.26-.29-.26,0-.14-.29-1.47-.86-.8-.29.26.14.8.14,1.2h-1c-.14-.27-.29-.14-.43-.27a5.55,5.55,0,0,1-.43-.53c.14-.14.14-.27.29-.4a6.58,6.58,0,0,0-.72-.14c.43,0,1.44-.13.86-.66-.43-.27-.86,0-1.29.13a4.6,4.6,0,0,0-1.16.53c-.14.14-.57,0-.71.14,0-.27.71-.67,1-.8s.58,0,.87-.4c0-.27.28-.4.57-.4s1-.27,1.44-.27c.72,0,1.44.4,2,.13a3,3,0,0,0,.72-.53h.87c.43,0,.72-.4.57-.67s0-1.2-.72-.8c-.14,0-.14-.4-.57-.4.14,0,.28-.13.43-.26-.15-.27-1.44-.4-1.73-.27,0-.13.15-.53-.14-.67s-.72-.13-.72-.4c.29.27.72-.26,0-.4,0-.13.57,0,0-.4-.14-.13-.58-.26-.43-.4s-1-1.33-1.3-.13a3,3,0,0,1-1.44.4c-.14-.27-.28-.13-.43-.13a1.09,1.09,0,0,1-.57-.14c0-.13.28-.13.28-.66s-.14-.27.15-.67-1.3,0-1.15-.53a1.64,1.64,0,0,0-1.3-.4c-.43.13-.72.4-1.15.26s-.72-.4-.86-.13-.15.4.14.53a2,2,0,0,0-.43.54c.14,0,.29.13.29,0a.48.48,0,0,0,.14.4c0,.13-.14.26-.29.4-.14.4-.71.4-.14.8s1.3.8,1,1.33-1.58.67-2.16.8c0,.4.29.4.29.8a5.76,5.76,0,0,0,.14.67c0,.53-.29.26-.57.53s-.44-.27-.72-.4-.58-.4-.43-.8.14-.93-.29-1.07c-.72-.13-1.73.14-2.45-.4-.29-.26-.57-.66-1-.66-.28,0-.57.26-.71.26s-.44,0-.44.14c.15-.27,0-1.07-.57-1.07a.55.55,0,0,1-.43-.8c.14-.27,1-.53,1-.8s1-.8.58-.8c.86-.27.72-.27-.14-.53a.73.73,0,0,1,.57-.27c.43,0,.86.27.58-.13a1.29,1.29,0,0,0,1.43-.8c-.14,0-1.43,0-1.29-.27a1.8,1.8,0,0,0,1.44,0c.43-.27.57-.4.14-.53a4.57,4.57,0,0,1,1.44-.14.77.77,0,0,0-.43-.26c.29-.14.43,0,.58.13a.89.89,0,0,0,.86-.4c.57-.53-.72-.27-.43-.8h.43c.14,0,.29.13.29-.13s-.29-.27-.58-.27-1.87.27-1,.4a.55.55,0,0,1-.43.13,2,2,0,0,1-.43.54c-.29.26-.58.4-.86,0,0-.14.72-.8-.15-.54-.28.14-.43.4-.72.54.15-.14-.14-.4.15-.54-.15-.13-.29,0-.43,0h-.29c0-.26.29-.13.43-.26-.14-.27-.43,0-.43-.4s-.72-.14-.72,0a3.6,3.6,0,0,0-.86.66h.14c0,.14-.43.4,0,.4h1c0,.14-.72.27-.72.27s.14.13.29.13h.14c-.14.27-.58.4-.86.54-.44.26,0,.26-.15.53-.43,0-.14-.27-.14-.4-.29-.13-1,0-1,.27-.29.13-1.44.66-1.73.53-.57-.27-1.43.53-1.72.93h0c-.86,0-1.3.67-2,.8l.44-.4c-.29-.26-1.59.8-1.87,1.07-1,.93-.29-.13-1.3-.27-.14.14.14.27.14.4s-.57.27-.86.27c-.14.13-.57.13-.86.4,0,.13-.15.13-.15.27h0a27.38,27.38,0,0,0-3.3,4.93,2,2,0,0,1,1,.13c-.14.4,1,.27,1,.54.14,0-.14.53,0,.53a1,1,0,0,0-.14.53c.28-.13,0-.4.28-.53v.8c0,.4-.28,1.33-.14,1.47a1.78,1.78,0,0,1,.43.66c-.14.13,0,.93-.14,1.2a3.3,3.3,0,0,0-.15,1.2,4.24,4.24,0,0,0-.14,1.87c.14.8.43,1.46.57,2.13s.44.13.72.67.44,1.2.72,1.86c.15.27.87,1.2.29,1.07,0,.67.86.67,1,1.2s.72.8.86,1.47c.58,0,0-.67,0-.8-.29,0-.43-.8-.57-1.2-.29-.14-.44-.8-.58-1.07a3.07,3.07,0,0,1-.57-1.47c.57.14.86.67,1,1.34a7.64,7.64,0,0,0,.43.93c.44.27.44.4.44.8.71.4,1.15,1.47,1.58,2.13.14.4-.15.67.14.94a4.56,4.56,0,0,1,.87.8,5.8,5.8,0,0,1,2,1.06c.43.14.72.4,1.15.54s.58-.27.86-.27c.58,0,1.15.93,1.73,1.2.14,0,1.87.67,1.87.4.14,0,.86,1.07,1.15,1.2,0,.27-.14.27.14.53l.15.14c.29-.14.72-.27,1-.4-.72-.27-.87-.54-.72-.8" transform="translate(-44.75 -115.66)"/><path class="cls-21" d="M543.78,391.69c-.14-.54-1.15,0-1.43-.27a1.82,1.82,0,0,0-1.15-.53c-.58,0-.87-.14-1.44-.14s-.58.4-.87.4c.15-.53-.43-.66-1.15-.53-.14-.27-.57-.27-.86,0,0-.13,0-.13.14-.27-.28-.26-.57,0-.86,0a1.49,1.49,0,0,1-1,.54c.15-.54.87-.67,1.15-1.07s-.43-.53-.43-.67c-.29-.66-.29-.53-.86-1.06a2.91,2.91,0,0,0-1.44-.4c-.43,0-.58.13-.86,0a3.57,3.57,0,0,0-1.3-.27c.15-.8-.86-.93-1.44-.93l.43-.4c-.14-.14-.28-.14-.43-.27.29,0,.15-.4.15-.53-.43,0-.58.53-.87.26.15-.13.29,0,.29-.13a1.42,1.42,0,0,0-1.44.13c-.43.27-.86-.26-1.29-.13s-.58.13-.72-.13-.43-.27-.72-.27-.14-.53-.43-.4-.15.27.14.27c-.14.13-.57.13-.86.26s-.29-.26,0-.4c.86-.13-.29-.4-.43-.66l-.43-.4a4,4,0,0,0-2.16.13,3.71,3.71,0,0,0-.72-.8c-.29.13-.72.27-1,.4.14.13.29.13.29,0,.14.4.57.13.57.67,0,.13.58.26.58.26h.29c.14,0,.29.14.43.27a1.18,1.18,0,0,0,.72.13c0-.13-.15-.26-.15-.4.44,0,.44-.26.87-.13,0,.13.29.53.14.67-.43.13-.86,0-1.15.26-.14.14-.14.67-.29.67a.48.48,0,0,0-.43.53c-.14-.13-.14-.13-.29-.13s.29.27.15.4a.29.29,0,0,0-.29.27c0,.26.29.53.29.8a3.45,3.45,0,0,1,0,1.2c0,.13-.72.53-.58.53-.29,0-.14.4-.43.4s-.29,0-.29.27-.72.93-.14,1.2h.43c0,.4-.58.4-.72.66s.58.54.14.54c.15.26.44.26.58.4a1.89,1.89,0,0,0,.43.53c.29.4.72.67.87,1.2.57.4.71.93,1.15,1.2a6.12,6.12,0,0,0,1.29.67,4.66,4.66,0,0,1,1.44.66,1.74,1.74,0,0,1,.14,1.2c-.14.13-.14,1.47,0,1.47,0,.4-.43-.14,0,.4.15.13.15.13,0,.26s-.28.54-.57.4a.14.14,0,0,0,.14.14,28.71,28.71,0,0,0,6.76.13c-.14-.13-.14-.27-.57-.13.86-.14,1.58.26,2.3-.14a3,3,0,0,1,.72-.53h0a3.21,3.21,0,0,0,1.58-1.07c.15-.8,1.44-.93,1.87-1.46,1-.14,1.44.13,2-.4a4,4,0,0,0,1-1.33c.29-.27-.43-1.07-.14-1.34s1.15-.13,1.29-.53C542.92,393.42,544.07,392.62,543.78,391.69Z" transform="translate(-44.75 -115.66)"/><path class="cls-21" d="M508,352.22c.43,0,.43.27.72.54,0-.14,1.15-1.2,1.3-1.07-.15,0-.15.13-.29.27h.14c-.14.13-.29.26-.29.4a9.31,9.31,0,0,0,1-.27l1.3-.8c.28,0,.57-.4,1-.4a2.29,2.29,0,0,0,1.3-.53c-.15-.14-.43.13-.43.13.28-.13,1-.27,1-.53-.28-.14-.72.13-1,0,.28-.14.14-.4.14-.54-.58,0-.72.4-1,.8-.14,0,0-.26-.14-.26-.29,0-.43.26-.72.53a6.57,6.57,0,0,1-1.58.53c-.43,0-.43-.26-1-.26h-.29l-.57.53a.41.41,0,0,1-.15.27c-.28.4-.28.26-.43.66C508,352.09,507.53,352.22,508,352.22Z" transform="translate(-44.75 -115.66)"/><path class="cls-21" d="M506.52,352.76c-.14.13-.29.26-.29.4.29-.14.58-.14.58-.27S506.67,352.76,506.52,352.76Z" transform="translate(-44.75 -115.66)"/><path class="cls-21" d="M558.89,364.09a1.62,1.62,0,0,0-.14-.8A.76.76,0,0,0,558.89,364.09Z" transform="translate(-44.75 -115.66)"/><path class="cls-21" d="M553.86,356.22c0-.13,0-.4.14-.26-.43.4.86.93.86,1.33h-.29c0,.13.15.27.15.4h-.29c0,.4.58.27.72.53a.55.55,0,0,1-.29-.13c-.29.8-.29.13.43.67v-.14c.44.14.58.27,1,.4v-.66a6,6,0,0,0-.86-1.2,7.72,7.72,0,0,0-.87-1.07c0-.67-.28-.4-.57-.93.14,0,.14,0,.14-.14s-.43-.26-.57-.4c0,.14,0,.27.14.27h-.14C553.28,355.16,553.57,356.09,553.86,356.22Z" transform="translate(-44.75 -115.66)"/><path class="cls-21" d="M560.19,368.22a3.36,3.36,0,0,0-.58-.67c-.43,0,.29-1.6-.43-1.73-.15.13-.72,0-.86-.13a.93.93,0,0,0-1,.26c0,.14-1.15.27-1.44-.13s.58-.27.58-.27c.57,0,.43-.4.71-.8s0-.26-.14-.53c.14-.26.14-.4.29-.66.72.13.14-.67.43-.94a1.76,1.76,0,0,0,.58.4c0-.13.14-.26.28-.4.43.54.43,1.07.87,1.6h0a23.78,23.78,0,0,0-2.59-5.86c-.15.13-.29.26-.15.53-.43-.13-.28.27-.43.4a.17.17,0,0,1-.29-.13c0-.14-.14-.14-.28-.14.14.14.14.27.14.54-.29-.27-.43-.27-.86-.27,0,.4.86,1.07,1.15,1.47a2.5,2.5,0,0,1,.29,1.46c-.44-.26-1.88-.8-2.31-.4,0,.27.29,1.07.29,1.34s0,.93-.14,1.06c.72.4-.15,1.07,1,.93a1.18,1.18,0,0,1-.14,1.74c-.58.4-.29.66-.58.93s.29.8-.28,1.33a5.32,5.32,0,0,0-.87.8c-.14.54-.72.8-.72,1.47-.57.27-.43.67-.71,1.07s0,.66-.15,1.06H552a3.55,3.55,0,0,1,.14,1.2,4.3,4.3,0,0,1-.29,1.34c-.43.53,0,.66,0,1.06a.6.6,0,0,0,.58.8c-.29.54.86.94.72,1.6.14.4,1,.94,1.43,1.2s.72.14,1.16-.13a.71.71,0,0,1,1-.13c.15.13,1.44-.94,1.73-1.07.14.13.14.53.14.8a.76.76,0,0,0,.58-.27c.14.94-.58,1.6-.43,2.4v.14a30.39,30.39,0,0,0,1.44-14.27" transform="translate(-44.75 -115.66)"/><path class="cls-21" d="M552.56,357.16c.43.8,2,.66,1.15-.4.43,0-.43-.94-.72-.94s-.14.14-.29.27c.15,0,.15,0,.15.13s-.29-.13-.43-.13c0,.27.86,1.07.14,1.07" transform="translate(-44.75 -115.66)"/><path class="cls-21" d="M531.7,343.42h-.86a5,5,0,0,0-1.44.14c.29,0,.43,0,.57.13h-.28a.94.94,0,0,0-.58.13h.29s.43.27.43.4c1.29.14,2.16-.4,3.31.27,0,0-.58.4-.43.4.43-.13.43-.13.72,0-.15,0-.15,0-.15.13s.29.14.43.14h-.14c-.14,0-.14,0-.29.13h-.14c-.29.13.57.13,1,.13h0c.28.14.86.14,1.15.27h0s.14.13-.29,0-.86-.27-1.15,0c.14,0,.14,0,.14.13-.29,0-.57.67-.43.67a1.67,1.67,0,0,0,1.73-.27.58.58,0,0,0-.44-.13c.29,0,.44.13.72.13h-.14a.14.14,0,0,0,.14.14h.15c.14.53-.87.4-1.15.53.28,0-.15.27-.15.27s0,.26.15.13c0,0-.15,0-.15.13.15.14.58,0,.72.14-.86,0-.29.53.43.53,0,.4-.14.4.15.53-.29,0-.29.14-.15.27l.29.27c.15.26,0,.13.29.26a.91.91,0,0,1,.58.14c-.15.26,0,.53,0,.93.43.13.71-.27.86,0a.51.51,0,0,0,.29.13h0c-.29.27.57.27.72.27s.14.13.28.27.15,0,0,.13a2.36,2.36,0,0,0,1-.13c-.14,0-.14.13,0,.13.29.13.29-.27.29-.27s.57,0,.57.14a.29.29,0,0,0-.28.26c.28,0,.43.14.72.14-.29.26.14.13.43.26h.86c.14-.26,0-.26-.14-.13h0l.28-.27c-.14-.26-.28-.13-.14-.53s-.14-.4-.43-.8h.29c0-.13,0-.13-.15-.27.29,0,.43,0,.58-.4-.15-.13-.29-.13-.43-.26h.28l-.28-.27h.28a.49.49,0,0,0-.14-.27,4.29,4.29,0,0,0,1.73.54v-.94a.52.52,0,0,0,.43.14c.14-.27-.15-.54.14-.8.29.13.58.26.72.13a2.12,2.12,0,0,0,.72-.13,40,40,0,0,0-14.53-4.14" transform="translate(-44.75 -115.66)"/><path class="cls-21" d="M559.75,365.82h0c-.14.27,0,.4.15.53C559.9,366.09,559.75,366,559.75,365.82Z" transform="translate(-44.75 -115.66)"/><path class="cls-21" d="M559.18,365.15a1,1,0,0,0-.43-.93c.14.27.14.67.43.93Z" transform="translate(-44.75 -115.66)"/><path class="cls-21" d="M523.07,344.36a1.86,1.86,0,0,1,.86-.14c-.14.14-.43.14-.86.14-.15,0-.43.13-.58.13s-.29.13-.43.13v.14c.14,0,.29,0,.14-.14.15,0,1-.13,1.16,0-.29,0-1.73.14-1.73.4.29,0,1-.26,1.29,0-.28.14-2.59.27-2.59.8.44,0,1-.26,1.3-.26s1-.14,1.44-.27,1.58.13,2-.4c-.57,0-1.15.27-1.58.13.43-.13.86,0,1.29-.13s.29-.27.58-.27a1.79,1.79,0,0,0,1.15-.53c-.29,0-.58.13-.86,0,.57-.13,1.15,0,1.58-.27H527c.29,0,2.16-.4,3.17-.53H530a20.28,20.28,0,0,0-2.73.13c-.86.14-1.58.27-2.45.4a9.52,9.52,0,0,0-2.59.67h.29C522.64,344.49,522.92,344.36,523.07,344.36Z" transform="translate(-44.75 -115.66)"/><path class="cls-21" d="M522.06,344.62s.14,0,.14-.13S521.92,344.62,522.06,344.62Z" transform="translate(-44.75 -115.66)"/><path class="cls-21" d="M513,348.76c1.72-.67,2.44-1.2,1.72-1.2A3.62,3.62,0,0,0,513,348.76Z" transform="translate(-44.75 -115.66)"/><path class="cls-21" d="M519,345.69h.14a7,7,0,0,1,1.44-.27,4.71,4.71,0,0,1,1.15-.53c-.14,0-.29,0-.29-.13h-.14c-.14,0-.43.13-.57.13h0l-.15.13c-.14,0,.15-.13.15-.13-1,.27-2.31.67-2.31.93C518.9,345.82,518.9,345.69,519,345.69Z" transform="translate(-44.75 -115.66)"/><path class="cls-21" d="M549,350.49c0-.13-.43-.53-.72-.67h-.14a.2.2,0,0,1-.29,0,10,10,0,0,1-1-.26c.14,0,.14.13,0,.13s-.72-.53-1-.67a.14.14,0,0,0,.14.14c-.14,0-.43-.14-.43,0s.86,0,1,.4h-.29c-.14,0-.29-.14-.43.13.29.13.72.13.86.4-.14,0-.29,0-.29.13.29.14,3.17,1.07,3,.54a.39.39,0,0,0-.15-.27s0-.13-.29,0" transform="translate(-44.75 -115.66)"/><path class="cls-21" d="M525.23,378.09c0-.4-.58-.4-.87-.4,0-.14.15-.14,0-.27a2.93,2.93,0,0,0-1-.27c-.15-.26-.29-.26-.58-.4a6.38,6.38,0,0,0-1.15-.4c-.58,0-1-.26-1.58-.13-.29,0-1,.4-.72.8a6.64,6.64,0,0,0,1.44-.53c.14.4.71.4,1.15.53s.72,0,.86.4.43.27.72.4c-.14.13-.29.13-.29.4A9.85,9.85,0,0,1,525.23,378.09Z" transform="translate(-44.75 -115.66)"/><path class="cls-21" d="M523.07,379.15s1,.27.86,0C523.79,378.62,522.2,378.62,523.07,379.15Z" transform="translate(-44.75 -115.66)"/><path class="cls-21" d="M525.8,379h.58c.14.13.28.27.43.27.14-.94,1.72.13,1.72-.54a3.36,3.36,0,0,0-1.72-.8c-.29,0-1.3-.26-1.44.14,0,0,.57.66.57.53-.43.13-.71-.13-1.15,0C524.94,379.29,525.51,379,525.8,379Z" transform="translate(-44.75 -115.66)"/><path class="cls-21" d="M529.25,379c0,.4,1.15.27,1,0S529.25,378.62,529.25,379Z" transform="translate(-44.75 -115.66)"/><path class="cls-21" d="M515.59,347.69c.57.4,1-.27,1.15-.27S515.15,347.29,515.59,347.69Z" transform="translate(-44.75 -115.66)"/><path class="cls-21" d="M511.27,349.69c-.14,0-.72-.13-.72.27.43.26,1.58-.14,1.58-.67-.14,0-.28-.13-.43-.13a1.18,1.18,0,0,0-.72.13C510.84,349.29,511.27,349.56,511.27,349.69Z" transform="translate(-44.75 -115.66)"/><path class="cls-21" d="M518.9,346.89a25.51,25.51,0,0,1,2.73-.53c.29,0,.72,0,.86-.27.15.27.72.13.87,0a4.7,4.7,0,0,1,.86-.4,4.2,4.2,0,0,0-2.59.27c-.43.13-.58.13-1,.26s-.86,0-1,.14c.15-.14.44-.14.58-.27a4.25,4.25,0,0,0-1.29.27c0,.13.14,0,.14.13S518.75,346.62,518.9,346.89Z" transform="translate(-44.75 -115.66)"/><path class="cls-21" d="M525.66,348.76c-.58-.14-1.15,0-1.15.53C524.94,349.42,525.66,349.29,525.66,348.76Z" transform="translate(-44.75 -115.66)"/><path class="cls-21" d="M529.11,347.42c-.29,0-.43.14-.72.14.14,0,.43-.14.58-.14,0-.26-.44-.13-.72-.13s-.87.27-.87.13c.29,0-.43-.8-.72-.26,0-.27-.28-.27-.43-.14h-.29c.15,0,.29-.13.44-.26-.29-.27-2.16-.4-2.16.26a.48.48,0,0,0-.58,0c-.14,0-.28.14-.43,0,.15-.13.29-.26.29-.4-.58-.53-1.44,0-2,.27h.28c-.28,0-.57,0-.57.27a.13.13,0,0,1,.14.13c-.14,0-.29,0-.29.13s.29,0,.44.14c-.15.13-.29.13-.58.13.14,0,.29,0,.29-.13-.15-.27-.43-.27-.43-.54.28-.26.57-.26.86-.53-.58.13-2.45.53-2.16,1.2a.3.3,0,0,0-.29.27h1c-.14.13-.72,0-.72.26s.58.14.86,0,.29,0,.29,0h.43a10.55,10.55,0,0,1,2-.13c0-.27.14-.27.43-.13h.43c.58-.14-.14-.27-.14-.27s1.44.4,1.58.53c-.14.14-.29.14-.58.14-.14.4.44.13.72.13.43-.13.43.13.72.27,1.15.26.15,1.06-.43,1.2,0,.13.43.26.29.4-.58,0-1,.13-1.58.13-.29,0-.87.27-.72.67.28,0,1.72-.14,1.72-.4s1.44.66,1.73.8a.13.13,0,0,0-.14.13c.43.27,1,.27,1.43.67.58,0,1.16.13,1.73.13,0-.67-.57-.8-1.58-.93a6,6,0,0,0,1.58,0c.29.13.29.53.58.53v-.53H531c.14-.4-.29-.4-.43-.67.14,0,.14,0,.14-.13a4.22,4.22,0,0,1-1.58-.94.53.53,0,0,0,.43.14c0-.27-.29-.14-.29-.27a1.42,1.42,0,0,1,1.44.13c.29.27.43.8.87.8,0-.13-.15-.26,0-.4a6.55,6.55,0,0,1,.72-.13c.14-.13-.15-.13,0-.27.43,0,.71-.26.14-.4s-.43,0-.72-.26c-.29,0-.58.13-.86,0,.14,0,.28,0,.28-.14-.28-.53-1.72-.4-2.3-.66a.21.21,0,0,1,.29,0c0-.14-.29-.14-.14-.27a2,2,0,0,0,.86.13c0-.26-.14-.26-.29-.26s-.29,0-.29-.14c.87-.13.15-.4-.14-.4" transform="translate(-44.75 -115.66)"/><path class="cls-21" d="M521.05,351.69c.15,0,1.59.67,1.59,0a2,2,0,0,0-.87-.13c.15-.4-.57-.14-.86-.27-.72-.27,0-.13-.58-.27,0-.13,0-.26-.28-.26-.15.26-.44.4-.44.66-.14.54-.28.27-.57.8.29,0,.57-.13.86-.13v.27c.43,0,.72-.4,1.15-.4C521.05,351.82,520.91,351.69,521.05,351.69Z" transform="translate(-44.75 -115.66)"/><path class="cls-21" d="M523.64,350.22c-.14,0-.43.14-.57,0a1.7,1.7,0,0,0,.57-.4,2.82,2.82,0,0,0-1.44.67h.15a6.19,6.19,0,0,0-1,.53C521.77,351.16,523.64,350.89,523.64,350.22Z" transform="translate(-44.75 -115.66)"/><path class="cls-21" d="M517.6,346.36c.43,0,.72-.27,1.15-.4A4.77,4.77,0,0,0,517.6,346.36Z" transform="translate(-44.75 -115.66)"/><path class="cls-21" d="M516.45,349.69c-.14,0-.58-.27-.86-.27l-.72.67C515.44,350.09,516,350.22,516.45,349.69Z" transform="translate(-44.75 -115.66)"/><path class="cls-21" d="M521.77,344.76Z" transform="translate(-44.75 -115.66)"/><path class="cls-21" d="M517.6,347c.29.14,1.15-.26,1-.4A2.43,2.43,0,0,0,517.6,347Z" transform="translate(-44.75 -115.66)"/><path class="cls-21" d="M517.17,347.82c.29.14.72,0,1.73-.8C519.33,346.62,517.74,347.29,517.17,347.82Z" transform="translate(-44.75 -115.66)"/><path class="cls-21" d="M517.17,346.62c-.14,0-1.15.14-1.15.27C516.31,346.76,517,347,517.17,346.62Z" transform="translate(-44.75 -115.66)"/><path class="cls-21" d="M514.72,349a.14.14,0,0,0-.14.14,1.65,1.65,0,0,0,1.29-.8C515,348.36,514.44,349,514.72,349Z" transform="translate(-44.75 -115.66)"/><path class="cls-21" d="M535.87,359h-.14a1.15,1.15,0,0,0-.72.67,4.74,4.74,0,0,1-.43.8h0a.23.23,0,0,0,0,.4.71.71,0,0,0-.43.27v.13c0,.13.14.13.28.13h1.87c-.14.14-.28.14-.43.4h.29c.14,0,.29-.13.43-.13h0a.57.57,0,0,1,.43-.13h.15c0,.4-.15.4.28.53h.15c.14,0,.14-.13.29-.4s-.44-.4-.58-.4.14-.13.14-.27.29-.13.15-.26h-.43c0-.27.43-.54,0-.54h-.58a.56.56,0,0,1-.43-.13c.58-.13-.14-.13-.43-.13h0a4.61,4.61,0,0,0,.57-.8c0-.14.15-.14.15-.14h-.58" transform="translate(-44.75 -115.66)"/><rect class="cls-22" x="330.28" y="167.44" width="62.87" height="38.66" transform="translate(-45.09 -115) rotate(-0.1)"/><polygon class="cls-22" points="285.68 90.58 317.04 61.52 348.55 90.45 285.68 90.58"/><polygon class="cls-22" points="285.53 51.92 317.04 74.18 348.4 51.92 285.53 51.92"/><polygon class="cls-23" points="335.02 59.12 335.02 59.78 324.95 66.98 317.04 59.52 309.27 66.98 298.91 59.78 298.91 35.79 298.91 29.65 330.71 29.52 330.56 33.39 335.02 32.99 335.02 59.12"/><polygon class="cls-22" points="336.46 75.38 297.62 75.52 297.47 28.32 331.57 28.19 336.46 32.32 336.46 75.38"/><polygon class="cls-24" points="331.57 28.19 331.43 32.59 336.46 32.32 331.57 28.19"/><path class="cls-25" d="M372,176.64" transform="translate(-44.75 -115.66)"/><path class="cls-25" d="M350.71,176.64" transform="translate(-44.75 -115.66)"/><line class="cls-26" x1="305.82" y1="38.05" x2="327.25" y2="38.05"/><line class="cls-26" x1="305.82" y1="41.92" x2="327.25" y2="41.79"/><line class="cls-26" x1="305.96" y1="57.12" x2="327.25" y2="57.12"/><line class="cls-26" x1="305.96" y1="45.65" x2="327.25" y2="45.65"/><line class="cls-26" x1="305.96" y1="49.52" x2="327.25" y2="49.52"/><line class="cls-26" x1="305.96" y1="53.38" x2="327.25" y2="53.25"/><polygon class="cls-27" points="290.57 57.12 306.97 68.85 291.43 83.25 290.57 57.12"/><polygon class="cls-27" points="295.46 83.52 317.18 63.38 338.91 83.65 295.46 83.52"/><polygon class="cls-27" points="326.96 68.72 343.51 83.92 343.8 56.85 326.96 68.72"/><rect class="cls-28" x="280.78" y="50.45" width="3.17" height="2.53"/><rect class="cls-28" x="349.84" y="50.45" width="3.17" height="2.53"/><rect class="cls-27" x="281.5" y="89.65" width="2.59" height="2.8"/><rect class="cls-27" x="349.98" y="89.65" width="2.59" height="2.8"/><rect class="cls-27" x="330.71" y="26.72" width="0.29" height="0.13"/><rect class="cls-27" x="337.9" y="32.59" width="0.29" height="0.53"/><path class="cls-29" d="M77.36,277.16V264.37c0-.27.15-.4.43-.4H81a6.23,6.23,0,0,1,3,.66c.72.4,1,1.2,1,2.54a4.25,4.25,0,0,1-.43,2,2,2,0,0,1-1.3,1.07,3.5,3.5,0,0,1,1.58,1.2,4.25,4.25,0,0,1,.58,2.13v.4a3.72,3.72,0,0,1-1,2.94,4.13,4.13,0,0,1-2.88.93H77.94c-.15,0-.29,0-.29-.13C77.36,277.43,77.36,277.3,77.36,277.16Zm1-7.46H81.1a3.59,3.59,0,0,0,2.3-.54,2.59,2.59,0,0,0,.72-2,2.29,2.29,0,0,0-.72-1.87,5.13,5.13,0,0,0-2.3-.53H78.51v4.93Zm0,6.93h3c2,0,3-.93,3-2.93v-.27a3,3,0,0,0-.72-2.13,3.83,3.83,0,0,0-2.3-.67h-3Z" transform="translate(-44.75 -115.66)"/><path class="cls-29" d="M87.43,274.23V272.1a3.21,3.21,0,0,1,1.15-2.4,3.67,3.67,0,0,1,5.18,0,3.21,3.21,0,0,1,1.15,2.4v2.13a3.24,3.24,0,0,1-1.15,2.4,3.67,3.67,0,0,1-5.18,0A3.24,3.24,0,0,1,87.43,274.23Zm1,0a2.57,2.57,0,0,0,.86,1.87,2.64,2.64,0,0,0,1.87.8,2.4,2.4,0,0,0,1.87-.8,2.35,2.35,0,0,0,.87-1.87V272.1a2.29,2.29,0,0,0-.87-1.74,2.63,2.63,0,0,0-1.87-.8,2.4,2.4,0,0,0-1.87.8,2.91,2.91,0,0,0-.86,1.74Z" transform="translate(-44.75 -115.66)"/><path class="cls-29" d="M97.22,277.16V263.7c0-.13,0-.27.14-.27s.14-.13.29-.13a.56.56,0,0,1,.43.13c.14.14.14.14.14.27v13.46c0,.14,0,.14-.14.27a.47.47,0,0,1-.29.13s-.29,0-.29-.13S97.22,277.3,97.22,277.16Z" transform="translate(-44.75 -115.66)"/><path class="cls-29" d="M100.67,274.23V272a3.24,3.24,0,0,1,1.15-2.4,4.07,4.07,0,0,1,5.18,0,3.24,3.24,0,0,1,1.15,2.4c0,.4,0,.67-.14.8s-.29.4-.44.4-.28.14-.57.14h-5.32v.8a2.14,2.14,0,0,0,.86,1.86,3.3,3.3,0,0,0,2.3.67,4.46,4.46,0,0,0,1.3-.13,4.12,4.12,0,0,0,.72-.4.52.52,0,0,1,.43-.14c.14,0,.28,0,.28.14.15.13.15.13.15.26s-.29.54-.86.8a4.89,4.89,0,0,1-2,.4,4.24,4.24,0,0,1-3-.93A3,3,0,0,1,100.67,274.23Zm1-1.6H106c.43,0,.72,0,.87-.13a.7.7,0,0,0,.28-.54,2.59,2.59,0,0,0-2.59-2.53,2.85,2.85,0,0,0-1.87.67,2.27,2.27,0,0,0-.86,1.73v.8Z" transform="translate(-44.75 -115.66)"/><path class="cls-29" d="M110.16,274.9v-10c0-.13,0-.27.15-.27s.14-.13.29-.13.28,0,.28.13.15.14.15.27v3.86h2.73c.14,0,.14,0,.29.14s.14.13.14.26,0,.14-.14.27-.15.13-.29.13H111v5.34a1.68,1.68,0,0,0,.43,1.33,2.42,2.42,0,0,0,1.58.4h.58c.14,0,.28,0,.28.13s.15.14.15.27,0,.27-.15.27-.14.13-.28.13h-.43C111.17,277.56,110.16,276.63,110.16,274.9Z" transform="translate(-44.75 -115.66)"/><path class="cls-29" d="M115.2,275.16a2.16,2.16,0,0,1,1.15-2,8.39,8.39,0,0,1,3.45-.53H121v-.4a2.7,2.7,0,0,0-.57-1.87,2.21,2.21,0,0,0-1.87-.8,4.61,4.61,0,0,0-1.44.27,5.46,5.46,0,0,0-.72.27c-.14,0-.29,0-.29-.14s-.14-.26-.14-.4.29-.4.86-.53a8,8,0,0,1,1.73-.27,3.27,3.27,0,0,1,2.59,1.07,3.93,3.93,0,0,1,.86,2.53v4.94c0,.13,0,.26-.14.26s-.15.14-.29.14-.29,0-.29-.14-.14-.13-.14-.26v-1.07a4.1,4.1,0,0,1-3,1.47,3.29,3.29,0,0,1-2-.67A2.19,2.19,0,0,1,115.2,275.16Zm1,0a1.25,1.25,0,0,0,.57,1.2,2.26,2.26,0,0,0,1.44.4,4,4,0,0,0,2-.66,1.48,1.48,0,0,0,.87-1.34v-1.33h-2.45a3.44,3.44,0,0,0-1.15.27c-.43.13-.72.26-.86.53A1.16,1.16,0,0,0,116.21,275.16Z" transform="translate(-44.75 -115.66)"/><path class="cls-29" d="M124,276.36c0-.13,0-.13.14-.26s.14-.14.29-.14.14,0,.28.14l.44.26c.14.14.43.14.72.27a3.06,3.06,0,0,0,1.15.13,3.2,3.2,0,0,0,1.72-.4,1.18,1.18,0,0,0,.58-1.06,1.26,1.26,0,0,0-.58-1.2,2.75,2.75,0,0,0-1.29-.67c-.43-.13-1-.27-1.44-.4a6,6,0,0,1-1.3-.67,2.32,2.32,0,0,1-.57-1.33,2.68,2.68,0,0,1,.72-1.73,3.13,3.13,0,0,1,2.3-.8,8,8,0,0,1,1.73.26c.57.14.86.4.86.54s0,.26-.14.26-.15.14-.29.14a5.46,5.46,0,0,0-.72-.27,4.61,4.61,0,0,0-1.44-.27,1.87,1.87,0,0,0-1.58.54c-.29.4-.58.66-.58,1.06a.9.9,0,0,0,.58.94,12.14,12.14,0,0,0,1.29.53c.43.13,1,.27,1.44.4a3.48,3.48,0,0,1,1.3.8,2.72,2.72,0,0,1,.57,1.47,2.1,2.1,0,0,1-.86,1.73,3.88,3.88,0,0,1-2.3.67,5.21,5.21,0,0,1-2.16-.4A.64.64,0,0,1,124,276.36Z" transform="translate(-44.75 -115.66)"/><path class="cls-29" d="M298.06,298.5V285.7c0-.27.14-.4.43-.4h7.19c.15,0,.29,0,.29.13s.14.13.14.27,0,.26-.14.26-.14.14-.29.14h-6.62v5.46h3.17c.14,0,.29,0,.29.14s.14.13.14.26-.14.4-.43.4h-3.17v6c0,.27-.14.4-.57.4S298.06,298.76,298.06,298.5Z" transform="translate(-44.75 -115.66)"/><path class="cls-29" d="M305,295.56v-2.13a3.24,3.24,0,0,1,1.15-2.4,3.67,3.67,0,0,1,5.18,0,3.24,3.24,0,0,1,1.15,2.4v2.13a3.21,3.21,0,0,1-1.15,2.4,3.67,3.67,0,0,1-5.18,0A2.8,2.8,0,0,1,305,295.56Zm1,0a2.55,2.55,0,0,0,.86,1.87,2.64,2.64,0,0,0,1.87.8,2.4,2.4,0,0,0,1.87-.8,2.34,2.34,0,0,0,.87-1.87v-2.13a2.25,2.25,0,0,0-.87-1.73,2.58,2.58,0,0,0-1.87-.8,2.37,2.37,0,0,0-1.87.8,2.86,2.86,0,0,0-.86,1.73Z" transform="translate(-44.75 -115.66)"/><path class="cls-29" d="M314.6,298.5v-8c0-.27.15-.4.43-.4s.29,0,.29.13.14.13.14.27v.93a3.81,3.81,0,0,1,1-1.07,3.33,3.33,0,0,1,1.73-.4h.72c.14,0,.29,0,.29.14s.14.13.14.26,0,.27-.14.27-.15.13-.29.13h-.72a2.85,2.85,0,0,0-2.74,2.8v4.94c0,.13,0,.13-.14.26a.45.45,0,0,1-.29.14s-.28,0-.28-.14S314.6,298.63,314.6,298.5Z" transform="translate(-44.75 -115.66)"/><path class="cls-29" d="M321.08,298.5v-8c0-.27.14-.4.43-.4s.29,0,.29.13.14.13.14.27v.93a3,3,0,0,1,2.73-1.47,2.42,2.42,0,0,1,1.73.54,5.43,5.43,0,0,1,1.15,1.33,2.44,2.44,0,0,1,1.29-1.33,4.34,4.34,0,0,1,1.73-.54,3,3,0,0,1,2.3.94,3.17,3.17,0,0,1,1,2.53v5.07c0,.13,0,.13-.14.26a.47.47,0,0,1-.29.14c-.15,0-.29,0-.29-.14s-.14-.13-.14-.26v-5.07a2.54,2.54,0,0,0-.72-1.87,2.6,2.6,0,0,0-3.46,0,2,2,0,0,0-.71,1.74v5.2c0,.26-.15.4-.58.4s-.43-.14-.43-.4v-5.2a2.45,2.45,0,0,0-.72-1.74,2,2,0,0,0-1.73-.66,2.45,2.45,0,0,0-1.72.66,2.23,2.23,0,0,0-.72,1.87v5.07c0,.13,0,.13-.15.26a.45.45,0,0,1-.29.14s-.28,0-.28-.14S321.08,298.63,321.08,298.5Z" transform="translate(-44.75 -115.66)"/><path class="cls-29" d="M335.89,296.5a2.16,2.16,0,0,1,1.16-2,7.94,7.94,0,0,1,3.45-.54h1.15v-.4a2.62,2.62,0,0,0-.58-1.86,2.18,2.18,0,0,0-1.87-.8,4.74,4.74,0,0,0-1.44.26,7,7,0,0,0-.71.27c-.15,0-.29,0-.29-.13s-.15-.27-.15-.4.29-.4.87-.54a7.87,7.87,0,0,1,1.72-.26,3.28,3.28,0,0,1,2.59,1.06,3.89,3.89,0,0,1,.87,2.54v4.93c0,.13,0,.27-.15.27s-.14.13-.29.13-.28,0-.28-.13-.15-.14-.15-.27v-1.07a4,4,0,0,1-3,1.47,3.26,3.26,0,0,1-2-.67A2.15,2.15,0,0,1,335.89,296.5Zm1,0a1.28,1.28,0,0,0,.58,1.2,2.29,2.29,0,0,0,1.44.4,4,4,0,0,0,2-.67,1.46,1.46,0,0,0,.86-1.33v-1.34h-2.44a3.7,3.7,0,0,0-1.15.27,1.35,1.35,0,0,0-.87.53A1.21,1.21,0,0,0,336.9,296.5Z" transform="translate(-44.75 -115.66)"/><path class="cls-29" d="M345.25,296.23v-10c0-.13,0-.27.14-.27s.14-.13.29-.13.29,0,.29.13.14.14.14.27v3.87h2.73c.15,0,.15,0,.29.13s.14.13.14.27,0,.13-.14.26-.14.14-.29.14h-2.59v5.33a1.69,1.69,0,0,0,.43,1.33,2.45,2.45,0,0,0,1.59.4h.57c.15,0,.29,0,.29.14s.14.13.14.26,0,.27-.14.27-.14.13-.29.13h-.57C346.25,298.9,345.25,298,345.25,296.23Z" transform="translate(-44.75 -115.66)"/><path class="cls-29" d="M350.42,295.56v-2.13a3.25,3.25,0,0,1,1.16-2.4,3.67,3.67,0,0,1,5.18,0,3.28,3.28,0,0,1,1.15,2.4v2.13a3.24,3.24,0,0,1-1.15,2.4,3.67,3.67,0,0,1-5.18,0A2.78,2.78,0,0,1,350.42,295.56Zm1,0a2.53,2.53,0,0,0,.87,1.87,2.63,2.63,0,0,0,1.87.8,2.43,2.43,0,0,0,1.87-.8,2.36,2.36,0,0,0,.86-1.87v-2.13a2.27,2.27,0,0,0-.86-1.73,2.62,2.62,0,0,0-1.87-.8,2.37,2.37,0,0,0-1.87.8,2.82,2.82,0,0,0-.87,1.73Z" transform="translate(-44.75 -115.66)"/><path class="cls-29" d="M363.8,295.56V293.3a3.22,3.22,0,0,1,1.16-2.4,4,4,0,0,1,5.17,0,3.22,3.22,0,0,1,1.16,2.4c0,.4,0,.66-.15.8s-.29.4-.43.4-.29.13-.58.13h-5.32v.8a2.17,2.17,0,0,0,.87,1.87,3.33,3.33,0,0,0,2.3.66,4.36,4.36,0,0,0,1.29-.13,3.07,3.07,0,0,0,.72-.4.56.56,0,0,1,.43-.13c.15,0,.29,0,.29.13s.14.13.14.27-.28.53-.86.8a5,5,0,0,1-2,.4,4.23,4.23,0,0,1-3-.94A3,3,0,0,1,363.8,295.56Zm.87-1.6H369c.44,0,.72,0,.87-.13a.69.69,0,0,0,.29-.53,2.73,2.73,0,0,0-.72-1.74,2.66,2.66,0,0,0-1.87-.8,2.85,2.85,0,0,0-1.87.67,2.27,2.27,0,0,0-.87,1.73v.8Z" transform="translate(-44.75 -115.66)"/><path class="cls-29" d="M373.16,298.5v-8c0-.27.14-.4.43-.4s.29,0,.29.13.14.13.14.27v.93a3.68,3.68,0,0,1,1-1.07,3.12,3.12,0,0,1,1.58-.4A3.72,3.72,0,0,1,379.2,291a3.1,3.1,0,0,1,1,2.4v5.07c0,.26-.15.4-.58.4s-.43-.14-.43-.4v-5.07a2.27,2.27,0,0,0-.86-1.73,2.62,2.62,0,0,0-1.87-.8,3.15,3.15,0,0,0-1.87.66,2.23,2.23,0,0,0-.72,1.87v5.07c0,.13,0,.13-.15.26a.45.45,0,0,1-.29.14s-.28,0-.28-.14Z" transform="translate(-44.75 -115.66)"/><path class="cls-29" d="M387.26,298.5V285.7c0-.27.14-.4.57-.4s.58.13.58.4v12.4h5.89c.29,0,.44.13.44.4s-.15.4-.44.4h-6.47C387.54,298.9,387.26,298.76,387.26,298.5Z" transform="translate(-44.75 -115.66)"/><path class="cls-29" d="M395.31,287.3c0-.14,0-.27.15-.27l2.15-1.2h.15c.14,0,.14,0,.29.13,0,.14.14.14.14.27s-.14.27-.29.4l-2,1.07h-.15c-.14,0-.28,0-.28-.14S395.31,287.43,395.31,287.3Zm1,11.2v-8c0-.27.14-.4.43-.4s.58.13.58.4v8c0,.13,0,.13-.15.26a.45.45,0,0,1-.29.14s-.28,0-.28-.14S396.32,298.63,396.32,298.5Z" transform="translate(-44.75 -115.66)"/><path class="cls-29" d="M399.92,298.5v-8c0-.27.14-.4.43-.4.14,0,.29,0,.29.13s.14.13.14.27v.93a3.68,3.68,0,0,1,1-1.07,3.12,3.12,0,0,1,1.58-.4A3.72,3.72,0,0,1,406,291a3.1,3.1,0,0,1,1,2.4v5.07c0,.26-.15.4-.44.4s-.43-.14-.43-.4v-5.07a2.27,2.27,0,0,0-.86-1.73,2.6,2.6,0,0,0-1.87-.8,3.15,3.15,0,0,0-1.87.66,2.23,2.23,0,0,0-.72,1.87v5.07c0,.13,0,.13-.14.26a.47.47,0,0,1-.29.14s-.29,0-.29-.14S399.92,298.63,399.92,298.5Z" transform="translate(-44.75 -115.66)"/><path class="cls-29" d="M409.41,295.56V293.3a3.21,3.21,0,0,1,1.15-2.4,4,4,0,0,1,5.18,0,3.21,3.21,0,0,1,1.15,2.4c0,.4,0,.66-.14.8s-.29.4-.43.4-.29.13-.58.13h-5.32v.8a2.19,2.19,0,0,0,.86,1.87,3.36,3.36,0,0,0,2.3.66,4.42,4.42,0,0,0,1.3-.13,3.3,3.3,0,0,0,.72-.4.56.56,0,0,1,.43-.13c.14,0,.29,0,.29.13s.14.13.14.27-.29.53-.86.8a5.06,5.06,0,0,1-2,.4,4.25,4.25,0,0,1-3-.94A2.53,2.53,0,0,1,409.41,295.56Zm1-1.6h4.31c.44,0,.72,0,.87-.13a.69.69,0,0,0,.29-.53,2.73,2.73,0,0,0-.72-1.74,2.64,2.64,0,0,0-1.87-.8,2.85,2.85,0,0,0-1.87.67,2.27,2.27,0,0,0-.87,1.73v.8Z" transform="translate(-44.75 -115.66)"/><path class="cls-29" d="M418.19,296.5a2.15,2.15,0,0,1,1.15-2,8.37,8.37,0,0,1,3.45-.54h1.15v-.4a2.66,2.66,0,0,0-.57-1.86,2.2,2.2,0,0,0-1.87-.8,4.63,4.63,0,0,0-1.44.26c-.43.14-.72.27-.72.27s-.29,0-.29-.13a.48.48,0,0,1-.14-.4c0-.27.28-.4.86-.54a8,8,0,0,1,1.73-.26,3.3,3.3,0,0,1,2.59,1.06,3.94,3.94,0,0,1,.86,2.54v4.93c0,.13,0,.27-.14.27s-.15.13-.29.13-.29,0-.29-.13-.14-.14-.14-.27v-1.07a4.07,4.07,0,0,1-3,1.47,3.28,3.28,0,0,1-2-.67A2.14,2.14,0,0,1,418.19,296.5Zm1,0a1.28,1.28,0,0,0,.58,1.2,2.31,2.31,0,0,0,1.44.4,4,4,0,0,0,2-.67,1.47,1.47,0,0,0,.87-1.33v-1.34h-2.45a3.7,3.7,0,0,0-1.15.27,1.32,1.32,0,0,0-.86.53A.88.88,0,0,0,419.19,296.5Z" transform="translate(-44.75 -115.66)"/><path class="cls-29" d="M123.83,476.34v-5.86a3.59,3.59,0,0,1,1.15-2.94,4.29,4.29,0,0,1,3-.93,3.91,3.91,0,0,1,2.88.93,2.77,2.77,0,0,1,1,2.14c0,.26,0,.4-.15.53s-.14.13-.43.13-.43-.13-.43-.4a1.64,1.64,0,0,0-.14-.8l-.43-.8a1.49,1.49,0,0,0-.87-.66,4.55,4.55,0,0,0-1.58-.27c-2,0-3.17,1.07-3.17,3.07v5.86c0,2,1,3.07,3.17,3.07a4.36,4.36,0,0,0,1.29-.13l.87-.4c.29-.14.29-.4.43-.54s.14-.4.29-.66a5.76,5.76,0,0,0,.14-.67c0-.27.14-.4.43-.4a.55.55,0,0,1,.43.13c.15.14.15.27.15.54a2.93,2.93,0,0,1-1.15,2.13,5,5,0,0,1-3,.93,4.1,4.1,0,0,1-2.88-.93A3.85,3.85,0,0,1,123.83,476.34Z" transform="translate(-44.75 -115.66)"/><path class="cls-29" d="M133.76,476.88v-2.14a3.24,3.24,0,0,1,1.15-2.4,3.69,3.69,0,0,1,5.18,0,3.24,3.24,0,0,1,1.15,2.4v2.14a3.24,3.24,0,0,1-1.15,2.4,3.69,3.69,0,0,1-5.18,0A3.24,3.24,0,0,1,133.76,476.88Zm1,0a2.51,2.51,0,0,0,.86,1.86,2.58,2.58,0,0,0,1.87.8,2.37,2.37,0,0,0,1.87-.8,2.34,2.34,0,0,0,.86-1.86v-2.14a2.29,2.29,0,0,0-.86-1.73,2.64,2.64,0,0,0-1.87-.8,2.4,2.4,0,0,0-1.87.8,2.89,2.89,0,0,0-.86,1.73Z" transform="translate(-44.75 -115.66)"/><path class="cls-29" d="M143.4,479.81v-8c0-.27.14-.4.43-.4.14,0,.29,0,.29.13s.14.14.14.27v.93a3.65,3.65,0,0,1,1-1.06,3.22,3.22,0,0,1,1.72-.4h.72c.15,0,.29,0,.29.13.15.13.15.13.15.27s0,.26-.15.26-.14.14-.29.14H147a2.84,2.84,0,0,0-2.73,2.8v4.93c0,.13,0,.13-.14.27a.49.49,0,0,1-.29.13s-.29,0-.29-.13S143.4,479.94,143.4,479.81Z" transform="translate(-44.75 -115.66)"/><path class="cls-29" d="M149.87,479.81v-8c0-.27.15-.4.43-.4s.29,0,.29.13c.15.14.15.14.15.27v.93a3.49,3.49,0,0,1,1-1.06,3.23,3.23,0,0,1,1.73-.4h.72c.14,0,.29,0,.29.13s.14.13.14.27,0,.26-.14.26-.15.14-.29.14h-.72a2.84,2.84,0,0,0-2.73,2.8v4.93c0,.13,0,.13-.15.27a.47.47,0,0,1-.29.13s-.28,0-.28-.13S149.87,479.94,149.87,479.81Z" transform="translate(-44.75 -115.66)"/><path class="cls-29" d="M155.48,476.88v-2.27a3.24,3.24,0,0,1,1.15-2.4,4.07,4.07,0,0,1,5.18,0,3.24,3.24,0,0,1,1.15,2.4c0,.4,0,.67-.14.8s-.29.4-.43.4-.29.13-.58.13h-5.32v.8a2.19,2.19,0,0,0,.86,1.87,3.36,3.36,0,0,0,2.3.67,4.09,4.09,0,0,0,1.3-.14,2.75,2.75,0,0,0,.72-.4.56.56,0,0,1,.43-.13c.14,0,.29,0,.29.13s.14.14.14.27-.29.53-.86.8a4.89,4.89,0,0,1-2,.4,4.29,4.29,0,0,1-3-.93A3,3,0,0,1,155.48,476.88Zm1-1.6h4.32c.43,0,.72,0,.86-.14a.67.67,0,0,0,.29-.53,2.68,2.68,0,0,0-.72-1.73,2.6,2.6,0,0,0-1.87-.8,2.85,2.85,0,0,0-1.87.66,2.29,2.29,0,0,0-.87,1.74v.8Z" transform="translate(-44.75 -115.66)"/><path class="cls-29" d="M164.55,476.88v-2.14a3.24,3.24,0,0,1,1.15-2.4,3.69,3.69,0,0,1,5.18,0,3.24,3.24,0,0,1,1.15,2.4v2.14a3.24,3.24,0,0,1-1.15,2.4,3.69,3.69,0,0,1-5.18,0A2.8,2.8,0,0,1,164.55,476.88Zm1,0a2.53,2.53,0,0,0,.87,1.86,2.58,2.58,0,0,0,1.87.8,2.37,2.37,0,0,0,1.87-.8,2.34,2.34,0,0,0,.86-1.86v-2.14a2.29,2.29,0,0,0-.86-1.73,2.64,2.64,0,0,0-1.87-.8,2.4,2.4,0,0,0-1.87.8,2.9,2.9,0,0,0-.87,1.73Z" transform="translate(-44.75 -115.66)"/><path class="cls-29" d="M178.5,479.81V467c0-.27.15-.4.43-.4h7.2c.28,0,.43.13.43.4s0,.27-.15.27-.14.13-.28.13h-6.62v5.47h3.16c.15,0,.29,0,.29.13.15.13.15.13.15.27s-.15.4-.44.4h-3.16v5.46h6.62c.14,0,.28,0,.28.14a.38.38,0,0,1,.15.26c0,.27-.15.4-.43.4h-7.2C178.65,480.21,178.5,480.08,178.5,479.81Z" transform="translate(-44.75 -115.66)"/><path class="cls-29" d="M188.57,479.81V466.34c0-.13,0-.26.15-.26s.14-.14.28-.14a.56.56,0,0,1,.44.14c.14.13.14.13.14.26v13.47c0,.13,0,.13-.14.27a.49.49,0,0,1-.29.13s-.29,0-.29-.13S188.57,479.94,188.57,479.81Z" transform="translate(-44.75 -115.66)"/><path class="cls-29" d="M192,476.88v-2.27a3.24,3.24,0,0,1,1.15-2.4,4.07,4.07,0,0,1,5.18,0,3.28,3.28,0,0,1,1.15,2.4c0,.4,0,.67-.15.8s-.29.4-.43.4-.29.13-.57.13H193v.8a2.17,2.17,0,0,0,.87,1.87,3.33,3.33,0,0,0,2.3.67,4.06,4.06,0,0,0,1.29-.14,2.75,2.75,0,0,0,.72-.4.57.57,0,0,1,.43-.13c.15,0,.29,0,.29.13.15.14.15.14.15.27s-.29.53-.87.8a4.81,4.81,0,0,1-2,.4,4.27,4.27,0,0,1-3-.93A3,3,0,0,1,192,476.88Zm.86-1.6h4.31c.44,0,.72,0,.87-.14a.67.67,0,0,0,.29-.53,2.68,2.68,0,0,0-.72-1.73,2.6,2.6,0,0,0-1.87-.8,2.85,2.85,0,0,0-1.87.66,2.29,2.29,0,0,0-.87,1.74v.8Z" transform="translate(-44.75 -115.66)"/><path class="cls-29" d="M201.09,476.88v-2.14a3.19,3.19,0,0,1,1-2.53,3.65,3.65,0,0,1,2.87-.93,3.79,3.79,0,0,1,1.87.4c.58.26.72.53.72.8s0,.26-.14.26-.14.14-.29.14a.47.47,0,0,1-.29-.14,3.49,3.49,0,0,0-.72-.4,3,3,0,0,0-1.15-.13,3,3,0,0,0-2,.67,2.52,2.52,0,0,0-.72,1.86v2.14a2.52,2.52,0,0,0,.72,1.86,3.12,3.12,0,0,0,2.16.67,3.09,3.09,0,0,0,1.15-.13,3.78,3.78,0,0,0,.72-.4.53.53,0,0,1,.43-.14c.14,0,.29,0,.29.14s.14.13.14.26-.29.54-.86.8a4.43,4.43,0,0,1-2,.4,3.86,3.86,0,0,1-2.87-.93A3.19,3.19,0,0,1,201.09,476.88Z" transform="translate(-44.75 -115.66)"/><path class="cls-29" d="M209.58,477.54v-10c0-.13,0-.26.14-.26s.15-.14.29-.14.29,0,.29.14.14.13.14.26v3.87h2.73c.15,0,.15,0,.29.13s.15.14.15.27,0,.13-.15.27-.14.13-.29.13h-2.73v5.33a1.7,1.7,0,0,0,.43,1.34,2.5,2.5,0,0,0,1.58.4H213c.14,0,.29,0,.29.13s.14.13.14.27,0,.26-.14.26-.15.14-.29.14h-.58C210.58,480.21,209.58,479.28,209.58,477.54Z" transform="translate(-44.75 -115.66)"/><path class="cls-29" d="M215.33,479.81v-8c0-.27.15-.4.43-.4s.29,0,.29.13.15.14.15.27v.93a3.49,3.49,0,0,1,1-1.06,3.23,3.23,0,0,1,1.73-.4h.72c.14,0,.29,0,.29.13s.14.13.14.27,0,.26-.14.26-.15.14-.29.14h-.72a2.84,2.84,0,0,0-2.73,2.8v4.93c0,.13,0,.13-.15.27a.47.47,0,0,1-.29.13s-.28,0-.28-.13S215.33,479.94,215.33,479.81Z" transform="translate(-44.75 -115.66)"/><path class="cls-29" d="M220.94,476.88v-2.14a3.24,3.24,0,0,1,1.15-2.4,3.69,3.69,0,0,1,5.18,0,3.24,3.24,0,0,1,1.15,2.4v2.14a3.24,3.24,0,0,1-1.15,2.4,3.69,3.69,0,0,1-5.18,0A2.82,2.82,0,0,1,220.94,476.88Zm1,0a2.55,2.55,0,0,0,.86,1.86,2.6,2.6,0,0,0,1.87.8,2.37,2.37,0,0,0,1.87-.8,2.32,2.32,0,0,0,.87-1.86v-2.14a2.27,2.27,0,0,0-.87-1.73,2.63,2.63,0,0,0-1.87-.8,2.4,2.4,0,0,0-1.87.8,2.89,2.89,0,0,0-.86,1.73Zm1.15-8.27c0-.13,0-.27.14-.27l2.16-1.2h.15c.14,0,.14,0,.28.14s.15.13.15.26-.15.27-.29.4l-2,1.07h-.15c-.14,0-.29,0-.29-.13A.49.49,0,0,1,223.1,468.61Z" transform="translate(-44.75 -115.66)"/><path class="cls-29" d="M230.58,479.81v-8c0-.27.15-.4.43-.4s.29,0,.29.13.15.14.15.27v.93a3.49,3.49,0,0,1,1-1.06,3.05,3.05,0,0,1,1.59-.4,3.73,3.73,0,0,1,2.58,1.06,3.1,3.1,0,0,1,1,2.4v5.07c0,.27-.14.4-.57.4s-.44-.13-.44-.4v-5.07a2.26,2.26,0,0,0-.86-1.73,2.63,2.63,0,0,0-1.87-.8,3.18,3.18,0,0,0-1.87.67,2.23,2.23,0,0,0-.72,1.86v5.07c0,.13,0,.13-.14.27a.49.49,0,0,1-.29.13s-.29,0-.29-.13Z" transform="translate(-44.75 -115.66)"/><path class="cls-29" d="M240.08,467.94c0-.13.14-.26.29-.4s.28-.13.57-.13a1,1,0,0,1,.58.13c.14.14.28.27.28.4a1,1,0,0,1-.28.54.79.79,0,0,1-.58.26,1.12,1.12,0,0,1-.57-.26C240.22,468.21,240.08,468.08,240.08,467.94Zm.29,11.87v-8c0-.27.14-.4.43-.4s.57.13.57.4v8c0,.13,0,.13-.14.27a.49.49,0,0,1-.29.13s-.29,0-.29-.13S240.37,479.94,240.37,479.81Z" transform="translate(-44.75 -115.66)"/><path class="cls-29" d="M243.67,476.88v-2.14a3.19,3.19,0,0,1,1-2.53,3.67,3.67,0,0,1,2.88-.93,3.79,3.79,0,0,1,1.87.4c.57.26.72.53.72.8s0,.26-.15.26-.14.14-.28.14a.45.45,0,0,1-.29-.14,3.49,3.49,0,0,0-.72-.4,3.09,3.09,0,0,0-1.15-.13,3,3,0,0,0-2,.67,2.51,2.51,0,0,0-.71,1.86v2.14a2.51,2.51,0,0,0,.71,1.86,3.16,3.16,0,0,0,2.16.67,3.06,3.06,0,0,0,1.15-.13,3.49,3.49,0,0,0,.72-.4.54.54,0,0,1,.43-.14c.15,0,.29,0,.29.14.15.13.15.13.15.26s-.29.54-.87.8a4.39,4.39,0,0,1-2,.4,3.87,3.87,0,0,1-2.88-.93A3.19,3.19,0,0,1,243.67,476.88Z" transform="translate(-44.75 -115.66)"/><path class="cls-29" d="M251.73,476.88v-2.14a3.24,3.24,0,0,1,1.15-2.4,3.69,3.69,0,0,1,5.18,0,3.24,3.24,0,0,1,1.15,2.4v2.14a3.24,3.24,0,0,1-1.15,2.4,3.69,3.69,0,0,1-5.18,0A2.82,2.82,0,0,1,251.73,476.88Zm1,0a2.55,2.55,0,0,0,.86,1.86,2.6,2.6,0,0,0,1.87.8,2.37,2.37,0,0,0,1.87-.8,2.32,2.32,0,0,0,.87-1.86v-2.14a2.27,2.27,0,0,0-.87-1.73,2.63,2.63,0,0,0-1.87-.8,2.4,2.4,0,0,0-1.87.8,2.89,2.89,0,0,0-.86,1.73Z" transform="translate(-44.75 -115.66)"/><path class="cls-29" d="M465.52,451h0L469.84,438a.58.58,0,0,1,.57-.4c.29,0,.43.13.58.4l4.31,12.93h0c0,.13,0,.13-.14.27a.56.56,0,0,1-.43.13.71.71,0,0,1-.43-.27l-1-2.93h-5.76l-1,2.93c0,.14-.15.27-.43.27a.58.58,0,0,1-.44-.13C465.66,451.28,465.52,451.15,465.52,451Zm2.3-3.73H473l-2.59-8Z" transform="translate(-44.75 -115.66)"/><path class="cls-29" d="M475.59,442.88c0-.13,0-.27.14-.27s.29-.13.44-.13.28.13.43.27l2.88,7.2,2.73-7.2a.74.74,0,0,1,.43-.27.56.56,0,0,1,.43.13c.15.14.15.14.15.27V443l-3.17,8-.43,1.07a3,3,0,0,0-.43.93l-.58,1.07c-.14.27-.43.53-.57.8a3.91,3.91,0,0,1-.87.67,2,2,0,0,1-.86.13c-.29,0-.43-.13-.43-.4s.14-.4.29-.4c1.15,0,2.15-1.33,2.87-3.87l-3.31-8A.13.13,0,0,1,475.59,442.88Z" transform="translate(-44.75 -115.66)"/><path class="cls-29" d="M484.65,448.08V443c0-.13,0-.13.15-.26a.45.45,0,0,1,.29-.14c.14,0,.28,0,.28.14s.15.13.15.26v5.07a2.09,2.09,0,0,0,.86,1.73,2.6,2.6,0,0,0,1.87.8,2.37,2.37,0,0,0,1.87-.8,2.24,2.24,0,0,0,.86-1.73V443c0-.13,0-.13.15-.26a.45.45,0,0,1,.29-.14c.14,0,.28,0,.28.14.15.13.15.13.15.26v5.07a3.24,3.24,0,0,1-1.15,2.4,3.67,3.67,0,0,1-5.18,0A4.5,4.5,0,0,1,484.65,448.08Z" transform="translate(-44.75 -115.66)"/><path class="cls-29" d="M494.29,448.08V446a3.07,3.07,0,0,1,1-2.4,3.61,3.61,0,0,1,2.59-.94,3.12,3.12,0,0,1,1.58.4,2.45,2.45,0,0,1,1,1.07v-6.53c0-.14,0-.27.14-.27s.15-.13.44-.13c.14,0,.28,0,.28.13.15.13.15.13.15.27V451c0,.14,0,.27-.15.27s-.14.13-.28.13-.29,0-.29-.13-.15-.13-.15-.27v-.93a2.79,2.79,0,0,1-1.15,1.07,3.12,3.12,0,0,1-1.58.4,3.4,3.4,0,0,1-2.45-1.07A2.82,2.82,0,0,1,494.29,448.08Zm1,0a2.57,2.57,0,0,0,.86,1.87,2.66,2.66,0,0,0,1.87.8,3.16,3.16,0,0,0,1.87-.67q.87-.79.87-1.2v-2.8a2.35,2.35,0,0,0-.87-1.87,2.49,2.49,0,0,0-1.87-.66,2.62,2.62,0,0,0-1.87.8,2.27,2.27,0,0,0-.86,1.73Z" transform="translate(-44.75 -115.66)"/><path class="cls-29" d="M503.65,449a2.16,2.16,0,0,1,1.15-2,8.39,8.39,0,0,1,3.45-.53h1.15V446a2.64,2.64,0,0,0-.58-1.87,2.2,2.2,0,0,0-1.87-.8,4.33,4.33,0,0,0-1.43.27,5.75,5.75,0,0,0-.72.26c-.15,0-.29,0-.29-.13a.46.46,0,0,1-.15-.4c0-.27.29-.4.87-.53a7.33,7.33,0,0,1,1.72-.27,3.24,3.24,0,0,1,2.59,1.07,3.87,3.87,0,0,1,.87,2.53V451c0,.14,0,.27-.15.27s-.14.13-.28.13-.29,0-.29-.13-.15-.13-.15-.27v-.93a4.08,4.08,0,0,1-3,1.47,3.26,3.26,0,0,1-2-.67A1.87,1.87,0,0,1,503.65,449Zm.86,0a1.25,1.25,0,0,0,.57,1.2,2.58,2.58,0,0,0,1.44.4,4,4,0,0,0,2-.66,1.47,1.47,0,0,0,.86-1.34v-1.33H507a3.44,3.44,0,0,0-1.15.27c-.43.13-.72.26-.86.53A1.16,1.16,0,0,0,504.51,449Z" transform="translate(-44.75 -115.66)"/><path class="cls-29" d="M512.85,451v-8c0-.26.15-.4.43-.4s.29,0,.29.14.15.13.15.26V444a3.64,3.64,0,0,1,1-1.07,3.23,3.23,0,0,1,1.73-.4h.72c.14,0,.29,0,.29.13s.14.14.14.27,0,.27-.14.27-.15.13-.29.13h-.72a2.63,2.63,0,0,0-1.87.8,2.59,2.59,0,0,0-.86,2V451c0,.14,0,.14-.15.27a.47.47,0,0,1-.29.13c-.14,0-.28,0-.28-.13S512.85,451.15,512.85,451Z" transform="translate(-44.75 -115.66)"/><path class="cls-29" d="M522.78,449a2.16,2.16,0,0,1,1.15-2,8.39,8.39,0,0,1,3.45-.53h1.15V446a2.69,2.69,0,0,0-.57-1.87,2.21,2.21,0,0,0-1.87-.8,4.34,4.34,0,0,0-1.44.27,6.64,6.64,0,0,0-.72.26c-.14,0-.29,0-.29-.13a.48.48,0,0,1-.14-.4c0-.27.29-.4.86-.53a7.41,7.41,0,0,1,1.73-.27,3.27,3.27,0,0,1,2.59,1.07,3.91,3.91,0,0,1,.86,2.53V451c0,.14,0,.27-.14.27s-.15.13-.29.13-.29,0-.29-.13-.14-.13-.14-.27v-.93a4.08,4.08,0,0,1-3,1.47,3.29,3.29,0,0,1-2-.67A1.87,1.87,0,0,1,522.78,449Zm.86,0a1.26,1.26,0,0,0,.58,1.2,2.53,2.53,0,0,0,1.44.4,4,4,0,0,0,2-.66,1.47,1.47,0,0,0,.86-1.34v-1.33h-2.44a3.44,3.44,0,0,0-1.15.27,1.34,1.34,0,0,0-.87.53A1.19,1.19,0,0,0,523.64,449Z" transform="translate(-44.75 -115.66)"/><path class="cls-29" d="M532.28,451V437.55c0-.14,0-.27.14-.27s.14-.13.29-.13a.57.57,0,0,1,.43.13c.14.13.14.13.14.27V451c0,.14,0,.14-.14.27a.49.49,0,0,1-.29.13c-.14,0-.29,0-.29-.13S532.28,451.15,532.28,451Z" transform="translate(-44.75 -115.66)"/><path class="cls-29" d="M540.33,451v-12.8c0-.26.15-.4.43-.4h3.6a4.11,4.11,0,0,1,2.88.94,3.76,3.76,0,0,1,1.15,2.93V442a3.57,3.57,0,0,1-1.15,2.93,4.24,4.24,0,0,1-3,.93h-3V451c0,.27-.14.4-.43.4S540.33,451.28,540.33,451Zm1-6.13h3a3.17,3.17,0,0,0,2.3-.8,3,3,0,0,0,.87-2.27v-.26a2.8,2.8,0,0,0-.87-2.27,3.17,3.17,0,0,0-2.3-.8h-3Z" transform="translate(-44.75 -115.66)"/><path class="cls-29" d="M550.69,451V437.55c0-.14,0-.27.14-.27s.15-.13.29-.13a.55.55,0,0,1,.43.13c.15.13.15.13.15.27V451c0,.14,0,.14-.15.27a.45.45,0,0,1-.28.13c-.15,0-.29,0-.29-.13S550.69,451.15,550.69,451Z" transform="translate(-44.75 -115.66)"/><path class="cls-29" d="M553.86,449a2.16,2.16,0,0,1,1.15-2,8.39,8.39,0,0,1,3.45-.53h1.15V446a2.64,2.64,0,0,0-.58-1.87,2.2,2.2,0,0,0-1.87-.8,4.33,4.33,0,0,0-1.43.27,5.75,5.75,0,0,0-.72.26c-.15,0-.29,0-.29-.13a.46.46,0,0,1-.15-.4c0-.27.29-.4.87-.53a7.33,7.33,0,0,1,1.72-.27,3.24,3.24,0,0,1,2.59,1.07,3.87,3.87,0,0,1,.87,2.53V451c0,.14,0,.27-.15.27s-.14.13-.28.13-.29,0-.29-.13-.15-.13-.15-.27v-.93a4.08,4.08,0,0,1-3,1.47,3.26,3.26,0,0,1-2-.67A1.87,1.87,0,0,1,553.86,449Zm1,0a1.26,1.26,0,0,0,.58,1.2,2.53,2.53,0,0,0,1.44.4,4,4,0,0,0,2-.66,1.47,1.47,0,0,0,.86-1.34v-1.33h-2.44a3.44,3.44,0,0,0-1.15.27,1.34,1.34,0,0,0-.87.53C554.86,448.35,554.86,448.61,554.86,449Z" transform="translate(-44.75 -115.66)"/><path class="cls-29" d="M563.21,451v-8c0-.26.14-.4.43-.4s.29,0,.29.14.14.13.14.26V444a3.81,3.81,0,0,1,1-1.07,3,3,0,0,1,1.58-.4,3.72,3.72,0,0,1,2.59,1.07,3.07,3.07,0,0,1,1,2.4V451c0,.27-.15.4-.44.4s-.43-.13-.43-.4V446a2.28,2.28,0,0,0-.86-1.74,2.64,2.64,0,0,0-1.87-.8,3.18,3.18,0,0,0-1.87.67,2.22,2.22,0,0,0-.72,1.87V451c0,.14,0,.14-.14.27a.49.49,0,0,1-.29.13c-.15,0-.29,0-.29-.13S563.21,451.15,563.21,451Z" transform="translate(-44.75 -115.66)"/><path class="cls-29" d="M572.56,448.08v-2.27a3.24,3.24,0,0,1,1.15-2.4,4.07,4.07,0,0,1,5.18,0,3.24,3.24,0,0,1,1.15,2.4c0,.4,0,.67-.14.8s-.29.4-.44.4-.28.14-.57.14h-5.32v.8a2.14,2.14,0,0,0,.86,1.86,3.3,3.3,0,0,0,2.3.67,4.46,4.46,0,0,0,1.3-.13,3.65,3.65,0,0,0,.71-.4.56.56,0,0,1,.44-.14c.14,0,.28,0,.28.14s.15.13.15.26-.29.54-.87.8a4.81,4.81,0,0,1-2,.4,4.24,4.24,0,0,1-3-.93A2.83,2.83,0,0,1,572.56,448.08Zm1-1.6h4.31c.43,0,.72,0,.86-.13a.68.68,0,0,0,.29-.54,2.7,2.7,0,0,0-.72-1.73,2.4,2.4,0,0,0-1.87-.8,2.85,2.85,0,0,0-1.87.67,2.27,2.27,0,0,0-.86,1.73v.8Z" transform="translate(-44.75 -115.66)"/><path class="cls-29" d="M582.05,448.75v-10c0-.14,0-.27.15-.27s.14-.13.29-.13.28,0,.28.13.15.13.15.27v3.86h2.73c.14,0,.14,0,.29.14s.14.13.14.26,0,.14-.14.27-.15.13-.29.13h-2.73v5.34a1.68,1.68,0,0,0,.43,1.33,2.42,2.42,0,0,0,1.58.4h.43c.15,0,.29,0,.29.13s.14.14.14.27,0,.27-.14.27-.14.13-.29.13h-.28C583.06,451.41,582.05,450.48,582.05,448.75Z" transform="translate(-44.75 -115.66)"/><path class="cls-29" d="M587.09,449a2.16,2.16,0,0,1,1.15-2,8.39,8.39,0,0,1,3.45-.53h1.15V446a2.69,2.69,0,0,0-.57-1.87,2.21,2.21,0,0,0-1.87-.8,4.34,4.34,0,0,0-1.44.27,6.64,6.64,0,0,0-.72.26c-.14,0-.29,0-.29-.13a.48.48,0,0,1-.14-.4c0-.27.29-.4.86-.53a7.41,7.41,0,0,1,1.73-.27,3.27,3.27,0,0,1,2.59,1.07,3.91,3.91,0,0,1,.86,2.53V451c0,.14,0,.27-.14.27s-.15.13-.29.13-.29,0-.29-.13-.14-.13-.14-.27v-.93a4.1,4.1,0,0,1-3,1.47,3.29,3.29,0,0,1-2-.67A2.19,2.19,0,0,1,587.09,449Zm1,0a1.25,1.25,0,0,0,.57,1.2,2.25,2.25,0,0,0,1.44.4,4,4,0,0,0,2-.66,1.48,1.48,0,0,0,.87-1.34v-1.33h-2.45a3.44,3.44,0,0,0-1.15.27c-.43.13-.72.26-.86.53A1.16,1.16,0,0,0,588.1,449Z" transform="translate(-44.75 -115.66)"/><path class="cls-29" d="M659.17,282.5V269.7c0-.27.14-.4.43-.4h3.6a4.08,4.08,0,0,1,2.87.93,3.77,3.77,0,0,1,1.15,2.93v.27a3.57,3.57,0,0,1-1.15,2.93,4.23,4.23,0,0,1-3,.94h-3v5.2c0,.26-.14.4-.43.4S659.17,282.76,659.17,282.5Zm1-6.14h3a3.16,3.16,0,0,0,2.3-.8,2.82,2.82,0,0,0,.86-2.26V273a2.84,2.84,0,0,0-.86-2.27,3.2,3.2,0,0,0-2.3-.8h-3Z" transform="translate(-44.75 -115.66)"/><path class="cls-29" d="M669.24,282.5v-8c0-.27.14-.4.43-.4s.29,0,.29.13.14.13.14.27v.93a3.81,3.81,0,0,1,1-1.07,3.33,3.33,0,0,1,1.73-.4h.71c.15,0,.29,0,.29.14s.15.13.15.26,0,.27-.15.27-.14.13-.29.13h-.71a2.84,2.84,0,0,0-2.74,2.8v4.94c0,.13,0,.13-.14.26a.47.47,0,0,1-.29.14c-.14,0-.29,0-.29-.14S669.24,282.63,669.24,282.5Z" transform="translate(-44.75 -115.66)"/><path class="cls-29" d="M674.71,279.56v-2.13a3.24,3.24,0,0,1,1.15-2.4,3.67,3.67,0,0,1,5.18,0,3.28,3.28,0,0,1,1.15,2.4v2.13A3.24,3.24,0,0,1,681,282a3.67,3.67,0,0,1-5.18,0A3.21,3.21,0,0,1,674.71,279.56Zm1,0a2.53,2.53,0,0,0,.87,1.87,2.63,2.63,0,0,0,1.87.8,2.42,2.42,0,0,0,1.87-.8,2.36,2.36,0,0,0,.86-1.87v-2.13a2.27,2.27,0,0,0-.86-1.73,2.6,2.6,0,0,0-1.87-.8,2.37,2.37,0,0,0-1.87.8,2.25,2.25,0,0,0-.87,1.73Z" transform="translate(-44.75 -115.66)"/><path class="cls-29" d="M684.34,280.23v-10c0-.13,0-.27.15-.27s.14-.13.29-.13.28,0,.28.13c.15.14.15.14.15.27v3.87h2.73c.15,0,.15,0,.29.13s.14.13.14.27,0,.13-.14.26-.14.14-.29.14h-2.73v5.33a1.66,1.66,0,0,0,.43,1.33,2.42,2.42,0,0,0,1.58.4h.58c.14,0,.29,0,.29.14s.14.13.14.26,0,.27-.14.27-.15.13-.29.13h-.58C685.35,282.9,684.34,282,684.34,280.23Z" transform="translate(-44.75 -115.66)"/><path class="cls-29" d="M689.52,279.56V277.3a3.24,3.24,0,0,1,1.15-2.4,4,4,0,0,1,5.18,0,3.21,3.21,0,0,1,1.15,2.4c0,.4,0,.66-.14.8s-.29.4-.43.4-.29.13-.58.13h-5.32v.8a2.19,2.19,0,0,0,.86,1.87,3.37,3.37,0,0,0,2.31.66,4.36,4.36,0,0,0,1.29-.13,1.55,1.55,0,0,0,.72-.4.56.56,0,0,1,.43-.13c.15,0,.29,0,.29.13s.14.13.14.27-.28.53-.86.8a5,5,0,0,1-2,.4,4.26,4.26,0,0,1-3-.94A2.86,2.86,0,0,1,689.52,279.56Zm1-1.6h4.32c.43,0,.72,0,.86-.13a.69.69,0,0,0,.29-.53,2.73,2.73,0,0,0-.72-1.74,2.64,2.64,0,0,0-1.87-.8,2.85,2.85,0,0,0-1.87.67,2.27,2.27,0,0,0-.87,1.73v.8Z" transform="translate(-44.75 -115.66)"/><path class="cls-29" d="M698.73,279.56v-2.13a3.17,3.17,0,0,1,1-2.53,3.66,3.66,0,0,1,2.88-.94,3.93,3.93,0,0,1,1.87.4c.43.27.72.54.72.8s0,.27-.15.27-.14.13-.29.13a.45.45,0,0,1-.28-.13,3.56,3.56,0,0,0-.72-.4,3.09,3.09,0,0,0-1.15-.13,3,3,0,0,0-2,.66,2.54,2.54,0,0,0-.72,1.87v2.13a2.54,2.54,0,0,0,.72,1.87,3.12,3.12,0,0,0,2.16.67,2.88,2.88,0,0,0,1.15-.14,2.75,2.75,0,0,0,.72-.4.56.56,0,0,1,.43-.13c.15,0,.29,0,.29.13s.14.14.14.27-.28.53-.86.8a4.41,4.41,0,0,1-2,.4,3.91,3.91,0,0,1-2.88-.93A3.2,3.2,0,0,1,698.73,279.56Z" transform="translate(-44.75 -115.66)"/><path class="cls-29" d="M706.79,279.56v-2.13a3.17,3.17,0,0,1,1-2.53,3.65,3.65,0,0,1,2.87-.94,3.9,3.9,0,0,1,1.87.4c.58.27.72.54.72.8s0,.27-.14.27-.15.13-.29.13a.49.49,0,0,1-.29-.13,2.53,2.53,0,0,0-1.87-.53,3,3,0,0,0-2,.66,2.54,2.54,0,0,0-.72,1.87v2.13a2.54,2.54,0,0,0,.72,1.87,3.12,3.12,0,0,0,2.16.67A2.88,2.88,0,0,0,712,282a2.93,2.93,0,0,0,.72-.4.55.55,0,0,1,.43-.13c.14,0,.29,0,.29.13s.14.14.14.27-.29.53-.86.8a4.43,4.43,0,0,1-2,.4,3.89,3.89,0,0,1-2.87-.93A3.2,3.2,0,0,1,706.79,279.56Z" transform="translate(-44.75 -115.66)"/><path class="cls-29" d="M715,270.63c0-.13.14-.27.29-.4s.28-.13.57-.13a1,1,0,0,1,.58.13c.14.13.29.27.29.4a1,1,0,0,1-.29.53.76.76,0,0,1-.58.27,1.07,1.07,0,0,1-.57-.27C715.13,270.9,715,270.76,715,270.63Zm.29,11.87v-8c0-.27.14-.4.43-.4s.43.13.43.4v8c0,.13,0,.13-.14.26a.47.47,0,0,1-.29.14c-.15,0-.29,0-.29-.14S715.28,282.63,715.28,282.5Z" transform="translate(-44.75 -115.66)"/><path class="cls-29" d="M718.59,279.56v-2.13a3.24,3.24,0,0,1,1.15-2.4,3.67,3.67,0,0,1,5.18,0,3.28,3.28,0,0,1,1.15,2.4v2.13a3.24,3.24,0,0,1-1.15,2.4,3.67,3.67,0,0,1-5.18,0A3.21,3.21,0,0,1,718.59,279.56Zm1,0a2.53,2.53,0,0,0,.87,1.87,2.63,2.63,0,0,0,1.87.8,2.42,2.42,0,0,0,1.87-.8,2.36,2.36,0,0,0,.86-1.87v-2.13a2.27,2.27,0,0,0-.86-1.73,2.6,2.6,0,0,0-1.87-.8,2.37,2.37,0,0,0-1.87.8,2.25,2.25,0,0,0-.87,1.73Zm1.15-8.26c0-.14,0-.27.15-.27l2.16-1.2h.14c.14,0,.14,0,.29.13s.14.14.14.27-.14.27-.29.4l-2,1.07h-.15c-.14,0-.28,0-.28-.14S720.74,271.43,720.74,271.3Z" transform="translate(-44.75 -115.66)"/><path class="cls-29" d="M728.22,282.5v-8c0-.27.15-.4.44-.4s.28,0,.28.13.15.13.15.27v.93a3.78,3.78,0,0,1,1-1.07,3.18,3.18,0,0,1,1.59-.4,3.74,3.74,0,0,1,2.59,1.07,3.09,3.09,0,0,1,1,2.4v5.07c0,.26-.14.4-.43.4s-.43-.14-.43-.4v-5.07a2.27,2.27,0,0,0-.86-1.73,2.6,2.6,0,0,0-1.87-.8,3.15,3.15,0,0,0-1.87.66,2.23,2.23,0,0,0-.72,1.87v5.07c0,.13,0,.13-.15.26a.43.43,0,0,1-.28.14c-.15,0-.29,0-.29-.14S728.22,282.63,728.22,282.5Z" transform="translate(-44.75 -115.66)"/><path class="cls-29" d="M661.47,302v-2.13a3.1,3.1,0,0,1,1-2.4,3.6,3.6,0,0,1,2.59-.93,3,3,0,0,1,1.58.4,2.44,2.44,0,0,1,1,1.06v-6.4c0-.13,0-.26.14-.26s.14-.14.43-.14.29,0,.29.14.14.13.14.26V305c0,.13,0,.26-.14.26s-.14.14-.29.14-.29,0-.29-.14-.14-.13-.14-.26v-.94a2.92,2.92,0,0,1-1.15,1.07,3.46,3.46,0,0,1-1.58.4,3.4,3.4,0,0,1-2.45-1.07A3.22,3.22,0,0,1,661.47,302Zm1,0a2.53,2.53,0,0,0,.86,1.87,2.64,2.64,0,0,0,1.87.8,3.18,3.18,0,0,0,1.87-.67c.58-.53.86-.93.86-1.2V300a2.31,2.31,0,0,0-.86-1.86,2.47,2.47,0,0,0-1.87-.67,2.64,2.64,0,0,0-1.87.8,2.26,2.26,0,0,0-.86,1.73Z" transform="translate(-44.75 -115.66)"/><path class="cls-29" d="M671,302v-2.27a3.22,3.22,0,0,1,1.16-2.39,4,4,0,0,1,5.17,0,3.22,3.22,0,0,1,1.16,2.39c0,.4,0,.67-.15.8s-.29.4-.43.4-.29.14-.58.14H672v.8a2.17,2.17,0,0,0,.86,1.86,3.32,3.32,0,0,0,2.31.67,4.36,4.36,0,0,0,1.29-.13,3.49,3.49,0,0,0,.72-.4.53.53,0,0,1,.43-.14c.15,0,.29,0,.29.14s.14.13.14.26-.28.54-.86.8a4.81,4.81,0,0,1-2,.4,4.21,4.21,0,0,1-3-.93A2.84,2.84,0,0,1,671,302Zm1-1.6h4.32c.43,0,.72,0,.86-.13a.71.71,0,0,0,.29-.53,2.73,2.73,0,0,0-.72-1.74,2.64,2.64,0,0,0-1.87-.8,2.85,2.85,0,0,0-1.87.67,2.26,2.26,0,0,0-.86,1.73v.8Z" transform="translate(-44.75 -115.66)"/><path class="cls-29" d="M683.77,302.89a2.16,2.16,0,0,1,1.15-2,8.39,8.39,0,0,1,3.45-.53h1.15v-.53A2.7,2.7,0,0,0,689,298a2.21,2.21,0,0,0-1.87-.8,4.61,4.61,0,0,0-1.44.27,5.46,5.46,0,0,0-.72.27c-.14,0-.29,0-.29-.14a.47.47,0,0,1-.14-.4c0-.26.29-.4.86-.53a8,8,0,0,1,1.73-.27,3.27,3.27,0,0,1,2.59,1.07,3.93,3.93,0,0,1,.86,2.53v4.93c0,.14,0,.27-.14.27s-.15.13-.29.13-.29,0-.29-.13-.14-.13-.14-.27V304a4.1,4.1,0,0,1-3,1.47,3.29,3.29,0,0,1-2-.67A2.19,2.19,0,0,1,683.77,302.89Zm1,0a1.25,1.25,0,0,0,.57,1.2,2.25,2.25,0,0,0,1.44.4,4,4,0,0,0,2-.66,1.48,1.48,0,0,0,.87-1.34v-1.33h-2.45a3.44,3.44,0,0,0-1.15.27c-.43.13-.72.26-.86.53A1.16,1.16,0,0,0,684.78,302.89Zm1-9.19c0-.14,0-.27.15-.27l2.16-1.2h.14c.14,0,.14,0,.29.13s.14.14.14.27-.14.27-.29.4l-2,1.07h-.15c-.14,0-.28,0-.28-.14A.44.44,0,0,1,685.78,293.7Z" transform="translate(-44.75 -115.66)"/><path class="cls-29" d="M693.12,304.89v-8c0-.27.14-.4.43-.4s.29,0,.29.13.14.13.14.27v.93a3.81,3.81,0,0,1,1-1.07,3.33,3.33,0,0,1,1.73-.4h.72c.14,0,.28,0,.28.14s.15.13.15.26,0,.27-.15.27-.14.13-.28.13h-.72A2.85,2.85,0,0,0,694,300v4.93c0,.14,0,.14-.14.27a.47.47,0,0,1-.29.13c-.14,0-.29,0-.29-.13S693.12,305,693.12,304.89Z" transform="translate(-44.75 -115.66)"/><path class="cls-29" d="M699.59,304.89V291.43c0-.13,0-.27.15-.27s.14-.13.29-.13a.57.57,0,0,1,.43.13c.14.14.14.14.14.27v6.4a3.81,3.81,0,0,1,1-1.07,3.14,3.14,0,0,1,1.58-.4,3.61,3.61,0,0,1,2.59.94,3.07,3.07,0,0,1,1,2.4v2.13a3.1,3.1,0,0,1-1,2.4,3.69,3.69,0,0,1-2.44,1.06,3.05,3.05,0,0,1-1.59-.4,4.16,4.16,0,0,1-1.15-1.06v.93c0,.13,0,.13-.14.27s-.15.13-.29.13-.29,0-.29-.13S699.59,305,699.59,304.89Zm1-2.26c0,.4.29.8.86,1.2a2.52,2.52,0,0,0,1.88.66,2.62,2.62,0,0,0,1.87-.8,2.34,2.34,0,0,0,.86-1.86v-2.14a2.31,2.31,0,0,0-.86-1.73,2.66,2.66,0,0,0-1.87-.8,3.21,3.21,0,0,0-1.88.67,2.35,2.35,0,0,0-.86,1.86Z" transform="translate(-44.75 -115.66)"/><path class="cls-29" d="M708.8,302v-2.13a3.24,3.24,0,0,1,1.15-2.4,3.67,3.67,0,0,1,5.18,0,3.24,3.24,0,0,1,1.15,2.4V302a3.24,3.24,0,0,1-1.15,2.4,3.67,3.67,0,0,1-5.18,0A3.24,3.24,0,0,1,708.8,302Zm1,0a2.57,2.57,0,0,0,.86,1.87,2.64,2.64,0,0,0,1.87.8,2.4,2.4,0,0,0,1.87-.8,2.35,2.35,0,0,0,.87-1.87v-2.13a2.25,2.25,0,0,0-.87-1.73,2.58,2.58,0,0,0-1.87-.8,2.37,2.37,0,0,0-1.87.8,2.27,2.27,0,0,0-.86,1.73Z" transform="translate(-44.75 -115.66)"/><path class="cls-29" d="M718.59,304.89V291.43c0-.13,0-.27.14-.27s.14-.13.29-.13a.57.57,0,0,1,.43.13c.14.14.14.14.14.27v13.46c0,.14,0,.14-.14.27a.49.49,0,0,1-.29.13c-.14,0-.29,0-.29-.13S718.59,305,718.59,304.89Z" transform="translate(-44.75 -115.66)"/><path class="cls-29" d="M722,302v-2.27a3.2,3.2,0,0,1,1.15-2.39,4,4,0,0,1,5.18,0,3.2,3.2,0,0,1,1.15,2.39c0,.4,0,.67-.14.8s-.29.4-.44.4-.28.14-.57.14h-5.32v.8a2.14,2.14,0,0,0,.86,1.86,4.19,4.19,0,0,0,2.3.67,4.46,4.46,0,0,0,1.3-.13,3.65,3.65,0,0,0,.71-.4.56.56,0,0,1,.44-.14c.14,0,.28,0,.28.14s.15.13.15.26-.29.54-.87.8a4.81,4.81,0,0,1-2,.4,4.24,4.24,0,0,1-3-.93A2.83,2.83,0,0,1,722,302Zm1-1.6h4.31c.43,0,.72,0,.86-.13a.68.68,0,0,0,.29-.53,2.73,2.73,0,0,0-.72-1.74,2.63,2.63,0,0,0-1.87-.8,2.85,2.85,0,0,0-1.87.67,2.29,2.29,0,0,0-.86,1.73v.8Z" transform="translate(-44.75 -115.66)"/><path class="cls-29" d="M731,304.09c0-.13,0-.13.14-.26s.15-.14.29-.14.14,0,.29.14l.43.26c.14.14.43.14.72.27a3.09,3.09,0,0,0,1.15.13,3.26,3.26,0,0,0,1.73-.4,1.17,1.17,0,0,0,.57-1.06,1.25,1.25,0,0,0-.57-1.2,2.79,2.79,0,0,0-1.3-.67c-.43-.13-1-.27-1.44-.4a6.06,6.06,0,0,1-1.29-.66,1.51,1.51,0,0,1-.58-1.34,2.7,2.7,0,0,1,.72-1.73,3,3,0,0,1,2.3-.8,7.41,7.41,0,0,1,1.73.27c.57.13.86.4.86.53s0,.27-.14.27-.15.13-.29.13-.29-.13-.72-.27a4.63,4.63,0,0,0-1.44-.26,1.87,1.87,0,0,0-1.58.53c-.29.4-.58.67-.58,1.07a.88.88,0,0,0,.58.93,2.76,2.76,0,0,0,1.3.53c.43.14,1,.27,1.43.4a3.33,3.33,0,0,1,1.3.8,2.64,2.64,0,0,1,.57,1.47,2.08,2.08,0,0,1-.86,1.73,3.83,3.83,0,0,1-2.3.67,5.27,5.27,0,0,1-2.16-.4A.64.64,0,0,1,731,304.09Z" transform="translate(-44.75 -115.66)"/></svg>