<?xml version="1.0" encoding="utf-8"?>
<!-- Generator: Adobe Illustrator 22.0.0, SVG Export Plug-In . SVG Version: 6.00 Build 0)  -->
<svg version="1.1" id="Layer_1" xmlns="http://www.w3.org/2000/svg" xmlns:xlink="http://www.w3.org/1999/xlink" x="0px" y="0px"
	 viewBox="0 0 423 77" style="enable-background:new 0 0 423 77;" xml:space="preserve">
<style type="text/css">
	.st0{fill:#D1D3D4;}
	.st1{fill:#EC008C;}
	.st2{fill:#808285;}
	.st3{fill:#BF6027;}
	.st4{fill:#FFFFFF;}
</style>
<rect x="282" y="4.8" class="st0" width="0.8" height="67.4"/>
<path d="M102.8,67.9c0-2,1.5-3.6,3.6-3.6c1.3,0,2,0.4,2.7,1.1l-0.8,0.9c-0.6-0.5-1.1-0.9-1.9-0.9c-1.3,0-2.3,1.1-2.3,2.4
	c0,1.4,1,2.5,2.3,2.5c0.9,0,1.4-0.3,2-0.9l0.8,0.8c-0.7,0.8-1.5,1.2-2.8,1.2C104.3,71.5,102.8,69.9,102.8,67.9"/>
<rect x="110.5" y="64.4" width="1.2" height="6.9"/>
<path d="M113.4,68.4v-4h1.2v3.9c0,1.3,0.7,2,1.8,2s1.7-0.7,1.7-1.9v-4h1.2v3.9c0,2.1-1.2,3.1-3,3.1
	C114.6,71.5,113.4,70.4,113.4,68.4"/>
<path d="M121,64.4h2.6c2.2,0,3.7,1.5,3.7,3.4s-1.5,3.5-3.7,3.5H121V64.4z M123.6,70.2c1.5,0,2.4-1,2.4-2.3c0-1.4-0.9-2.4-2.4-2.4
	h-1.4v4.7C122.2,70.2,123.6,70.2,123.6,70.2z"/>
<path d="M130.7,64.4h1.1l3,7h-1.3l-0.7-1.7h-3.3l-0.7,1.7h-1.2L130.7,64.4L130.7,64.4z M132.5,68.6l-1.2-2.8l-1.2,2.8H132.5z"/>
<path d="M136.1,64.4h2.6c2.2,0,3.7,1.5,3.7,3.4s-1.5,3.5-3.7,3.5h-2.6V64.4z M138.7,70.2c1.5,0,2.4-1,2.4-2.3c0-1.4-0.9-2.4-2.4-2.4
	h-1.4v4.7C137.3,70.2,138.7,70.2,138.7,70.2z"/>
<path d="M146.8,64.4h2.6c2.2,0,3.7,1.5,3.7,3.4s-1.5,3.5-3.7,3.5h-2.6V64.4z M149.3,70.2c1.5,0,2.4-1,2.4-2.3c0-1.4-0.9-2.4-2.4-2.4
	H148v4.7C148,70.2,149.3,70.2,149.3,70.2z"/>
<polygon points="154.5,64.4 159.6,64.4 159.6,65.5 155.7,65.5 155.7,67.3 159.2,67.3 159.2,68.4 155.7,68.4 155.7,70.3 159.7,70.3 
	159.7,71.4 154.5,71.4 "/>
<polygon points="164.1,64.4 165.4,64.4 167.5,67.7 169.6,64.4 170.9,64.4 170.9,71.4 169.7,71.4 169.7,66.4 167.5,69.7 167.4,69.7 
	165.3,66.4 165.3,71.4 164.1,71.4 "/>
<path d="M172.7,64.4h5.1v1.1h-3.9v1.8h3.5v1.1h-3.5v1.9h4v1.1h-5.2L172.7,64.4L172.7,64.4z M175.6,62.2l1.1,0.5l-1.2,1.1h-0.9
	L175.6,62.2L175.6,62.2z"/>
<polygon points="181.3,67.8 178.9,64.4 180.3,64.4 182,66.9 183.7,64.4 185.1,64.4 182.7,67.8 185.2,71.4 183.8,71.4 182,68.7 
	180.2,71.4 178.8,71.4 "/>
<rect x="186.6" y="64.4" width="1.2" height="6.9"/>
<path d="M189.3,67.9c0-2,1.5-3.6,3.6-3.6c1.3,0,2,0.4,2.7,1.1l-0.8,0.9c-0.6-0.5-1.1-0.9-1.9-0.9c-1.3,0-2.3,1.1-2.3,2.4
	c0,1.4,1,2.5,2.3,2.5c0.9,0,1.4-0.3,2-0.9l0.8,0.8c-0.7,0.8-1.5,1.2-2.8,1.2C190.8,71.5,189.3,69.9,189.3,67.9"/>
<path d="M196.4,67.9c0-2,1.5-3.6,3.6-3.6s3.6,1.6,3.6,3.6c0,1.9-1.5,3.6-3.6,3.6S196.4,69.9,196.4,67.9 M202.4,67.9
	c0-1.4-1-2.5-2.4-2.5s-2.3,1.1-2.3,2.4s1,2.5,2.4,2.5S202.4,69.3,202.4,67.9"/>
<path d="M73.8,54.5c-6.7,0-12.9-2.6-17.4-7.3c-4.4-4.7-6.9-11-6.9-17.8v-0.1c0-14.1,10.7-25.2,24.4-25.2c8.7,0,13.8,3.1,18.9,7.8
	l0.3,0.3L90,15.4l-0.3-0.3C83.4,9,78.1,8.2,73.8,8.2c-5.4,0-10.4,2.2-14.1,6.1c-3.6,3.9-5.7,9.2-5.7,14.9v0.1
	c0,11.9,8.7,21.1,19.8,21.1c6.2,0,10.9-2.1,16.2-7.3l0.3-0.3l3,2.9L93,46C85.5,53.5,79.1,54.5,73.8,54.5"/>
<path d="M119.2,53.8h-16.4V4.9h16.4c15,0,25.9,10.2,25.9,24.3v0.1c0,6.7-2.6,12.9-7.2,17.4C133.2,51.3,126.5,53.8,119.2,53.8
	 M107.2,49.6h12c6.3,0,11.7-2,15.6-5.9c3.7-3.6,5.8-8.7,5.8-14.3v-0.1c0-5.6-2.1-10.6-5.8-14.3c-3.9-3.9-9.3-6-15.6-6h-12
	C107.2,9,107.2,49.6,107.2,49.6z"/>
<polygon class="st1" points="154.7,4.9 166.3,4.9 179.1,25.6 192,4.9 203.6,4.9 203.6,53.8 192.9,53.8 192.9,21.8 179.1,42.8 
	178.9,42.8 165.2,22.1 165.2,53.8 154.7,53.8 "/>
<polygon class="st1" points="229.1,28.9 212.7,4.9 225.3,4.9 235.6,20.7 245.9,4.9 258.1,4.9 241.8,28.8 258.8,53.8 246.3,53.8 
	235.3,37 224.2,53.8 212,53.8 "/>
<path class="st2" d="M362.1,6.6c4.7,0,8.5,3.8,8.5,8.5v45.7c0,4.7-3.8,8.5-8.5,8.5h-45.6c-4.7,0-8.5-3.8-8.5-8.5V15
	c0-4.7,3.8-8.5,8.5-8.5L362.1,6.6 M362.1,4.2h-45.6c-6,0-10.9,4.9-10.9,10.9v45.7c0,6,4.9,10.9,10.9,10.9h45.6
	c6,0,10.9-4.9,10.9-10.9V15C373,9,368.1,4.2,362.1,4.2"/>
<polygon class="st2" points="321,14 321.3,42.1 329.2,41.4 331.1,20.2 "/>
<path class="st2" d="M323.9,15.5c0,0,0.6-1.3,0.9-1.7s1.4-0.8,1.4-0.8s1.3,2.2,1.6,2.3c0.3,0.1,0.3,3.1,0.3,3.1L323.9,15.5
	L323.9,15.5z"/>
<path class="st2" d="M326.1,13.5l-0.8,3l-1.4-1l1-2.1C324.9,13.4,326.1,12.8,326.1,13.5"/>
<polygon class="st2" points="317.1,42.2 321.3,42.2 321.1,14 316.7,17.1 "/>
<path class="st3" d="M325.3,35.6c0.2,0.1,0.2,0.4,0,0.5s-0.4-0.1-0.4-0.3c-0.1-0.2,0-0.5,0.1-0.7c0-0.3,0-0.6-0.2-0.9
	s-0.4-0.5-0.7-0.6s-0.6,0.1-0.8,0.3c-0.4,0.3-0.5,0.8-0.2,1.2h0.1c0-0.3,0.5-0.7,0.7-0.4c0.1,0.2,0.1,0.5,0.1,0.7
	c0,0.3,0.1,0.6,0.3,0.8c0.4,0.4,1,0.7,1.3,0.1c0.1-0.1,0.1-0.3,0-0.4C325.4,35.5,325.2,35.5,325.3,35.6"/>
<path class="st4" d="M325,36.5c-0.3,0-0.6-0.2-0.8-0.5s-0.3-0.5-0.3-0.9c0-0.2,0.1-0.5-0.1-0.6l-0.1-0.1c-0.2,0-0.4,0.3-0.4,0.4v0.1
	H323c-0.1-0.2-0.2-0.4-0.2-0.6c0-0.3,0.2-0.5,0.4-0.7c0.2-0.1,0.5-0.3,0.7-0.3h0.2c0.3,0.1,0.6,0.4,0.8,0.7s0.2,0.6,0.2,1v0.2
	c0,0.2-0.1,0.3,0,0.5c0,0.2,0.1,0.3,0.3,0.3c0.1,0,0.1-0.1,0.1-0.2s0-0.1-0.1-0.2c-0.1,0-0.1-0.1-0.1-0.1s0-0.1,0.1-0.1
	s0.1,0,0.2,0.1c0.2,0.1,0.2,0.4,0.1,0.5C325.4,36.4,325.2,36.5,325,36.5 M323.7,34.2c0.1,0,0.2,0,0.2,0.1c0.2,0.2,0.1,0.5,0.1,0.7
	c0,0.3,0,0.6,0.3,0.8c0.2,0.2,0.5,0.4,0.7,0.4s0.3-0.1,0.4-0.3c0,0,0.1-0.1,0.1-0.2v0.1c0,0.1-0.1,0.2-0.2,0.3h-0.1
	c-0.2,0-0.4-0.2-0.4-0.4v-0.5V35c0-0.3,0-0.6-0.1-0.9c-0.2-0.3-0.4-0.5-0.7-0.6h-0.1c-0.2,0-0.5,0.1-0.6,0.3
	c-0.2,0.1-0.3,0.4-0.4,0.6c0,0.2,0,0.3,0.1,0.5C323.1,34.5,323.4,34.2,323.7,34.2"/>
<path class="st2" d="M325.4,35.5c0.2,0.1,0.2,0.4,0,0.5s-0.4-0.1-0.4-0.3c-0.1-0.2,0-0.5,0.1-0.7c0-0.3,0-0.6-0.2-0.9
	c-0.1-0.3-0.4-0.5-0.7-0.6s-0.6,0.1-0.8,0.3c-0.4,0.3-0.5,0.8-0.2,1.2h0.1c0-0.2,0.5-0.7,0.7-0.4c0.1,0.2,0.1,0.5,0.1,0.7
	c0,0.3,0.1,0.6,0.3,0.8c0.4,0.4,1,0.7,1.3,0.1c0.1-0.1,0.1-0.3,0-0.4C325.5,35.5,325.4,35.5,325.4,35.5"/>
<path class="st4" d="M325.1,36.4c-0.3,0-0.6-0.2-0.8-0.5S324,35.4,324,35c0-0.2,0.1-0.5-0.1-0.6l-0.1-0.1c-0.2,0-0.4,0.3-0.5,0.4
	v0.1H323c-0.1-0.2-0.2-0.4-0.2-0.6c0-0.3,0.2-0.5,0.4-0.7c0.2-0.1,0.5-0.3,0.7-0.3h0.2c0.3,0.1,0.6,0.4,0.8,0.7s0.2,0.6,0.2,1v0.2
	c0,0.2-0.1,0.3,0,0.5c0,0.2,0.1,0.3,0.3,0.3c0.1,0,0.1-0.1,0.1-0.2s0-0.1-0.1-0.2c-0.1,0-0.1-0.1-0.1-0.1s0-0.1,0.1-0.1
	s0.1,0,0.2,0.1c0.2,0.1,0.2,0.4,0.1,0.5C325.6,36.4,325.3,36.4,325.1,36.4 M323.8,34.2c0.1,0,0.2,0,0.2,0.1c0.2,0.2,0.1,0.5,0.1,0.7
	c0,0.3,0,0.6,0.3,0.8c0.2,0.2,0.5,0.4,0.7,0.4s0.3-0.1,0.5-0.3c0,0,0.1-0.1,0.1-0.3v0.1c0,0.1-0.1,0.2-0.2,0.3
	c-0.3,0.1-0.5-0.2-0.5-0.4v-0.5v-0.2c0-0.3,0-0.6-0.1-0.9c-0.2-0.3-0.4-0.5-0.7-0.6h-0.1c-0.2,0-0.5,0.1-0.6,0.3
	c-0.2,0.1-0.3,0.4-0.4,0.6c0,0.2,0,0.3,0.1,0.5C323.3,34.5,323.6,34.2,323.8,34.2"/>
<path class="st2" d="M350.5,21.9c0.1,2.4-1.7,4.4-4,4.5s-4.2-1.8-4.3-4.2s1.7-4.4,4-4.5S350.4,19.5,350.5,21.9"/>
<path class="st4" d="M346.4,26.5c-2.3,0-4.2-1.9-4.2-4.3c0-1.2,0.4-2.3,1.1-3.2c0.8-0.9,1.8-1.4,3-1.4c2.4-0.1,4.3,1.9,4.4,4.3
	c0,1.2-0.4,2.3-1.1,3.2c-0.8,0.9-1.8,1.4-3,1.4L346.4,26.5 M346.3,17.7h-0.1c-1.1,0-2.1,0.5-2.8,1.3s-1.1,1.9-1.1,3.1
	c0.1,2.4,1.9,4.2,4.2,4.2c1.1,0,2.1-0.5,2.8-1.3s1.1-1.9,1.1-3.1C350.4,19.6,348.6,17.7,346.3,17.7"/>
<path class="st2" d="M351.5,21.4c0.1,2.4-1.7,4.4-4,4.5s-4.2-1.8-4.3-4.2s1.7-4.4,4-4.5S351.4,19,351.5,21.4"/>
<path class="st4" d="M347.3,26c-2.3,0-4.2-1.9-4.2-4.3c-0.1-2.5,1.8-4.5,4.1-4.6h0.1c2.3,0,4.2,1.9,4.2,4.3c0,1.2-0.4,2.3-1.1,3.2
	c-0.8,0.9-1.8,1.4-3,1.4L347.3,26 M347.3,17.3h-0.1c-2.2,0.1-4,2-3.9,4.4s1.9,4.2,4.2,4.2c1.1,0,2.1-0.5,2.8-1.3s1.1-1.9,1.1-3.1
	C351.3,19.1,349.5,17.3,347.3,17.3"/>
<path class="st2" d="M344.7,27.1c0.6,0.3,4.5-0.7,5-0.8s2.3-0.2,2.3-0.2s-3.8,8.7-3.7,14.3c-1.6,0.4-4-1.4-4-1.4l-2-10.2L344.7,27.1
	L344.7,27.1z"/>
<path class="st4" d="M347.7,40.6c-1.5,0-3.5-1.4-3.5-1.4l-2-10.3l2.5-1.8c0.1,0.1,0.8,0.2,4.8-0.8h0.1c0.5-0.1,2.2-0.2,2.3-0.2h0.1
	l-0.1,0.1c0,0.1-3.8,8.7-3.7,14.2v0.1h-0.1C348.1,40.6,347.9,40.6,347.7,40.6 M344.3,39.1c0.2,0.2,2,1.4,3.4,1.4h0.4
	c0-5.2,3.2-13.1,3.7-14.1c-0.4,0-1.8,0.1-2.2,0.2h-0.1c-2.9,0.7-4,0.8-4.5,0.8h-0.3l-2.4,1.7C342.3,29.1,344.3,39.1,344.3,39.1z"/>
<path class="st4" d="M344.7,27.1c0,0,0.6,11.6,3.5,13.3c-2.1,0.1-3.9-1.2-4-1.4c-1.8-4.5-2-10.2-2-10.2S344.7,27.1,344.7,27.1z"/>
<path class="st4" d="M348,40.5c-2.1,0-3.8-1.2-3.9-1.4c-1.8-4.5-2-10.2-2-10.3l2.6-1.8v0.1c0,0.1,0.7,11.6,3.5,13.3l0.2,0.1h-0.3
	H348 M342.3,28.9c0,0.5,0.3,5.9,2,10.2c0.1,0.1,1.7,1.3,3.7,1.3c-2.6-2-3.3-11.7-3.4-13.1L342.3,28.9L342.3,28.9z"/>
<polygon class="st2" points="331.5,34.5 332.9,35.4 334.5,34.1 334.5,34.6 332.5,36.2 331.2,35.3 "/>
<path class="st4" d="M332.5,36.3l-1.5-1l0.4-0.9l1.3,0.8l1.7-1.3v0.7L332.5,36.3z M331.3,35.2l1.2,0.9l1.9-1.5v-0.3l-1.5,1.2
	l-1.3-0.8L331.3,35.2L331.3,35.2z"/>
<path class="st2" d="M339.4,31.2l2.6,1l2.9-2.1l0.2,0.9c0,0-1.8,2.5-2.6,2.6c-0.8,0.2-1.5-0.3-1.8-0.2
	C340.3,33.5,339.4,31.2,339.4,31.2"/>
<path class="st4" d="M342.2,33.7c-0.4,0-0.7-0.1-1-0.1c-0.2-0.1-0.4-0.1-0.5-0.1c-0.4,0-1.1-1.8-1.4-2.3l-0.1-0.2l2.7,1.1l3-2.2
	l0.2,1.1c-0.1,0.1-1.8,2.5-2.6,2.6C342.4,33.7,342.3,33.7,342.2,33.7 M340.8,33.3c0.1,0,0.3,0,0.5,0.1c0.3,0.1,0.6,0.1,0.9,0.1h0.3
	c0.7-0.1,2.3-2.3,2.5-2.5l-0.2-0.8l-2.9,2.1l-2.4-1c0.4,1,1,2,1.1,2L340.8,33.3"/>
<path class="st2" d="M323,35.3c0,1-0.7,1.9-1.7,1.9s-1.8-0.8-1.8-1.8s0.7-1.9,1.7-1.9S323,34.3,323,35.3"/>
<path class="st4" d="M321.3,37.3c-1,0-1.8-0.8-1.8-1.9s0.8-2,1.8-2s1.9,0.8,1.9,1.9S322.4,37.3,321.3,37.3z M321.3,33.6
	c-1,0-1.7,0.8-1.7,1.8s0.8,1.7,1.7,1.7s1.7-0.8,1.6-1.8C322.9,34.4,322.2,33.6,321.3,33.6"/>
<path class="st2" d="M323.5,35.1c0,1-0.7,1.9-1.7,1.9s-1.8-0.8-1.8-1.8s0.7-1.9,1.7-1.9C322.6,33.3,323.4,34.1,323.5,35.1"/>
<path class="st4" d="M321.7,37.1c-1,0-1.8-0.8-1.8-1.9s0.8-2,1.8-2s1.9,0.8,1.9,1.9c0,0.5-0.2,1-0.5,1.4
	C322.7,36.9,322.2,37.1,321.7,37.1 M321.7,33.4c-1,0-1.7,0.8-1.7,1.8s0.8,1.7,1.7,1.7c0.4,0,0.9-0.2,1.2-0.6
	c0.3-0.3,0.5-0.8,0.5-1.3C323.4,34.2,322.6,33.4,321.7,33.4"/>
<path class="st2" d="M321.3,37.5L318,44l8-0.7l-3.2-6.2C322.8,37,322.4,38.1,321.3,37.5"/>
<path class="st4" d="M317.9,44l3.4-6.6h0.1c0.2,0.1,0.4,0.2,0.6,0.2c0.6,0,0.8-0.6,0.8-0.6l0.1-0.2l3.4,6.5
	C326.3,43.3,317.9,44,317.9,44z M321.3,37.6l-3.2,6.2l7.7-0.7l-3.1-5.9c-0.1,0.2-0.4,0.6-0.8,0.6C321.7,37.8,321.5,37.7,321.3,37.6"
	/>
<path class="st4" d="M321.3,37.5c0,0-2.5,5.8,4.7,5.7c-1.9-3-3.2-6.2-3.2-6.2S322.2,38.1,321.3,37.5"/>
<path class="st4" d="M325.8,43.3c-2.2,0-3.7-0.6-4.5-1.7c-1.1-1.7-0.1-4-0.1-4.1v-0.1l0.1,0.1c0.2,0.1,0.3,0.2,0.5,0.2
	c0.5,0,0.8-0.6,0.8-0.6l0.1-0.2l0.1,0.2c0,0,1.3,3.2,3.2,6.2l0.1,0.1H326C325.9,43.3,325.9,43.3,325.8,43.3 M321.3,37.6
	c-0.2,0.4-0.8,2.4,0.1,3.9c0.7,1.1,2.2,1.6,4.4,1.6c-1.6-2.6-2.8-5.3-3.1-5.9c-0.1,0.2-0.4,0.6-0.9,0.6
	C321.7,37.8,321.5,37.7,321.3,37.6"/>
<polygon class="st4" points="323.3,38.4 325.2,38.8 326.4,37.6 326.6,38 325.2,39.6 323.7,39.4 "/>
<path class="st2" d="M325.2,39.7l-1.5-0.2l-0.5-1.2l1.9,0.4l1.3-1.2l0.3,0.5L325.2,39.7L325.2,39.7z M323.8,39.3l1.3,0.2l1.4-1.6
	l-0.1-0.2l-1.2,1.1l-1.7-0.3L323.8,39.3L323.8,39.3z"/>
<path class="st2" d="M318.1,37.9c-0.1,0.3,0.1,0.5,0.3,0.4c0.3-0.1,0.3-0.4,0.2-0.6c-0.1-0.3-0.4-0.5-0.5-0.7
	c-0.2-0.3-0.4-0.6-0.4-1s0.1-0.8,0.3-1.1c0.2-0.2,0.7-0.3,1-0.2c0.6,0,1,0.4,1,1l-0.1,0.1c-0.2-0.2-0.9-0.4-1,0
	c0,0.3,0.2,0.6,0.4,0.8c0.3,0.3,0.3,0.6,0.3,1c-0.1,0.6-0.5,1.3-1.3,0.9c-0.2-0.1-0.3-0.3-0.2-0.5C318,37.9,318.1,37.8,318.1,37.9"
	/>
<path class="st4" d="M318.6,38.7c-0.2,0-0.3,0-0.5-0.1s-0.4-0.3-0.3-0.6c0.1-0.1,0.2-0.2,0.3-0.2v0.1c-0.1,0.1-0.1,0.2,0,0.2
	c0,0.1,0.2,0.1,0.3,0.1s0.1-0.1,0.1-0.1v-0.4c-0.1-0.2-0.2-0.3-0.3-0.5L318,37c-0.2-0.3-0.4-0.6-0.4-1.1c0-0.4,0.1-0.9,0.3-1.1
	s0.6-0.3,0.8-0.3h0.2c0.3,0,0.6,0.2,0.8,0.4s0.2,0.4,0.2,0.7l-0.2,0.1v-0.1c-0.1-0.1-0.3-0.2-0.5-0.2c-0.1,0-0.3,0-0.3,0.2
	s0.2,0.5,0.3,0.7c0.3,0.3,0.3,0.7,0.3,1.1C319.4,38.1,319.1,38.7,318.6,38.7 M318,38.1c-0.1,0.2,0.2,0.3,0.2,0.3
	c0.1,0.1,0.3,0.1,0.4,0.1c0.4,0,0.7-0.5,0.8-0.9s0-0.7-0.2-0.9s-0.4-0.5-0.4-0.8c0-0.2,0.2-0.3,0.5-0.3c0.2,0,0.5,0.1,0.6,0.2h0.1
	c0-0.2,0-0.4-0.2-0.6s-0.4-0.3-0.7-0.3h-0.2c-0.2,0-0.5,0-0.7,0.2s-0.3,0.6-0.3,1s0.2,0.7,0.4,1l0.2,0.2c0.1,0.2,0.3,0.3,0.4,0.5
	s0.1,0.3,0,0.5c0,0.1-0.1,0.2-0.2,0.2c-0.2,0-0.4,0-0.4-0.2C318,38.2,318,38.1,318,38.1"/>
<path class="st2" d="M318.1,37.6c-0.1,0.3,0,0.5,0.3,0.4s0.3-0.4,0.2-0.6c-0.1-0.3-0.4-0.5-0.5-0.7c-0.2-0.3-0.4-0.6-0.4-1
	s0.1-0.8,0.3-1.1c0.2-0.2,0.7-0.3,1-0.2c0.6,0,1,0.4,1,1l-0.1,0.1c-0.2-0.2-0.9-0.4-1,0c0,0.3,0.2,0.6,0.4,0.8
	c0.2,0.3,0.3,0.6,0.3,1c-0.1,0.6-0.5,1.3-1.3,0.9c-0.2-0.1-0.3-0.3-0.2-0.5C318,37.6,318.1,37.5,318.1,37.6"/>
<path class="st4" d="M318.6,38.4c-0.1,0-0.3,0-0.5-0.1s-0.4-0.3-0.3-0.6c0.1-0.1,0.2-0.2,0.3-0.2v0.1c-0.1,0.1-0.1,0.2,0,0.2
	c0,0.1,0.2,0.1,0.3,0.1s0.1-0.1,0.1-0.1v-0.4c-0.1-0.2-0.2-0.3-0.3-0.5l-0.2-0.2c-0.2-0.3-0.4-0.6-0.4-1.1c0-0.4,0.1-0.9,0.3-1.1
	s0.6-0.3,0.8-0.3h0.2c0.3,0,0.6,0.2,0.8,0.4s0.2,0.4,0.2,0.7l-0.2,0.1v-0.1c-0.1-0.1-0.3-0.2-0.5-0.2c-0.1,0-0.3,0-0.3,0.2
	s0.2,0.5,0.3,0.7c0.3,0.3,0.3,0.7,0.3,1.1C319.4,37.9,319.1,38.4,318.6,38.4 M318,37.8c-0.1,0.2,0.2,0.3,0.2,0.3
	c0.1,0.1,0.3,0.1,0.4,0.1c0.4,0,0.7-0.5,0.8-0.9s0-0.7-0.2-0.9s-0.4-0.5-0.4-0.8c0-0.2,0.2-0.3,0.5-0.3c0.2,0,0.5,0.1,0.6,0.2h0.1
	c0-0.2,0-0.4-0.2-0.5c-0.2-0.2-0.4-0.3-0.7-0.3h-0.2c-0.2,0-0.5,0-0.7,0.2s-0.3,0.6-0.3,1s0.2,0.7,0.4,1l0.2,0.2
	c0.1,0.2,0.3,0.3,0.4,0.5s0.1,0.3,0,0.5c0,0.1-0.1,0.2-0.2,0.2c-0.2,0-0.4,0-0.4-0.2C318,37.9,318,37.9,318,37.8"/>
<path class="st2" d="M331,31.7c0,1.4-1,2.5-2.3,2.6c-1.3,0-2.4-1.1-2.5-2.4c0-1.4,1-2.5,2.3-2.6S330.9,30.3,331,31.7"/>
<path class="st4" d="M328.6,34.3c-1.3,0-2.4-1.1-2.5-2.5c0-0.7,0.2-1.4,0.7-1.9s1.1-0.8,1.7-0.8c1.4,0,2.5,1.1,2.5,2.5
	C331.1,33.1,330,34.3,328.6,34.3 M328.6,29.3C328.6,29.3,328.5,29.3,328.6,29.3c-0.7,0-1.3,0.3-1.7,0.8s-0.6,1.1-0.6,1.7
	c0,1.4,1.1,2.4,2.4,2.4s2.3-1.2,2.2-2.5C330.8,30.3,329.8,29.3,328.6,29.3"/>
<path class="st2" d="M331.5,31.4c0,1.4-1,2.5-2.3,2.6c-1.3,0-2.4-1.1-2.5-2.4c0-1.4,1-2.5,2.3-2.6C330.4,28.9,331.5,30,331.5,31.4"
	/>
<path class="st4" d="M329.2,34.1c-1.3,0-2.4-1.1-2.5-2.5c0-1.4,1-2.6,2.4-2.7c1.4,0,2.5,1.1,2.5,2.5c0,0.7-0.2,1.4-0.7,1.9
	C330.5,33.8,329.9,34,329.2,34.1 M329.1,29c-1.3,0-2.3,1.2-2.3,2.5c0,1.4,1.1,2.4,2.4,2.4c0.6,0,1.2-0.3,1.6-0.8s0.6-1.1,0.6-1.7
	C331.4,30.1,330.4,29,329.1,29"/>
<path class="st4" d="M327.6,34.7c0.3,0.1,2.6-0.4,2.9-0.5s1.3-0.1,1.3-0.1s-2.2,5-2.1,8.2c-0.9,0.2-2.3-0.8-2.3-0.8l-1.1-5.9
	L327.6,34.7L327.6,34.7z"/>
<path class="st4" d="M329.4,42.4c-0.9,0-2-0.8-2.1-0.8l-1.1-6l1.5-1.1h0.2c0.3,0,0.9-0.1,2.6-0.5h0.1c0.3-0.1,1.3-0.1,1.3-0.1h0.1
	l-0.1,0.1c0,0.1-2.2,5-2.1,8.2v0.1h-0.1C329.6,42.4,329.5,42.4,329.4,42.4 M327.4,41.5c0.2,0.1,1.2,0.8,1.9,0.8h0.2
	c0-2.9,1.8-7.3,2.1-8.1c-0.3,0-1,0-1.2,0.1h-0.1c-1.7,0.4-2.3,0.5-2.6,0.5h-0.2l-1.3,0.9C326.2,35.7,327.4,41.5,327.4,41.5z"/>
<path class="st2" d="M327.6,34.7c0,0,0.4,6.7,2,7.7c-1.2,0-2.2-0.7-2.3-0.8c-1-2.6-1.1-5.9-1.1-5.9L327.6,34.7z"/>
<path class="st4" d="M329.6,42.4c-1.2,0-2.2-0.7-2.3-0.8c-1-2.6-1.1-5.9-1.1-5.9l1.6-1.1v0.1c0,0.1,0.4,6.6,2,7.6l0.2,0.1
	L329.6,42.4L329.6,42.4z M326.3,35.7c0,0.4,0.2,3.4,1.1,5.8c0.1,0.1,0.9,0.7,2,0.7c-1.4-1.3-1.8-6.5-1.9-7.4L326.3,35.7z"/>
<path class="st4" d="M326.8,31.5c0,0,2.2,0.1,2.9-0.2s1-1.6,1.7-1c0.6,0.6-0.3-1.3-1.2-1.5C329.1,28.7,326.2,29.3,326.8,31.5"/>
<path class="st4" d="M327.7,31.6h-0.9h-0.1v-0.1c-0.2-0.6-0.1-1.2,0.3-1.7c0.7-0.8,2-1.1,2.7-1.1h0.4c0.8,0.1,1.5,1.4,1.5,1.7
	c0,0.1-0.1,0.1-0.1,0.1c-0.1,0-0.1,0-0.2-0.1s-0.2-0.1-0.3-0.1c-0.2,0-0.4,0.2-0.6,0.5c-0.2,0.2-0.4,0.5-0.7,0.6
	C329.3,31.6,328.7,31.6,327.7,31.6 M326.8,31.5h0.9c1,0,1.6-0.1,1.9-0.2c0.2-0.1,0.4-0.3,0.6-0.6s0.5-0.6,0.8-0.6
	c0.1,0,0.3,0.1,0.4,0.2l0.1,0.1c-0.1-0.3-0.7-1.3-1.4-1.4h-0.3c-0.7,0-2,0.3-2.6,1.1C326.8,30.4,326.7,30.9,326.8,31.5"/>
<path class="st2" d="M330.3,29.1c0,0-1.6-1.3-2.1-0.9c-0.5,0.3-3.8,0.6-1.9,3.3"/>
<path class="st4" d="M326.3,31.4c-0.5-0.7-0.7-1.4-0.5-1.9c0.3-0.8,1.3-1.1,1.9-1.3c0.2-0.1,0.4-0.1,0.5-0.2
	c0.5-0.3,2.1,0.8,2.2,0.9l-0.1,0.1c-0.6-0.5-1.7-1.1-2-0.9c-0.1,0.1-0.3,0.1-0.5,0.2c-0.6,0.2-1.6,0.5-1.8,1.2c-0.2,0.5,0,1,0.5,1.7
	C326.5,31.2,326.3,31.4,326.3,31.4z"/>
<path class="st2" d="M326.3,29.1c-0.3,0-1.3,1.3-0.1,2.8l0.5-0.8C326.7,31.1,326.7,29.1,326.3,29.1"/>
<path class="st4" d="M326.2,32.1c-0.9-1.1-0.7-2-0.5-2.4c0.2-0.3,0.4-0.6,0.6-0.6c0.5,0,0.5,1.6,0.5,2.1L326.2,32.1z M326.3,29.2
	c-0.1,0-0.3,0.2-0.5,0.5c-0.2,0.4-0.3,1.1,0.4,2.1l0.4-0.7C326.6,30.2,326.5,29.2,326.3,29.2"/>
<path class="st2" d="M339.3,26.7c0.1,1.7-1.2,3.2-2.9,3.2s-3-1.3-3.1-3.1c-0.1-1.7,1.2-3.2,2.9-3.2S339.3,24.9,339.3,26.7"/>
<path class="st2" d="M336.3,30c-1.7,0-3-1.4-3.1-3.1c0-0.9,0.3-1.7,0.8-2.3c0.6-0.6,1.3-1,2.1-1c1.7,0,3.1,1.3,3.2,3.1
	c0,0.9-0.3,1.7-0.8,2.3S337.2,30,336.3,30C336.4,30,336.4,30,336.3,30 M336.3,23.7c-0.9,0-1.6,0.4-2.1,1s-0.8,1.4-0.8,2.2
	c0.1,1.7,1.4,3,3,3c0.8,0,1.5-0.4,2-1s0.8-1.4,0.8-2.2C339.2,25,337.9,23.7,336.3,23.7"/>
<path class="st2" d="M340,26.4c0.1,1.7-1.2,3.2-2.9,3.2s-3-1.3-3.1-3.1c-0.1-1.7,1.2-3.2,2.9-3.2C338.6,23.2,340,24.6,340,26.4"/>
<path class="st4" d="M337,29.7c-1.7,0-3-1.4-3.1-3.1c-0.1-1.8,1.3-3.3,3-3.3c1.7-0.1,3.1,1.3,3.2,3.1c0,0.9-0.3,1.7-0.8,2.3
	C338.7,29.3,337.9,29.6,337,29.7C337.1,29.7,337.1,29.7,337,29.7 M337,23.4c-1.7,0-3,1.5-2.9,3.2c0,1.7,1.4,3,3,3c0.8,0,1.5-0.4,2-1
	s0.8-1.4,0.8-2.2C339.9,24.7,338.6,23.4,337,23.4"/>
<path class="st2" d="M336.8,23.7c0,0-0.3,4-3.7,5.1c-0.8,0.3,0.2,0,0-2.2C333,25.6,334.4,23,336.8,23.7"/>
<path class="st4" d="M332.7,29L332.7,29c-0.1-0.1-0.1-0.1,0-0.3c0.1-0.3,0.4-0.9,0.3-2.1c0-0.5,0.3-1.5,0.9-2.2
	c0.4-0.4,1.1-0.9,2-0.9c0.3,0,0.6,0,0.9,0.1h0.1v0.1c0,0-0.4,4.1-3.8,5.1H333C332.8,28.9,332.8,29,332.7,29 M335.9,23.7
	c-0.9,0-1.5,0.5-1.9,0.9c-0.6,0.7-0.9,1.6-0.9,2.1c0.1,1.2-0.2,1.9-0.3,2.1h0.1h0.1c3.1-0.9,3.6-4.4,3.7-4.9
	C336.4,23.7,336.2,23.7,335.9,23.7"/>
<path class="st2" d="M337.4,23.5c0,0-0.3,4-3.7,5.1c-0.8,0.3,0.2,0,0-2.2C333.6,25.3,335,22.7,337.4,23.5"/>
<path class="st4" d="M333.3,28.7c-0.1-0.1-0.1-0.2,0-0.3c0.1-0.3,0.4-0.9,0.3-2.1c0-0.5,0.3-1.5,0.9-2.2c0.4-0.4,1.1-0.9,2-0.9
	c0.3,0,0.6,0,0.9,0.1h0.1v0.1c0,0-0.4,4.1-3.8,5.1h-0.1C333.5,28.7,333.4,28.7,333.3,28.7 M336.5,23.4c-0.9,0-1.5,0.5-1.9,0.9
	c-0.6,0.7-0.9,1.6-0.9,2.1c0.1,1.2-0.2,1.9-0.3,2.1h0.1h0.1c3.1-0.9,3.6-4.4,3.7-4.9C337,23.4,336.8,23.4,336.5,23.4"/>
<path class="st2" d="M336.7,23.4c0,0,0.6,4,4,4.8c0.8,0.2-0.2,0-0.2-2.1C340.5,25,339,22.5,336.7,23.4"/>
<path class="st4" d="M341,28.4c0,0-0.1,0-0.2-0.1h-0.1c-3.5-0.8-4.1-4.9-4.1-4.9v-0.1h0.1c0.3-0.1,0.7-0.2,1-0.2
	c0.9,0,1.6,0.5,2,0.9c0.7,0.7,1,1.5,1,2.1c0,1.2,0.3,1.8,0.4,2C341.1,28.2,341.1,28.3,341,28.4C341.1,28.4,341,28.4,341,28.4
	L341,28.4z M336.7,23.5c0.1,0.5,0.8,4,4,4.7h0.1h0.1c-0.1-0.3-0.5-0.9-0.4-2.1c0-0.5-0.3-1.3-0.9-1.9c-0.4-0.4-1-0.8-1.9-0.8
	C337.3,23.3,337,23.4,336.7,23.5"/>
<path class="st2" d="M336.4,30.4l-5.6,10.9l13.6-1.3l-5.5-10.5C338.8,29.6,338.2,31.4,336.4,30.4"/>
<path class="st4" d="M330.6,41.4l5.7-11.1h0.1c0.4,0.2,0.7,0.3,1,0.3c1,0,1.3-1.1,1.3-1.1l0.1-0.2l5.6,10.8L330.6,41.4L330.6,41.4z
	 M336.4,30.5l-5.5,10.7l13.3-1.2l-5.4-10.2c-0.2,0.3-0.6,1-1.4,1C337.1,30.8,336.7,30.7,336.4,30.5"/>
<path class="st4" d="M336.4,30.4c0,0-4.2,9.8,8,9.7c-3.3-5.2-5.5-10.5-5.5-10.5S337.9,31.4,336.4,30.4"/>
<path class="st4" d="M344,40.1c-3.8,0-6.3-1-7.6-2.9c-1.9-2.9-0.2-6.9-0.2-6.9v-0.1l0.1,0.1c0.3,0.2,0.6,0.3,0.9,0.3
	c0.9,0,1.5-1.1,1.5-1.1l0.1-0.2l0.1,0.2c0,0.1,2.2,5.4,5.5,10.5l0.1,0.1h-0.1L344,40.1 M336.4,30.5c-0.2,0.6-1.5,4.1,0.2,6.7
	c1.3,1.9,3.8,2.8,7.6,2.8c-2.9-4.6-5-9.3-5.4-10.2c-0.2,0.3-0.7,1-1.5,1C337,30.8,336.7,30.7,336.4,30.5"/>
<path class="st2" d="M316,46.1c0,0,22.7-0.3,29.3-5.8c2.1-1.7,5.8-8.1,6.1-8.5c0.4-0.2,3.3-0.4,3.5,0.1c-0.2,0.4-5.2,6.8-5.5,7.1
	c-8.9,12-20.4,9.5-33.2,10.2L316,46.1L316,46.1z"/>
<path class="st4" d="M348.8,29.7c0.3,0.8,0.8,2.3,1,2.8c0.2,0.2,12.9-7.3,12.9-7.7c-0.4-0.3-1.9-2-2.6-2.6
	C358.8,23,349.6,29.4,348.8,29.7"/>
<path class="st2" d="M338.3,47.2c5.2-2.2,6-2.5,11-8.2c0.4-0.4,3.7-5,5-7c-0.8,0-3.5,0.6-4.6,0.6c1.3-0.9,10.2-6.4,12.9-7.7
	c0,1.1-0.1,6.9,0,8.3c-0.2-0.1-1-0.4-1.5-0.6c-5,5.6-7.8,8.7-9,9.7C348.3,46,344.2,46,338.3,47.2"/>
<path class="st2" d="M316.1,46.1l6.9-2.2c0,0,10.8,0.4,17.1-1c0.7-0.1,1.2-0.5,1.8-0.6c0.9-0.4,0.9-0.3,2.2-1.1
	c-0.7,0.5-1.5,1-2.4,1.5C338,44.5,331.8,45.9,316.1,46.1"/>
<path class="st2" d="M326.8,60.3c0,0.9,0.7,1.3,1.5,1.3c0.5,0,1.4-0.2,1.4-0.9s-1-0.9-2.1-1.1c-1-0.3-2.1-0.7-2.1-2
	c0-1.4,1.3-2.1,2.6-2.1c1.4,0,2.8,0.6,2.8,2.2h-1.5c0-0.8-0.6-1-1.4-1c-0.5,0-1,0.2-1,0.8c0,0.5,0.3,0.6,2.1,1
	c0.5,0.1,2.1,0.4,2.1,2c0,1.3-1,2.2-2.9,2.2c-1.5,0-3-0.8-3-2.5C325.4,60.3,326.8,60.3,326.8,60.3z"/>
<polygon class="st2" points="332.1,55.7 337.3,55.7 337.3,57 333.6,57 333.6,58.4 337,58.4 337,59.6 333.6,59.6 333.6,61.3 
	337.4,61.3 337.4,62.6 332.1,62.6 "/>
<polygon class="st2" points="338.4,55.7 343.3,55.7 343.3,57 339.9,57 339.9,58.6 342.8,58.6 342.8,59.7 339.9,59.7 339.9,62.6 
	338.4,62.6 "/>
<rect x="344.1" y="55.7" class="st2" width="1.5" height="6.9"/>
<polygon class="st2" points="347,55.7 348.5,55.7 351.4,60.3 351.4,60.3 351.4,55.7 352.9,55.7 352.9,62.6 351.3,62.6 348.5,58 
	348.4,58 348.4,62.6 347,62.6 "/>
</svg>
