<?xml version="1.0" encoding="utf-8"?>
<!-- Generator: Adobe Illustrator 21.0.0, SVG Export Plug-In . SVG Version: 6.00 Build 0)  -->
<svg version="1.1" id="Layer_1" xmlns="http://www.w3.org/2000/svg" xmlns:xlink="http://www.w3.org/1999/xlink" x="0px" y="0px"
	 viewBox="0 0 2489 285" style="enable-background:new 0 0 2489 285;" xml:space="preserve">
<style type="text/css">
	.st0{fill:#231F20;}
	.st1{fill:#EB008B;}
</style>
<path class="st0" d="M1352.6,241.2H1492V205h-96.6V44.1H1352v197.1H1352.6z M1174.1,241.2H1324V205h-106.5v-48.3h95.5v-33.5h-95.5
	V79.8h103.8V44.1h-147.1V241.2z M1032.5,77.6h33.5c20.3,0,38.4,4.9,38.4,29.6c0,25.3-18.1,29.6-38.4,29.6h-33.5V77.6z M989.1,241.2
	h43.4v-70.8h45.6c48.9,0,68.1-31.3,68.1-63.7S1127.5,43,1078.1,43h-88.9L989.1,241.2L989.1,241.2z M875.5,93L875.5,93l25.3,72.5
	h-51.1L875.5,93z M778.8,241.2h44.5l15.4-44.5h73.6l14.8,44.5h45L898.5,43.6h-44.5L778.8,241.2z M680,77.6h33.5
	c20.3,0,38.4,4.9,38.4,29.6c0,25.3-18.1,29.6-38.4,29.6H680V77.6z M636.1,241.2h43.4v-70.8H725c48.9,0,68.1-31.3,68.1-63.7
	S774.4,43,725,43h-88.9L636.1,241.2L636.1,241.2z M354.4,241.2h40.6V109.5h0.5L478,241.2h43.4V43.6h-40.6v132.9h-0.5L397.8,43.6H355
	v197.7H354.4z M273.2,241.2h43.4V43.6h-43.4V241.2z M81,175.9c-0.5,48.9,40.1,70.3,83.5,70.3c53.8,0,82.4-26.9,82.4-63.7
	c0-45-44.5-53.8-58.2-57.6c-49.4-12.6-58.7-14.8-58.7-30.2c0-16.5,15.9-22,30.2-22c20.9,0,37.3,6,39,30.2h42.3
	c0-45.6-38.4-63.7-79.1-63.7c-35.7,0-73.6,19.2-73.6,59.8c0,36.8,29.6,48.3,58.7,56c28.6,8.2,58.7,11.5,58.7,32.9
	c0,20.3-23.6,24.7-38.4,24.7c-23.6,0-43.4-9.9-43.4-36.2H81V175.9z"/>
<path class="st1" d="M2233.3,241.2h48.9l44.5-68.1l42.8,68.1h51.6L2351.8,138l63.7-94.4h-47.8l-40.1,63.1l-39-63.1h-50l63.7,93.9
	L2233.3,241.2z M2003.2,241.2h40.6V102.9h0.5l48.3,138.4h33.5l48.3-140h0.5v140h40.6V43.6h-60.9l-43.4,136.2h-0.5l-46.1-136.2h-60.9
	v197.7H2003.2z M1841.8,79.8h30.7c42.8,0,57.1,25.3,57.1,64.8c0,43.4-24.2,58.7-48.9,58.7h-39V79.8z M1798.4,241.2h85.1
	c60.4,0,89.5-42.8,89.5-99.9c0-65.9-38.4-97.7-89.5-97.7h-85.1V241.2z M1767.1,110c-5.5-45.6-41.7-70.8-85.1-70.8
	c-60.9,0-97.2,45.6-97.2,104.3c0,57.1,36.2,102.7,97.2,102.7c48.3,0,82.4-31.3,87.3-81.3H1727c-3.3,26.4-18.1,44.5-45,44.5
	c-39,0-53.8-33.5-53.8-66.4c0-34.6,14.8-67.5,53.8-67.5c21.4,0,40.1,14.8,42.8,34.6L1767.1,110L1767.1,110z"/>
</svg>
