<?xml version="1.0" encoding="utf-8"?>
<!-- Generator: Adobe Illustrator 21.0.0, SVG Export Plug-In . SVG Version: 6.00 Build 0)  -->
<svg version="1.1" id="Layer_1" xmlns="http://www.w3.org/2000/svg" xmlns:xlink="http://www.w3.org/1999/xlink" x="0px" y="0px"
	 viewBox="0 0 1264.4 223.5" style="enable-background:new 0 0 1264.4 223.5;" xml:space="preserve">
<style type="text/css">
	.st0{fill:#65A443;}
	.st1{fill:#B3D336;}
	.st2{fill:#B5782B;}
	.st3{fill:#E2E429;}
	.st4{fill:#81AD40;}
	.st5{fill:#8AA53C;}
</style>
<path class="st0" d="M1179.2,163.2h20.4l18.4-28.5l17.9,28.5h21.5l-28.8-43l26.5-39.4h-19.8l-16.8,26.3l-16.2-26.3h-20.9l26.5,39.1
	L1179.2,163.2z M1083.1,163.2h17v-57.8h0.3l20.1,57.8h14l20.1-58.4h0.3v58.4h17V80.8h-25.4l-18.2,56.7h-0.3l-19.3-56.7h-25.4v82.4
	H1083.1z M1015.8,95.9h12.8c17.9,0,23.7,10.6,23.7,27.1c0,18.2-10.1,24.6-20.4,24.6h-16.2V95.9z M997.6,163.2h35.5
	c25.1,0,37.4-17.9,37.4-41.6c0-27.4-15.9-40.8-37.4-40.8h-35.5V163.2z M984.8,108.4c-2.2-19-17.3-29.6-35.5-29.6
	c-25.4,0-40.5,19-40.5,43.6c0,23.7,15.1,42.7,40.5,42.7c20.1,0,34.4-13.1,36.3-33.8H968c-1.4,10.9-7.5,18.4-18.7,18.4
	c-16.2,0-22.3-14-22.3-27.6c0-14.5,6.1-28.2,22.3-28.2c8.9,0,16.8,6.1,17.9,14.5H984.8z M811.9,163.2H870v-15.1h-40.2v-67h-18.2
	v82.1H811.9z M737.3,163.2h62.6v-15.1h-44.4V128h39.9v-14h-39.9V95.9h43.3V80.8h-61.4V163.2z M678.4,94.8h14c8.4,0,15.9,2,15.9,12.3
	c0,10.6-7.5,12.3-15.9,12.3h-14V94.8z M660.3,163.2h18.2v-29.6h19c20.4,0,28.5-13.1,28.5-26.5s-7.8-26.5-28.5-26.5h-37.1V163.2z
	 M612.8,101.2L612.8,101.2l10.6,30.2h-21.2L612.8,101.2z M572.6,163.2H591l6.4-18.4h30.7l6.1,18.4H653l-30.7-82.4h-18.4L572.6,163.2
	z M531.2,94.8h14c8.4,0,15.9,2,15.9,12.3c0,10.6-7.5,12.3-15.9,12.3h-14V94.8z M513.1,163.2h18.2v-29.6h19
	c20.4,0,28.5-13.1,28.5-26.5s-7.8-26.5-28.5-26.5h-37.1V163.2z M395.5,163.2h17v-55h0.3l34.4,55h18.2V80.8h-17v55.3H448l-34.4-55.3
	h-17.9v82.4H395.5z M361.7,163.2h18.2V80.8h-18.2V163.2z M281.6,135.8c-0.3,20.4,16.8,29.3,34.9,29.3c22.3,0,34.4-11.2,34.4-26.5
	c0-18.7-18.4-22.3-24.3-24c-20.7-5.3-24.6-6.1-24.6-12.6c0-7,6.7-9.2,12.6-9.2c8.7,0,15.6,2.5,16.2,12.6h17.6
	c0-19-15.9-26.5-33-26.5c-14.8,0-30.7,8.1-30.7,24.9c0,15.4,12.3,20.1,24.6,23.5c12,3.4,24.6,4.7,24.6,13.7
	c0,8.4-9.8,10.3-15.9,10.3c-9.8,0-18.2-4.2-18.2-15.1h-18.2V135.8z"/>
<g>
	<g>
		<g>
			<path class="st1" d="M171,95c-12.8-5.9-33.2-2.5-42.7-8.9l0,0l-1.4,3.1c-13.1-5.9-17.3-13.7-19.8-20.7
				c-6.4-17.6-20.1-21.8-27.6-9.8c-2.8,4.2-4.7,10.3-5.3,18.4l-4.5-2.5c-0.3-8.4,0.3-15.6,1.1-22.1C79.3-1,129.3-1,160.9,22.1h-6.7
				C188.5,49.2,169.8,80.8,171,95z"/>
		</g>
		<path class="st2" d="M79.1,58.7c-2.8,4.2-4.7,10.3-5.3,18.4l-4.5-2.5C69,66.3,69.6,59,70.4,52.6L79.1,58.7z"/>
		<g>
			<path class="st3" d="M120.4,30.5c12.6,10.3,30.4,25.1,45.5,55.3c-6.1-28.5-33-53.3-41.1-60.9C121.8,21.9,116.8,27.4,120.4,30.5
				L120.4,30.5z"/>
		</g>
	</g>
	<g>
		<g>
			<g>
				<path class="st4" d="M124,168.8c13.4-5,25.1-21.5,36.6-23.7l0,0l-1.1-3.1c13.4-5,22.1-2.5,28.8,0.6c16.8,7.8,29.3,1.1,26.5-12.8
					c-1.1-4.7-3.9-10.6-9.2-17l4.7-1.4c6.1,5.6,10.9,11.2,14.8,16.5c31.8,44.1-3.6,79.3-42.2,85.5l4.7-4.7
					C144.1,213.7,134.9,178,124,168.8z"/>
			</g>
			<path class="st2" d="M214.8,129.7c-1.1-4.7-3.9-10.6-9.2-17l4.7-1.4c6.1,5.6,10.9,11.2,14.8,16.5L214.8,129.7z"/>
			<g>
				<path class="st1" d="M205.3,178.8c-16.2,1.7-39.4,3.9-71.5-7c24.6,15.9,61.2,14.5,72.1,14C210.6,185.8,210.3,178.3,205.3,178.8
					L205.3,178.8z"/>
			</g>
		</g>
		<g>
			<g>
				<path class="st5" d="M70.1,101.5c0.3,14.2,11.7,31.3,9.8,42.5l0,0h3.4c0.3,14.2-5,21.5-10.3,26.8C59.8,183.8,61.8,198.1,76,200
					c5,0.8,11.5,0,19-2.8l-0.3,5c-7.3,3.6-14.2,6.4-20.7,8.4c-52.2,14.8-73.5-30.7-65.6-69l2.8,5.9
					C21.3,104.8,57.8,108.4,70.1,101.5z"/>
			</g>
			<path class="st2" d="M76,200c5,0.8,11.5,0,19-2.8l-0.3,5c-7.3,3.6-14.2,6.4-20.7,8.4L76,200z"/>
			<g>
				<path class="st1" d="M33,174.4c3.9-15.9,9.8-38.3,31-64.8c-23.2,17.6-34.6,52.5-37.7,62.8C24.9,176.9,31.9,179.1,33,174.4
					L33,174.4z"/>
			</g>
		</g>
	</g>
</g>
</svg>
