<?xml version="1.0" encoding="UTF-8" standalone="no"?>
<!-- Generator: Adobe Illustrator 21.0.0, SVG Export Plug-In . SVG Version: 6.00 Build 0)  -->
<svg id="Layer_1" style="enable-background:new 0 0 792 612" xmlns="http://www.w3.org/2000/svg" xml:space="preserve" viewBox="0 0 792 612" version="1.1" y="0px" x="0px" xmlns:xlink="http://www.w3.org/1999/xlink">
<style type="text/css">
	.st0{fill:#EC008C;}
</style>
	<path d="m281.3 331.5c0-4.7 3.5-8.5 8.4-8.5 3 0 4.8 1 6.4 2.5l-1.8 2.1c-1.3-1.2-2.7-2-4.6-2-3.1 0-5.4 2.6-5.4 5.8s2.3 5.8 5.4 5.8c2 0 3.3-0.8 4.7-2.1l1.8 1.9c-1.7 1.8-3.6 2.9-6.6 2.9-4.8 0-8.3-3.7-8.3-8.4"/>
	<rect y="323.3" x="299.3" height="16.3" width="2.9"/>
	<path d="m306.3 332.7v-9.4h2.9v9.3c0 3 1.6 4.7 4.1 4.7s4.1-1.5 4.1-4.6v-9.4h2.9v9.3c0 4.9-2.8 7.3-7 7.3-4.3 0-7-2.5-7-7.2"/>
	<path d="m324.2 323.3h6.1c5.1 0 8.7 3.5 8.7 8.1v0.1c0 4.6-3.5 8.1-8.7 8.1h-6.1v-16.3zm6.1 13.7c3.4 0 5.7-2.3 5.7-5.5s-2.2-5.6-5.7-5.6h-3.2v11.1h3.2z"/>
	<path d="m347.1 323.2h2.7l7.2 16.4h-3l-1.7-3.9h-7.7l-1.7 3.9h-2.9l7.1-16.4zm4.1 9.9l-2.8-6.5-2.8 6.5h5.6z"/>
	<path d="m359.8 323.3h6.1c5.1 0 8.7 3.5 8.7 8.1v0.1c0 4.6-3.5 8.1-8.7 8.1h-6.1v-16.3zm6 13.7c3.4 0 5.7-2.3 5.7-5.5s-2.2-5.6-5.7-5.6h-3.2v11.1h3.2z"/>
	<path d="m385 323.3h6.1c5.1 0 8.7 3.5 8.7 8.1v0.1c0 4.6-3.5 8.1-8.7 8.1h-6.1v-16.3zm6.1 13.7c3.4 0 5.7-2.3 5.7-5.5s-2.2-5.6-5.7-5.6h-3.2v11.1h3.2z"/>
	<polygon points="403.2 323.3 415.3 323.3 415.3 325.8 406.1 325.8 406.1 330.1 414.3 330.1 414.3 332.7 406.1 332.7 406.1 337 415.4 337 415.4 339.6 403.2 339.6"/>
	<polygon points="425.8 323.3 428.9 323.3 433.8 331 438.8 323.3 441.9 323.3 441.9 339.6 439 339.6 439 327.9 433.8 335.6 433.7 335.6 428.6 327.9 428.6 339.6 425.8 339.6"/>
	<path d="m446.1 323.3h12.1v2.6h-9.2v4.2h8.2v2.6h-8.2v4.4h9.3v2.6h-12.2v-16.4zm6.8-5.2l2.6 1.1-2.8 2.7h-2.2l2.4-3.8z"/>
	<polygon points="466.4 331.3 460.7 323.3 464.1 323.3 468.1 329.1 472.2 323.3 475.5 323.3 469.8 331.3 475.7 339.6 472.3 339.6 468 333.4 463.7 339.6 460.4 339.6"/>
	<rect y="323.3" x="478.8" height="16.3" width="2.9"/>
	<path d="m485.3 331.5c0-4.7 3.5-8.5 8.4-8.5 3 0 4.8 1 6.4 2.5l-1.8 2.1c-1.3-1.2-2.7-2-4.6-2-3.1 0-5.4 2.6-5.4 5.8s2.3 5.8 5.4 5.8c2 0 3.3-0.8 4.7-2.1l1.8 1.9c-1.7 1.8-3.6 2.9-6.6 2.9-4.7 0-8.3-3.7-8.3-8.4"/>
	<path d="m502.1 331.5c0-4.6 3.5-8.5 8.6-8.5 5 0 8.5 3.8 8.5 8.4s-3.5 8.5-8.6 8.5c-5 0-8.5-3.8-8.5-8.4m14 0c0-3.2-2.3-5.9-5.6-5.9-3.2 0-5.5 2.6-5.5 5.8s2.3 5.8 5.6 5.8 5.5-2.5 5.5-5.7"/>
	<path d="m212.8 299.9c-15.8 0-30.3-6.1-40.9-17.2-10.5-11-16.3-25.9-16.3-41.9v-0.3c0-33.3 25.3-59.5 57.5-59.5 20.4 0 32.6 7.3 44.6 18.4l0.8 0.7-7.4 7.6-0.7-0.7c-14.9-14.4-27.3-16.3-37.4-16.3-12.8 0-24.6 5.1-33.3 14.3-8.6 9.2-13.4 21.7-13.4 35.3v0.3c0 28 20.5 49.9 46.8 49.9 14.7 0 25.7-5 38.2-17.3l0.7-0.7 7.1 6.9-0.7 0.7c-17.9 17.5-33.1 19.8-45.6 19.8"/>
	<path d="m320 298.1h-38.7v-115.3h38.7c35.5 0 61.2 24.1 61.2 57.3v0.3c0 15.9-6 30.4-17 41-11.3 10.8-26.9 16.7-44.2 16.7m-28.3-9.8h28.3c14.9 0 27.6-4.8 36.9-13.8 8.8-8.6 13.6-20.6 13.6-33.7v-0.3c0-13.1-4.8-25.1-13.6-33.8-9.3-9.2-22-14.1-36.9-14.1h-28.3v95.7z"/>
	<polygon points="403.6 182.8 431 182.8 461.3 231.6 491.6 182.8 519 182.8 519 298.2 493.8 298.2 493.8 222.8 461.3 272.1 460.6 272.1 428.5 223.3 428.5 298.2 403.6 298.2" class="st0"/>
	<polygon points="579.1 239.5 540.5 182.8 570.1 182.8 594.4 220.2 618.8 182.8 647.7 182.8 609.1 239.2 649.3 298.2 619.6 298.2 593.7 258.6 567.7 298.2 538.8 298.2" class="st0"/>
</svg>
