<?xml version="1.0" encoding="utf-8"?>
<!-- Generator: Adobe Illustrator 22.0.0, SVG Export Plug-In . SVG Version: 6.00 Build 0)  -->
<svg version="1.1" id="Layer_1" xmlns="http://www.w3.org/2000/svg" xmlns:xlink="http://www.w3.org/1999/xlink" x="0px" y="0px"
	 viewBox="0 0 594 612" style="enable-background:new 0 0 594 612;" xml:space="preserve">
<style type="text/css">
	.st0{fill:#E90A8A;}
	.st1{fill:url(#SVGID_1_);}
	.st2{fill:none;stroke:#E6E6E5;stroke-width:6;stroke-miterlimit:10;}
	.st3{fill:none;stroke:#FFFFFF;stroke-width:6;stroke-miterlimit:10;}
	.st4{fill:none;stroke:#E90A8A;stroke-width:6;stroke-miterlimit:10;}
</style>
<path class="st0" d="M562.4,612H28.8C12.9,612,0,598.7,0,582.4V29.6C0,13.3,12.9,0,28.8,0h536.5C581.1,0,594,13.3,594,29.6v549.7
	C594,597.4,579.8,612,562.4,612z"/>
<g>
	
		<image style="overflow:visible;opacity:0.4;enable-background:new    ;" width="1488" height="1488" xlink:href="5DE3ED8716B1D849.png"  transform="matrix(0.3143 0 0 0.3238 73.3489 69.4864)">
	</image>
	<g>
		
			<linearGradient id="SVGID_1_" gradientUnits="userSpaceOnUse" x1="87.4496" y1="312.8765" x2="508.5229" y2="312.8765" gradientTransform="matrix(1 0 0 -1 0 614)">
			<stop  offset="0" style="stop-color:#C2C0C0"/>
			<stop  offset="0.9859" style="stop-color:#FFFFFF"/>
		</linearGradient>
		<path class="st1" d="M253.8,88.9C404.4,57.4,534.6,191.5,504,346.6c-15,75.8-88.3,151.3-161.9,166.7
			C191.6,544.9,61.3,410.7,91.9,255.6C106.9,179.8,180.2,104.3,253.8,88.9z"/>
		<ellipse class="st2" cx="298" cy="301.1" rx="210.5" ry="216.9"/>
	</g>
</g>
<ellipse class="st3" cx="300.5" cy="303.7" rx="241.6" ry="248.8"/>
<path class="st4" d="M427.3,416.8c-1.7-4.5-4.1-8.7-6.8-12.5c-4.6-6.1-10.7-10.3-17.2-13.5c-2-0.9-3.8-2-5.9-2.6
	c-6.6-1.5-13.2-3.4-19.7-5.4c-2.4,0.1-4.3-0.7-6-2.2c-4.9-2-9.9-3.5-14.5-6.4c-1.6-0.3-3.2-0.7-4.2-2c-0.8-0.3-1.6-0.8-2.4-1.1
	c-2.4-0.5-4.3-1.8-5.8-3.8c-0.9-0.7-1.8-1.2-2.8-1.9c-1.1-0.5-1.7-1.4-2-2.7c-0.4-1.8-0.9-3.5-1.3-5.3c-0.7-1.8-0.7-3.7-1.1-5.4
	c-0.3-0.9-0.4-1.9-1.6-2.2c-1.1-0.5-2.1,0-3,0.1c-2,0.4-3.2-0.1-3.4-2.4c-0.3-1.6-0.7-3.1-0.7-4.7c-0.1-3.5-0.7-7.2,2.6-9.8
	c3.8-7.9,6.6-16.3,8.8-24.7c0.5-1.9,1.4-3.5,3.8-3.7c1.4,0,2.6-1.1,3.2-2.7c1.4-5,2.9-10,5.1-14.8c0.7-3.4,2.4-6.6,2.5-10.2
	c0-0.7,0.1-1.5,0.1-2.2c-0.1-0.3-0.3-0.5-0.4-0.8c-0.1-0.1-0.3-0.1-0.4-0.3c0.1-1.5,0.1-3,0.1-4.6c-0.1-2.2-1.1-3.9-3-4.5
	c-1.8-0.5-2.2-1.6-2.1-3.3c0.4-6.6,0.8-13.4,1.2-20.2c0.1-0.3,0-0.4-0.1-0.7c0.1-0.1,0.1-0.3,0-0.4c-0.1-2-0.4-4.1-0.5-6.1
	c-0.5-4.9-1.1-9.8-3.6-14.1c-4.7-8.3-11.4-14.6-19.7-19.1c-7.1-3.7-14.7-5.6-22.4-7.2c-16-3.3-30.2,0.4-42.7,11.2
	c0,0.1,0.1,0.3,0.1,0.4l0,0l0,0c-1.4,0.9-2.5,2.2-3.3,3.7c-1.4,2.8-3.7,5.1-5.9,7.3c-4.2,4.1-6.4,8.7-5.8,14.5
	c-0.1,0.1-0.3,0.1-0.5,0.3c-0.3,0.3-0.4,0.4-0.5,0.7c-1.1,4.7,0.3,9.6,0.3,14.4c1.2,4.1,1.2,8.3,1.4,12.3c0.1,2.3-0.4,3.8-2.6,4.6
	c-2.8,0.9-3.8,3.3-4.2,6c-0.4,2.8-0.4,5.7,0.3,8.4c1.1,3.9,2.1,7.9,3.4,11.8c2,3.3,3.2,6.9,3.8,10.6c0.4,2.4,1.4,3.8,3.6,4.6
	c1.7,0.7,2.6,1.9,3,3.7c0.7,2.8,1.7,5.6,2.5,8.4c1.1,2.3,2.6,4.3,2.6,6.9c0,0.3,0.1,0.5,0.1,0.8c4.7,7.7,7.2,15.8,4.2,24.9
	c-1.6,1.8-3.2-0.1-4.7-0.1c-1.6,0-2.9-0.1-3.3,1.9c-1.2,3.9-1.8,8.1-3.2,12.1c-0.7,2.2-1.7,3.8-3.7,4.7c-4.3,2.3-8.8,4.3-13.5,5.7
	c-3.2,2.3-7,3-10.4,4.3c-6.8,2.6-14.1,4.1-21,6c-8.7,2.4-17,5.3-24.2,11c-3.7,4.6-8.5,8.4-10.3,14.5c0,2.6,0.1,5.1,0,7.7
	c-0.1,2,0.4,2.4,2.4,2.4c85.1,0,170,0,255.1,0C428,419.4,427.8,418.2,427.3,416.8z"/>
</svg>
