<?xml version="1.0" encoding="utf-8"?>
<!-- Generator: Adobe Illustrator 22.0.0, SVG Export Plug-In . SVG Version: 6.00 Build 0)  -->
<svg version="1.1" id="Layer_1" xmlns="http://www.w3.org/2000/svg" xmlns:xlink="http://www.w3.org/1999/xlink" x="0px" y="0px"
	 viewBox="0 0 594 612" style="enable-background:new 0 0 594 612;" xml:space="preserve">
<style type="text/css">
	.st0{fill:#818282;}
	.st1{fill:url(#SVGID_1_);}
	.st2{fill:none;stroke:#E5E5E4;stroke-width:6;stroke-miterlimit:10;}
	.st3{fill:none;stroke:#999999;stroke-width:6;stroke-miterlimit:10;}
	.st4{fill:none;stroke:#666767;stroke-width:6;stroke-linecap:round;stroke-linejoin:round;stroke-miterlimit:10;}
</style>
<path class="st0" d="M562.4,612H31.6C14.2,612,0,597.4,0,579.5v-547C0,14.6,14.2,0,31.6,0h530.9C579.8,0,594,14.6,594,32.5v546.8
	C594,597.4,579.8,612,562.4,612z"/>
<g>
	
		<image style="overflow:visible;opacity:0.4;enable-background:new    ;" width="359" height="358" xlink:href="4527E75C00BB7773.png"  transform="matrix(1.3114 0 0 1.3508 67.9952 69.4929)">
	</image>
	<g>
		
			<linearGradient id="SVGID_1_" gradientUnits="userSpaceOnUse" x1="83.2415" y1="312.8765" x2="504.3148" y2="312.8765" gradientTransform="matrix(1 0 0 -1 0 614)">
			<stop  offset="0" style="stop-color:#C0BFBF"/>
			<stop  offset="0.9859" style="stop-color:#FFFFFF"/>
		</linearGradient>
		<ellipse class="st1" cx="293.8" cy="301.1" rx="210.5" ry="216.9"/>
		<ellipse class="st2" cx="293.8" cy="301.1" rx="210.5" ry="216.9"/>
	</g>
</g>
<ellipse class="st3" cx="296.3" cy="303.7" rx="241.6" ry="248.8"/>
<polygon class="st4" points="213.3,249 239.7,224.6 241.2,179.5 214.1,203.2 "/>
<path class="st4" d="M181.3,286.8h232v143l-84.4,1.6v-60.7c0-23.3-14.2-42.4-31.6-42.4l0,0c-17.4,0-31.6,19.1-31.6,42.4v59.7h-84.4
	L181.3,286.8L181.3,286.8z M428.8,288.3l-262.5-1.5c142.9-111.3,107.2-121.4,249.6-9.6L428.8,288.3z"/>
<path class="st4" d="M371.8,312.1c-13.5,0-24.5,11.2-24.5,25.2v51.9h48.9v-51.9C396.2,323.3,385.3,312.1,371.8,312.1z"/>
<line class="st4" x1="371.8" y1="312.1" x2="371.8" y2="387.3"/>
<line class="st4" x1="349.5" y1="350.6" x2="396.2" y2="350.6"/>
<path class="st4" d="M224.1,312.1c-13.5,0-24.5,11.2-24.5,25.2v51.9h48.9v-51.9C248.5,323.3,237.6,312.1,224.1,312.1z"/>
<line class="st4" x1="224.1" y1="312.1" x2="224.1" y2="387.3"/>
<line class="st4" x1="201.9" y1="350.6" x2="248.5" y2="350.6"/>
</svg>
