<?xml version="1.0" encoding="utf-8"?>
<!-- Generator: Adobe Illustrator 21.0.0, SVG Export Plug-In . SVG Version: 6.00 Build 0)  -->
<svg version="1.1" id="Layer_1" xmlns="http://www.w3.org/2000/svg" xmlns:xlink="http://www.w3.org/1999/xlink" x="0px" y="0px"
	 viewBox="0 0 594 612" style="enable-background:new 0 0 594 612;" xml:space="preserve">
<style type="text/css">
	.st0{fill:#E80589;}
	.st1{fill:url(#SVGID_1_);}
	.st2{fill:none;stroke:#E5E5E4;stroke-width:6;stroke-miterlimit:10;}
	.st3{fill:none;stroke:#FFFFFF;stroke-width:6;stroke-miterlimit:10;}
	
		.st4{fill-rule:evenodd;clip-rule:evenodd;fill:none;stroke:#666767;stroke-width:6;stroke-linecap:round;stroke-linejoin:round;stroke-miterlimit:10;}
	.st5{fill:none;stroke:#666767;stroke-width:6;stroke-linecap:round;stroke-linejoin:round;stroke-miterlimit:10;}
</style>
<path class="st0" d="M503,531.9H99.3c-13.2,0-24-10.8-24-24V104.1c0-13.2,10.8-24,24-24H503c13.2,0,24,10.8,24,24v403.7
	C527,521.1,516.2,531.9,503,531.9z"/>
<g>
	
		<image style="overflow:visible;opacity:0.4;" width="358" height="357" xlink:href="365C08E16A8B5BBC.png"  transform="matrix(1 0 0 1 126.9902 130.8586)">
	</image>
	<g>
		<linearGradient id="SVGID_1_" gradientUnits="userSpaceOnUse" x1="138.6193" y1="302.3719" x2="458.8468" y2="302.3719">
			<stop  offset="0" style="stop-color:#C0BFBF"/>
			<stop  offset="0.9859" style="stop-color:#FFFFFF"/>
		</linearGradient>
		<circle class="st1" cx="298.7" cy="302.4" r="160.1"/>
		
			<ellipse transform="matrix(0.9797 -0.2005 0.2005 0.9797 -54.5629 66.0412)" class="st2" cx="298.7" cy="302.4" rx="160.1" ry="160.1"/>
	</g>
</g>
<circle class="st3" cx="300.6" cy="304.3" r="183.7"/>
<polygon class="st4" points="237.5,263.9 257.6,245.9 258.6,212.6 238.1,230.1 "/>
<path class="st4" d="M213.1,291.8h176.4v105.6l-64.2,1.2v-44.8c0-17.2-10.8-31.3-24-31.3l0,0c-13.2,0-24,14.1-24,31.3v44.1l-64.2,0
	V291.8z M401.4,292.9l-199.6-1.1c108.7-82.2,81.5-89.6,189.8-7.1L401.4,292.9z"/>
<path class="st4" d="M358,310.5c-10.3,0-18.6,8.3-18.6,18.6v38.3h37.2v-38.3C376.6,318.8,368.3,310.5,358,310.5z"/>
<line class="st5" x1="358" y1="310.5" x2="358" y2="366"/>
<line class="st5" x1="341.1" y1="338.9" x2="376.6" y2="338.9"/>
<path class="st4" d="M245.7,310.5c-10.3,0-18.6,8.3-18.6,18.6v38.3h37.2v-38.3C264.3,318.8,256,310.5,245.7,310.5z"/>
<line class="st5" x1="245.7" y1="310.5" x2="245.7" y2="366"/>
<line class="st5" x1="228.8" y1="338.9" x2="264.3" y2="338.9"/>
</svg>
