<?xml version="1.0" encoding="utf-8"?>
<!-- Generator: Adobe Illustrator 22.0.0, SVG Export Plug-In . SVG Version: 6.00 Build 0)  -->
<svg version="1.1" id="Layer_1" xmlns="http://www.w3.org/2000/svg" xmlns:xlink="http://www.w3.org/1999/xlink" x="0px" y="0px"
	 viewBox="0 0 594 612" style="enable-background:new 0 0 594 612;" xml:space="preserve">
<style type="text/css">
	.st0{fill:#E80589;}
	.st1{fill:url(#SVGID_1_);}
	.st2{fill:none;stroke:#E5E5E4;stroke-width:6;stroke-miterlimit:10;}
	.st3{fill:none;stroke:#FFFFFF;stroke-width:6;stroke-miterlimit:10;}
	.st4{fill:none;stroke:#55A345;stroke-width:6;stroke-miterlimit:10;}
</style>
<path class="st0" d="M562.4,612H31.6C14.2,612,0,597.4,0,579.5v-547C0,14.6,14.2,0,31.6,0h530.9C579.8,0,594,14.6,594,32.5v546.8
	C594,597.4,579.8,612,562.4,612z"/>
<g>
	
		<image style="overflow:visible;opacity:0.4;enable-background:new    ;" width="358" height="358" xlink:href="402A1F0C806510B6.png"  transform="matrix(1.3114 0 0 1.3508 68.5936 68.7567)">
	</image>
	<g>
		
			<linearGradient id="SVGID_1_" gradientUnits="userSpaceOnUse" x1="83.5045" y1="312.8765" x2="504.5778" y2="312.8765" gradientTransform="matrix(1 0 0 -1 0 614)">
			<stop  offset="0" style="stop-color:#C0BFBF"/>
			<stop  offset="0.9859" style="stop-color:#FFFFFF"/>
		</linearGradient>
		<ellipse class="st1" cx="294" cy="301.1" rx="210.5" ry="216.9"/>
		<ellipse class="st2" cx="294" cy="301.1" rx="210.5" ry="216.9"/>
	</g>
</g>
<ellipse class="st3" cx="296.5" cy="303.7" rx="241.6" ry="248.8"/>
<g>
	<g>
		<path class="st4" d="M155.6,369.5c0,0-0.1,16.8,3.8,22.2c3.9,5.4,42.3,5.1,47.7,0c5.4-5.1,3.7-7.5,3.7-7.5
			C195.3,384.3,155.6,369.5,155.6,369.5z"/>
		<path class="st4" d="M380.7,384.3c0,0-1.7,2.3,3.7,7.5c5.4,5.1,43.9,5.4,47.9,0c3.9-5.4,3.8-22.2,3.8-22.2
			S396.2,384.3,380.7,384.3z"/>
	</g>
	<path class="st4" d="M439.7,341.5c-2.2-4.5-9.1-6.1-9.1-6.1s0.4-29-3-35.9c-3.4-6.9-34.7-23.7-34.7-23.7l3.8-4.1c0,0,20.8,2,23,0
		c2.2-2,3.8-12.6,0-16.3c-3.8-3.7-26.4-2.8-29.9-0.8c-3.4,2-6,3.1-6,3.1c-18-45.9-24.2-48-24.2-48h-63.9h-63.9
		c0,0-6.2-1.8-23.5,46.3c0,0-3.3,0.5-6.7-1.5c-3.4-2-26-2.8-29.9,0.8c-3.8,3.7-2.2,14.2,0,16.3c2.2,2,23,0,23,0l3.8,4.1
		c0,0-31.4,16.7-34.7,23.7c-3.4,6.9-3,35.9-3,35.9s-6.8,1.6-9.1,6.1c-2.2,4.5,0,27.4,0,27.4s49.6,17.9,144,17.9
		c94.6,0,144-17.9,144-17.9S442,346,439.7,341.5z M252.5,233.8h43.3c0,0,40.1-0.5,44.6,0c6.2,0.7,26,35.5,24.6,42
		c-1.4,6.5-69,5.7-69,5.7s-66.4,0.8-67.9-5.7C226.3,269.3,246.4,235.4,252.5,233.8z M222.4,335.3c-5.7,3.3-45-12.2-45-12.2V304
		c0,0,12.9,1.6,24.6,5.3C213.7,312.9,228.2,332,222.4,335.3z M347.6,363.4c-0.8,4.1-51.8,4.9-51.8,4.9s-51-0.8-51.8-4.9
		s-2.6-20.9,1.6-22.1c4.2-1.2,50.2,0,50.2,0s46.2-1.2,50.2,0C350.2,342.7,348.4,359.4,347.6,363.4z M411.5,323.1
		c0,0-36.7,15.4-42.3,12.2c-5.7-3.3,8.7-22.5,20.4-26.1c11.7-3.7,22-5.3,22-5.3V323.1z"/>
</g>
</svg>
